<svg xmlns="http://www.w3.org/2000/svg" xml:space="preserve" id="Calque_1" x="0" y="0" viewBox="0 0 997 783"><style>.st0{fill:#31a02a}.st1{fill:#fff}</style><path d="M454 601.2h66c8.3 0 15 6.7 15 15s-6.7 15-15 15h-66c-8.3 0-15-6.7-15-15 0-8.2 6.7-15 15-15" class="st0"/><path d="M448.5 620.2v-8.5h3c1.6 0 2.7 1.1 2.7 2.7s-1.1 2.7-2.7 2.7h-2v3h-1zm2.7-7.5h-1.7v3.6h1.7c1.2 0 1.9-.7 1.9-1.8.1-1.1-.6-1.8-1.9-1.8m5.3 7.7c-1.2 0-2-.7-2-1.8 0-1 .8-1.7 2.2-1.8l1.7-.1v-.5c0-.7-.5-1.2-1.3-1.2s-1.3.4-1.4.9v.1h-1v-.1c.1-1 1-1.8 2.4-1.8s2.3.8 2.3 2v4.2h-1v-1c-.3.6-1 1.1-1.9 1.1m-.9-1.9c0 .6.5 1 1.2 1 1 0 1.7-.7 1.7-1.5v-.5l-1.6.1c-.9 0-1.3.3-1.3.9m5.2 3.8v-8.1h1v1c.4-.7 1.1-1.1 1.9-1.1 1.6 0 2.6 1.2 2.6 3.2 0 1.9-1 3.2-2.6 3.2-.9 0-1.6-.4-2-1.1v3.1h-.9zm2.8-2.8c1.1 0 1.7-.9 1.7-2.3s-.7-2.3-1.7-2.3-1.8.9-1.8 2.3.7 2.3 1.8 2.3m5.6.9c-1.2 0-2-.7-2-1.8 0-1 .8-1.7 2.2-1.8l1.7-.1v-.5c0-.7-.5-1.2-1.3-1.2s-1.3.4-1.4.9v.1h-1v-.1c.1-1 1-1.8 2.4-1.8s2.3.8 2.3 2v4.2h-1v-1c-.4.6-1.1 1.1-1.9 1.1m-1-1.9c0 .6.5 1 1.2 1 1 0 1.7-.7 1.7-1.5v-.5l-1.6.1c-.9 0-1.3.3-1.3.9m11.4 1.9c-2.4 0-3.9-1.7-3.9-4.4 0-2.6 1.5-4.3 3.9-4.3 1.9 0 3.1 1.1 3.5 2.6v.1H482v-.1c-.4-1.1-1.2-1.7-2.4-1.7-1.7 0-2.8 1.3-2.8 3.3 0 2.1 1.1 3.4 2.8 3.4 1.5 0 2.5-1 2.5-2.4v-.2h-2.4v-.9h3.4v.8c.1 2.4-1.3 3.8-3.5 3.8m6.8 0c-1.3 0-2.1-.9-2.1-2.3v-4h1v3.8c0 1 .5 1.5 1.4 1.5 1 0 1.6-.7 1.6-1.7v-3.6h1v6.1h-1v-.9c-.3.6-.9 1.1-1.9 1.1m6.8 0c-1.8 0-2.8-1.2-2.8-3.1s1.1-3.2 2.7-3.2 2.7 1.2 2.7 3.1v.4h-4.4c0 1.3.7 2 1.8 2 .8 0 1.3-.4 1.5-.9v-.1h1v.1c-.2.9-1.2 1.7-2.5 1.7m-.1-5.5c-.9 0-1.6.6-1.7 1.7h3.3c0-1.1-.7-1.7-1.6-1.7m4.1 7.4h-.5v-.8h.3c.6 0 1-.2 1.2-.9l.1-.3-2.3-6.1h1.1l1.7 5.1 1.7-5.1h1.1l-2.4 6.5c-.4 1.1-.9 1.6-2 1.6m7.5-1.9c-1.8 0-2.8-1.2-2.8-3.1s1.1-3.2 2.7-3.2 2.7 1.2 2.7 3.1v.4h-4.4c0 1.3.7 2 1.8 2 .8 0 1.3-.4 1.5-.9v-.1h1v.1c-.2.9-1.2 1.7-2.5 1.7m-.1-5.5c-.9 0-1.6.6-1.7 1.7h3.3c0-1.1-.7-1.7-1.6-1.7m6.4 5.3v-8.5h5.1v1H512v2.9h3.7v.9H512v3.7zm7.5.2c-1.2 0-2-.7-2-1.8 0-1 .8-1.7 2.2-1.8l1.7-.1v-.5c0-.7-.5-1.2-1.3-1.2s-1.3.4-1.4.9v.1h-1v-.1c.1-1 1-1.8 2.4-1.8s2.3.8 2.3 2v4.2h-1v-1c-.3.6-1.1 1.1-1.9 1.1m-1-1.9c0 .6.5 1 1.2 1 1 0 1.7-.7 1.7-1.5v-.5l-1.6.1c-.8 0-1.3.3-1.3.9m5.3 1.7v-8.5h1v8.5zm2.5 0v-8.5h1v8.5z" class="st1"/><path d="M311 581.2h73c8.3 0 15 6.7 15 15s-6.7 15-15 15h-73c-8.3 0-15-6.7-15-15s6.8-15 15-15" class="st0"/><path d="M308.9 600.4c-2.4 0-3.9-1.7-3.9-4.4 0-2.6 1.5-4.3 3.9-4.3 1.9 0 3.1 1.1 3.5 2.6v.1h-1.1v-.1c-.4-1.1-1.2-1.7-2.4-1.7-1.7 0-2.8 1.3-2.8 3.3 0 2.1 1.1 3.4 2.8 3.4 1.5 0 2.5-1 2.5-2.4v-.2H309v-.9h3.4v.8c.1 2.4-1.2 3.8-3.5 3.8m4.8-.2v-6.1h1v1c.2-.7.7-1.1 1.4-1.1h.4v1c-.1 0-.3-.1-.5-.1-.8 0-1.3.6-1.3 1.5v3.8zm5.3.1c-1.2 0-2-.7-2-1.8 0-1 .8-1.7 2.2-1.8l1.7-.1v-.5c0-.7-.5-1.2-1.3-1.2s-1.3.4-1.4.9v.1h-1v-.1c.1-1 1-1.8 2.4-1.8s2.3.8 2.3 2v4.2h-1v-1c-.3.7-1 1.1-1.9 1.1m-.9-1.8c0 .6.5 1 1.2 1 1 0 1.7-.7 1.7-1.5v-.5l-1.6.1c-.9 0-1.3.3-1.3.9m5.2 1.7v-6.1h1v.9c.3-.6 1-1 1.9-1 1.3 0 2.1.9 2.1 2.3v4h-1v-3.8c0-1-.5-1.5-1.4-1.5-1 0-1.6.7-1.6 1.7v3.6h-1zm8.6.1c-1.6 0-2.6-1.2-2.6-3.2 0-1.9 1-3.2 2.6-3.2.9 0 1.6.4 2 1.1v-3.4h1v8.5h-1v-1c-.4.8-1.1 1.2-2 1.2m.2-.9c1 0 1.8-.9 1.8-2.3s-.7-2.3-1.8-2.3-1.7.9-1.7 2.3c0 1.5.6 2.3 1.7 2.3m6.7.9c-1.8 0-2.8-1.2-2.8-3.1s1.1-3.2 2.7-3.2 2.7 1.2 2.7 3.1v.4H337c0 1.3.7 2 1.8 2 .8 0 1.3-.4 1.5-.9v-.1h1v.1c-.2.9-1.2 1.7-2.5 1.7m-.1-5.4c-.9 0-1.6.6-1.7 1.7h3.3c-.1-1.1-.7-1.7-1.6-1.7m6.2 5.3v-6.1h1v.9c.3-.6.9-1 1.7-1s1.4.4 1.7 1.2c.3-.7 1.1-1.2 1.9-1.2 1.2 0 2 .8 2 2v4.2h-1v-4c0-.8-.5-1.3-1.3-1.3s-1.4.6-1.4 1.4v3.9h-1v-4.1c0-.7-.5-1.2-1.2-1.2-.8 0-1.4.6-1.4 1.5v3.8zm12.1.1c-1.7 0-2.8-1.2-2.8-3.2 0-1.9 1.1-3.2 2.8-3.2s2.8 1.2 2.8 3.2c.1 2-1.1 3.2-2.8 3.2m0-.9c1.1 0 1.8-.8 1.8-2.3 0-1.4-.7-2.2-1.8-2.2s-1.8.8-1.8 2.2c.1 1.5.8 2.3 1.8 2.3m6.1.9c-1.4 0-2.3-.7-2.4-1.8v-.1h1v.1c.1.6.6 1 1.4 1s1.3-.3 1.3-.9c0-.4-.2-.7-.9-.9l-1-.2c-1.1-.3-1.7-.8-1.7-1.7 0-1 .9-1.8 2.2-1.8s2.2.8 2.3 1.8v.1h-1c-.1-.6-.5-1-1.3-1-.7 0-1.2.4-1.2.9 0 .4.3.7 1 .9l1 .2c1.2.3 1.7.8 1.7 1.7-.1 1-1.1 1.7-2.4 1.7m7.6 2v-3c-.4.7-1.1 1.1-1.9 1.1-1.5 0-2.6-1.2-2.6-3.2 0-1.9 1.1-3.1 2.6-3.1.9 0 1.5.5 1.9 1.1v-1h1v8.1zm-1.7-2.9c1 0 1.7-.9 1.7-2.3s-.7-2.2-1.7-2.2c-1.1 0-1.8.9-1.8 2.2 0 1.5.7 2.3 1.8 2.3m6.1.9c-1.3 0-2.1-.9-2.1-2.3v-4h1v3.8c0 1 .5 1.5 1.4 1.5 1 0 1.6-.7 1.6-1.7V594h1v6.1h-1v-.9c-.3.7-.9 1.1-1.9 1.1m7.1-6.9h-.8l1-1.8h1.1zm-.3 6.9c-1.8 0-2.8-1.2-2.8-3.1s1.1-3.2 2.7-3.2 2.7 1.2 2.7 3.1v.4h-4.4c0 1.3.7 2 1.8 2 .8 0 1.3-.4 1.5-.9v-.1h1v.1c-.2.9-1.2 1.7-2.5 1.7m-.1-5.4c-.9 0-1.6.6-1.7 1.7h3.3c0-1.1-.7-1.7-1.6-1.7m6.3 5.4c-1.8 0-2.8-1.2-2.8-3.1s1.1-3.2 2.7-3.2 2.7 1.2 2.7 3.1v.4h-4.4c0 1.3.7 2 1.8 2 .8 0 1.3-.4 1.5-.9v-.1h1v.1c-.2.9-1.2 1.7-2.5 1.7m-.1-5.4c-.9 0-1.6.6-1.7 1.7h3.3c-.1-1.1-.7-1.7-1.6-1.7" class="st1"/><path d="M416.8 511.3h74c8.3 0 15 6.7 15 15s-6.7 15-15 15h-74c-8.3 0-15-6.7-15-15s6.7-15 15-15" class="st0"/><path d="M410.6 530.3v-8.5h3c1.6 0 2.7 1.1 2.7 2.7s-1.1 2.7-2.7 2.7h-2v3h-1zm2.7-7.5h-1.7v3.6h1.7c1.2 0 1.9-.7 1.9-1.8s-.7-1.8-1.9-1.8m4.1 7.5v-8.5h1v8.5zm4.2.1c-1.2 0-2-.7-2-1.8 0-1 .8-1.7 2.2-1.8l1.7-.1v-.5c0-.7-.5-1.2-1.3-1.2s-1.3.4-1.4.9v.1h-1v-.1c.1-1 1-1.8 2.4-1.8s2.3.8 2.3 2v4.2h-1v-1c-.4.7-1.1 1.1-1.9 1.1m-1-1.8c0 .6.5 1 1.2 1 1 0 1.7-.7 1.7-1.5v-.5l-1.6.1c-.8-.1-1.3.3-1.3.9m7.8 1.8c-1.7 0-2.8-1.2-2.8-3.2 0-1.9 1.1-3.2 2.8-3.2 1.5 0 2.4 1 2.5 2.1h-1c-.2-.6-.6-1.1-1.5-1.1-1.1 0-1.8.9-1.8 2.3s.7 2.3 1.8 2.3c.8 0 1.4-.5 1.5-1.1h1c-.2 1-1.2 1.9-2.5 1.9m6 0c-1.8 0-2.8-1.2-2.8-3.1s1.1-3.2 2.7-3.2 2.7 1.2 2.7 3.1v.4h-4.4c0 1.3.7 2 1.8 2 .8 0 1.3-.4 1.5-.9v-.1h1v.1c-.2.9-1.2 1.7-2.5 1.7m-.1-5.4c-.9 0-1.6.6-1.7 1.7h3.3c-.1-1.1-.7-1.7-1.6-1.7m8.5 5.4c-1.6 0-2.6-1.2-2.6-3.2 0-1.9 1-3.2 2.6-3.2.9 0 1.6.4 2 1.1v-3.4h1v8.5h-1v-1c-.5.8-1.2 1.2-2 1.2m.2-.9c1 0 1.8-.9 1.8-2.3s-.7-2.3-1.8-2.3-1.7.9-1.7 2.3c-.1 1.5.6 2.3 1.7 2.3m6.6.9c-1.8 0-2.8-1.2-2.8-3.1s1.1-3.2 2.7-3.2c1.7 0 2.7 1.2 2.7 3.1v.4h-4.4c0 1.3.7 2 1.8 2 .8 0 1.3-.4 1.5-.9v-.1h1v.1c-.2.9-1.1 1.7-2.5 1.7m0-5.4c-.9 0-1.6.6-1.7 1.7h3.3c-.1-1.1-.8-1.7-1.6-1.7m6.2 5.3v-8.5h1v8.5zm4.2.1c-1.2 0-2-.7-2-1.8 0-1 .8-1.7 2.2-1.8l1.7-.1v-.5c0-.7-.5-1.2-1.3-1.2s-1.3.4-1.4.9v.1h-1v-.1c.1-1 1-1.8 2.4-1.8s2.3.8 2.3 2v4.2h-1v-1c-.4.7-1.1 1.1-1.9 1.1m-1-1.8c0 .6.5 1 1.2 1 1 0 1.7-.7 1.7-1.5v-.5l-1.6.1c-.9-.1-1.3.3-1.3.9m7.7 1.7v-6.1h1v.9c.3-.6.9-1 1.9-1 1.3 0 2.1.9 2.1 2.3v4h-1v-3.8c0-1-.5-1.5-1.4-1.5-1 0-1.6.7-1.6 1.7v3.6h-1zm8.1.1c-1.2 0-2-.7-2-1.8 0-1 .8-1.7 2.2-1.8l1.7-.1v-.5c0-.7-.5-1.2-1.3-1.2s-1.3.4-1.4.9v.1h-1v-.1c.1-1 1-1.8 2.4-1.8s2.3.8 2.3 2v4.2h-1v-1c-.4.7-1.1 1.1-1.9 1.1m-1-1.8c0 .6.5 1 1.2 1 1 0 1.7-.7 1.7-1.5v-.5l-1.6.1c-.8-.1-1.3.3-1.3.9m7.2 1.8c-1.1 0-1.7-.5-1.7-1.7V525h-.9v-.8h.9v-1.6h1.1v1.6h1.2v.8h-1.2v3.7c0 .7.3.8.8.8h.3v.8c-.1.1-.3.1-.5.1m2.2-7.2c-.4 0-.6-.3-.6-.6 0-.4.3-.6.6-.6.4 0 .6.3.6.6s-.2.6-.6.6m-.5 7.1v-6.1h1v6.1zm4.9.1c-1.7 0-2.8-1.2-2.8-3.2 0-1.9 1.1-3.2 2.8-3.2s2.8 1.2 2.8 3.2c.1 2-1.1 3.2-2.8 3.2m0-.9c1.1 0 1.8-.8 1.8-2.3 0-1.4-.7-2.2-1.8-2.2s-1.8.8-1.8 2.2c.1 1.5.8 2.3 1.8 2.3m3.9.8v-6.1h1v.9c.3-.6 1-1 1.9-1 1.3 0 2.1.9 2.1 2.3v4h-1v-3.8c0-1-.5-1.5-1.4-1.5-1 0-1.6.7-1.6 1.7v3.6h-1z" class="st1"/><path d="M311 493.2h32c8.3 0 15 6.7 15 15s-6.7 15-15 15h-32c-8.3 0-15-6.7-15-15s6.7-15 15-15" class="st0"/><path d="M305.7 512.2v-8.5h2.8c2.5 0 4 1.6 4 4.2 0 2.7-1.5 4.2-4 4.2h-2.8zm1-.9h1.7c1.9 0 3-1.2 3-3.3s-1.1-3.3-3-3.3h-1.7zm7.5-6.2c-.4 0-.6-.3-.6-.6 0-.4.3-.6.6-.6.4 0 .6.3.6.6.1.3-.2.6-.6.6m-.5 7.1v-6.1h1v6.1zm4.2.1c-1.2 0-2-.7-2-1.8 0-1 .8-1.7 2.2-1.8l1.7-.1v-.5c0-.7-.5-1.2-1.3-1.2s-1.3.4-1.4.9v.1h-1v-.1c.1-1 1-1.8 2.4-1.8s2.3.8 2.3 2v4.2h-1v-1c-.3.7-1.1 1.1-1.9 1.1m-1-1.8c0 .6.5 1 1.2 1 1 0 1.7-.7 1.7-1.5v-.5l-1.6.1c-.8 0-1.3.3-1.3.9m5.3 1.7v-8.5h1v8.5zm5 0v-8.5h2.8c2.5 0 4 1.6 4 4.2 0 2.7-1.5 4.2-4 4.2h-2.8zm1.1-.9h1.7c1.9 0 3-1.2 3-3.3s-1.1-3.3-3-3.3h-1.7zm7.5-6.2c-.4 0-.6-.3-.6-.6 0-.4.3-.6.6-.6.4 0 .6.3.6.6s-.2.6-.6.6m-.5 7.1v-6.1h1v6.1zm4.9.1c-1.7 0-2.8-1.2-2.8-3.2 0-1.9 1.1-3.2 2.8-3.2s2.8 1.2 2.8 3.2-1.1 3.2-2.8 3.2m0-.9c1.1 0 1.8-.8 1.8-2.3 0-1.4-.7-2.2-1.8-2.2s-1.8.8-1.8 2.2c0 1.5.8 2.3 1.8 2.3m3.9 2.9v-8.1h1v1c.4-.7 1.1-1.1 1.9-1.1 1.6 0 2.6 1.2 2.6 3.2 0 1.9-1 3.2-2.6 3.2-.9 0-1.6-.4-2-1.1v3.1h-.9zm2.8-2.9c1.1 0 1.7-.9 1.7-2.3s-.7-2.3-1.7-2.3-1.8.9-1.8 2.3.7 2.3 1.8 2.3" class="st1"/><path d="M383 466.7h50c8.3 0 15 6.7 15 15s-6.7 15-15 15h-50c-8.3 0-15-6.7-15-15s6.7-15 15-15" class="st0"/><path d="M381.1 485.9c-2.4 0-3.9-1.7-3.9-4.4 0-2.6 1.5-4.3 3.9-4.3 1.9 0 3.1 1.1 3.5 2.6v.1h-1.1v-.1c-.4-1.1-1.2-1.7-2.4-1.7-1.7 0-2.8 1.3-2.8 3.3 0 2.1 1.1 3.4 2.8 3.4 1.5 0 2.5-1 2.5-2.4v-.2h-2.4v-.9h3.4v.8c.1 2.4-1.3 3.8-3.5 3.8m4.8-.2v-6.1h1v1c.2-.7.7-1.1 1.4-1.1h.4v1c-.1 0-.3-.1-.5-.1-.8 0-1.3.6-1.3 1.5v3.8zm5.3.1c-1.2 0-2-.7-2-1.8 0-1 .8-1.7 2.2-1.8l1.7-.1v-.5c0-.7-.5-1.2-1.3-1.2s-1.3.4-1.4.9v.1h-1v-.1c.1-1 1-1.8 2.4-1.8s2.3.8 2.3 2v4.2h-1v-1c-.3.7-1.1 1.1-1.9 1.1m-1-1.8c0 .6.5 1 1.2 1 1 0 1.7-.7 1.7-1.5v-.5l-1.6.1c-.8 0-1.3.3-1.3.9m5.3 1.7v-6.1h1v.9c.3-.6.9-1 1.9-1 1.3 0 2.1.9 2.1 2.3v4h-1V482c0-1-.5-1.5-1.4-1.5-1 0-1.6.7-1.6 1.7v3.6h-1zm8.6.1c-1.6 0-2.6-1.2-2.6-3.2 0-1.9 1-3.2 2.6-3.2.9 0 1.6.4 2 1.1v-3.4h1v8.5h-1v-1c-.5.8-1.1 1.2-2 1.2m.2-.9c1 0 1.8-.9 1.8-2.3s-.7-2.3-1.8-2.3-1.7.9-1.7 2.3c-.1 1.5.6 2.3 1.7 2.3m6.8.8v-8.5h2.8c2.5 0 4 1.6 4 4.2 0 2.7-1.5 4.2-4 4.2h-2.8zm1-.9h1.7c1.9 0 3-1.2 3-3.3s-1.1-3.3-3-3.3h-1.7zm8.7 1c-1.2 0-2-.7-2-1.8 0-1 .8-1.7 2.2-1.8l1.7-.1v-.5c0-.7-.5-1.2-1.3-1.2s-1.3.4-1.4.9v.1h-1v-.1c.1-1 1-1.8 2.4-1.8s2.3.8 2.3 2v4.2h-1v-1c-.3.7-1.1 1.1-1.9 1.1m-1-1.8c0 .6.5 1 1.2 1 1 0 1.7-.7 1.7-1.5v-.5l-1.6.1c-.8 0-1.3.3-1.3.9m5.4 1.7v-8.5h1v5.1l2.7-2.7h1.2l-2.6 2.6 2.7 3.5H429l-2.3-2.8-.6.5v2.3zm7.5.1c-1.2 0-2-.7-2-1.8 0-1 .8-1.7 2.2-1.8l1.7-.1v-.5c0-.7-.5-1.2-1.3-1.2s-1.3.4-1.4.9v.1h-1v-.1c.1-1 1-1.8 2.4-1.8s2.3.8 2.3 2v4.2h-1v-1c-.4.7-1.1 1.1-1.9 1.1m-1-1.8c0 .6.5 1 1.2 1 1 0 1.7-.7 1.7-1.5v-.5H433c-.8.1-1.3.4-1.3 1m5.2 1.7v-6.1h1v1c.2-.7.7-1.1 1.4-1.1h.4v1c-.1 0-.3-.1-.5-.1-.8 0-1.3.6-1.3 1.5v3.8z" class="st1"/><path d="M272.5 439.7h29c8.3 0 15 6.7 15 15s-6.7 15-15 15h-29c-8.3 0-15-6.7-15-15s6.8-15 15-15" class="st0"/><path d="M266.4 458.7v-8.5h1.1v7.5h4.1v.9h-5.2zm6.7-7.1c-.4 0-.6-.3-.6-.6 0-.4.3-.6.6-.6.4 0 .6.3.6.6.1.3-.2.6-.6.6m-.5 7.1v-6.1h1v6.1zm5.5.1c-.9 0-1.6-.4-1.9-1.1v1h-1v-8.5h1v3.4c.4-.7 1.1-1.1 2-1.1 1.5 0 2.6 1.2 2.6 3.2-.2 1.9-1.2 3.1-2.7 3.1m-.2-.9c1.1 0 1.7-.9 1.7-2.3s-.7-2.3-1.7-2.3-1.8.9-1.8 2.3.7 2.3 1.8 2.3m6.3.9c-1.8 0-2.8-1.2-2.8-3.1s1.1-3.2 2.7-3.2c1.7 0 2.7 1.2 2.7 3.1v.4h-4.4c0 1.3.7 2 1.8 2 .8 0 1.3-.4 1.5-.9v-.1h1v.1c-.2.9-1.2 1.7-2.5 1.7m-.1-5.4c-.9 0-1.6.6-1.7 1.7h3.3c0-1.1-.7-1.7-1.6-1.7m3.7 5.3v-6.1h1v1c.2-.7.7-1.1 1.4-1.1h.4v1c-.1 0-.3-.1-.5-.1-.8 0-1.3.6-1.3 1.5v3.8zm6 .1c-1.1 0-1.7-.5-1.7-1.7v-3.7h-.9v-.8h.9V451h1.1v1.6h1.2v.8h-1.2v3.7c0 .7.3.8.8.8h.3v.8c-.1.1-.3.1-.5.1m4.2-6.9h-.8l1-1.8h1.1zm-.2 6.9c-1.8 0-2.8-1.2-2.8-3.1s1.1-3.2 2.7-3.2c1.7 0 2.7 1.2 2.7 3.1v.4H296c0 1.3.7 2 1.8 2 .8 0 1.3-.4 1.5-.9v-.1h1v.1c-.2.9-1.2 1.7-2.5 1.7m-.1-5.4c-.9 0-1.6.6-1.7 1.7h3.3c-.1-1.1-.7-1.7-1.6-1.7m8.4 5.3v-7.3l-2.2 1.6v-1.1l2.2-1.6h1v8.5h-1z" class="st1"/><path d="M346.8 406.7h48c8.3 0 15 6.7 15 15s-6.7 15-15 15h-48c-8.3 0-15-6.7-15-15s6.7-15 15-15" class="st0"/><path d="M343.4 425.9c-1.8 0-3.1-.9-3.2-2.3v-.1h1.1v.1c.1.9.9 1.4 2.2 1.4 1.2 0 2-.6 2-1.4 0-.7-.5-1.2-1.6-1.4l-.9-.2c-1.7-.4-2.4-1.1-2.4-2.3 0-1.4 1.2-2.4 3-2.4 1.7 0 2.9 1 3 2.3v.1h-1.1v-.1c-.1-.9-.9-1.4-1.9-1.4-1.1 0-1.9.5-1.9 1.4 0 .7.5 1.1 1.6 1.4l.9.2c1.7.4 2.5 1.1 2.5 2.4-.1 1.3-1.3 2.3-3.3 2.3m6-.1c-1.2 0-2-.7-2-1.8 0-1 .8-1.7 2.2-1.8l1.7-.1v-.5c0-.7-.5-1.2-1.3-1.2s-1.3.4-1.4.9v.1h-1v-.1c.1-1 1-1.8 2.4-1.8s2.3.8 2.3 2v4.2h-1v-1c-.3.7-1.1 1.1-1.9 1.1m-1-1.8c0 .6.5 1 1.2 1 1 0 1.7-.7 1.7-1.5v-.5l-1.6.1c-.8 0-1.3.3-1.3.9m7.8 1.8c-1.7 0-2.8-1.2-2.8-3.2 0-1.9 1.1-3.2 2.8-3.2 1.5 0 2.4 1 2.5 2.1h-1c-.2-.6-.6-1.1-1.5-1.1-1.1 0-1.8.9-1.8 2.3s.7 2.3 1.8 2.3c.8 0 1.4-.5 1.5-1.1h1c-.1 1-1.1 1.9-2.5 1.9m3.5-.1v-6.1h1v1c.2-.7.7-1.1 1.4-1.1h.4v1c-.1 0-.3-.1-.5-.1-.8 0-1.3.6-1.3 1.5v3.8zm6.1-6.8h-.8l1-1.8h1.1zm-.2 6.9c-1.8 0-2.8-1.2-2.8-3.1s1.1-3.2 2.7-3.2 2.7 1.2 2.7 3.1v.4h-4.4c0 1.3.7 2 1.8 2 .8 0 1.3-.4 1.5-.9v-.1h1v.1c-.2.9-1.2 1.7-2.5 1.7m-.1-5.4c-.9 0-1.6.6-1.7 1.7h3.3c0-1.1-.7-1.7-1.6-1.7m9.9 5.5c-2.4 0-3.9-1.7-3.9-4.4s1.5-4.4 3.9-4.4c1.8 0 3.1 1.1 3.4 2.7v.1h-1.1v-.1c-.3-1-1.2-1.6-2.3-1.6-1.7 0-2.8 1.3-2.8 3.4s1.1 3.4 2.8 3.4c1.2 0 2-.6 2.4-1.7v-.1h1.1v.1c-.4 1.5-1.7 2.6-3.5 2.6m7.1-.1c-1.7 0-2.8-1.2-2.8-3.2 0-1.9 1.1-3.2 2.8-3.2s2.8 1.2 2.8 3.2-1.2 3.2-2.8 3.2m0-.9c1.1 0 1.8-.8 1.8-2.3 0-1.4-.7-2.2-1.8-2.2s-1.8.8-1.8 2.2c0 1.5.7 2.3 1.8 2.3m6.3.9c-1.8 0-2.8-1.2-2.8-3.1s1.1-3.2 2.7-3.2c1.7 0 2.7 1.2 2.7 3.1v.4H387c0 1.3.7 2 1.8 2 .8 0 1.3-.4 1.5-.9v-.1h1v.1c-.2.9-1.2 1.7-2.5 1.7m-.1-5.4c-.9 0-1.6.6-1.7 1.7h3.3c0-1.1-.7-1.7-1.6-1.7m5.8 5.4c-1.3 0-2.1-.9-2.1-2.3v-4h1v3.8c0 1 .5 1.5 1.4 1.5 1 0 1.6-.7 1.6-1.7v-3.6h1v6.1h-1v-.9c-.3.7-.9 1.1-1.9 1.1m4.3-.1v-6.1h1v1c.2-.7.7-1.1 1.4-1.1h.4v1c-.1 0-.3-.1-.5-.1-.8 0-1.3.6-1.3 1.5v3.8z" class="st1"/><path d="M270.6 382.1h31c8.3 0 15 6.7 15 15s-6.7 15-15 15h-31c-8.3 0-15-6.7-15-15s6.7-15 15-15" class="st0"/><path d="M264.8 401.1v-8.5h1.1v7.5h4.1v.9h-5.2zm6.7-7.1c-.4 0-.6-.3-.6-.6 0-.4.3-.6.6-.6.4 0 .6.3.6.6s-.2.6-.6.6m-.5 7.1V395h1v6.1zm5.4.1c-.9 0-1.6-.4-1.9-1.1v1h-1v-8.5h1v3.4c.4-.7 1.1-1.1 2-1.1 1.5 0 2.6 1.2 2.6 3.2-.1 1.9-1.1 3.1-2.7 3.1m-.2-.9c1.1 0 1.7-.9 1.7-2.3s-.7-2.3-1.7-2.3-1.8.9-1.8 2.3c.1 1.4.8 2.3 1.8 2.3m6.4.9c-1.8 0-2.8-1.2-2.8-3.1s1.1-3.2 2.7-3.2 2.7 1.2 2.7 3.1v.4h-4.4c0 1.3.7 2 1.8 2 .8 0 1.3-.4 1.5-.9v-.1h1v.1c-.2 1-1.2 1.7-2.5 1.7m-.1-5.4c-.9 0-1.6.6-1.7 1.7h3.3c-.1-1.1-.7-1.7-1.6-1.7m3.7 5.3V395h1v1c.2-.7.7-1.1 1.4-1.1h.4v1c-.1 0-.3-.1-.5-.1-.8 0-1.3.6-1.3 1.5v3.8zm6 .1c-1.1 0-1.7-.5-1.7-1.7v-3.7h-.9v-.8h.9v-1.6h1.1v1.6h1.2v.8h-1.2v3.7c0 .6.3.8.8.8h.3v.8c-.1.1-.3.1-.5.1m4.2-6.9h-.8l1-1.8h1.1zm-.2 6.9c-1.8 0-2.8-1.2-2.8-3.1s1.1-3.2 2.7-3.2 2.7 1.2 2.7 3.1v.4h-4.4c0 1.3.7 2 1.8 2 .8 0 1.3-.4 1.5-.9v-.1h1v.1c-.2 1-1.2 1.7-2.5 1.7m-.1-5.4c-.9 0-1.6.6-1.7 1.7h3.3c-.1-1.1-.7-1.7-1.6-1.7m9.1 5.5c-1.6 0-2.8-1-2.9-2.4v-.1h1c.1.8.9 1.5 1.9 1.5 1.1 0 1.9-.8 1.9-1.9s-.8-1.9-1.9-1.9c-.6 0-1.1.2-1.4.5-.2.1-.3.3-.4.5h-.9l.4-4.8h4.8v.9h-4l-.3 2.8c.4-.6 1.1-.9 1.9-.9 1.6 0 2.8 1.2 2.8 2.8.1 1.8-1.2 3-2.9 3" class="st1"/><path d="M381.9 361.9h32c8.3 0 15 6.7 15 15s-6.7 15-15 15h-32c-8.3 0-15-6.7-15-15 0-8.2 6.7-15 15-15" class="st0"/><path d="M376.7 380.9v-8.5h1.1v7.5h4.1v.9h-5.2zm6.7-7.1c-.4 0-.6-.3-.6-.6 0-.4.3-.6.6-.6.4 0 .6.3.6.6s-.3.6-.6.6m-.5 7.1v-6.1h1v6.1zm5.4.2c-.9 0-1.6-.4-1.9-1.1v1h-1v-8.5h1v3.4c.4-.7 1.1-1.1 2-1.1 1.5 0 2.6 1.2 2.6 3.2-.1 1.8-1.2 3.1-2.7 3.1m-.2-.9c1.1 0 1.7-.9 1.7-2.3s-.7-2.3-1.7-2.3-1.8.9-1.8 2.3.8 2.3 1.8 2.3m6.3.9c-1.8 0-2.8-1.2-2.8-3.1s1.1-3.2 2.7-3.2c1.7 0 2.7 1.2 2.7 3.1v.4h-4.4c0 1.3.7 2 1.8 2 .8 0 1.3-.4 1.5-.9v-.1h1v.1c-.2.9-1.2 1.7-2.5 1.7m-.1-5.5c-.9 0-1.6.6-1.7 1.7h3.3c0-1.1-.7-1.7-1.6-1.7m3.8 5.3v-6.1h1v1c.2-.7.7-1.1 1.4-1.1h.4v1c-.1 0-.3-.1-.5-.1-.8 0-1.3.6-1.3 1.5v3.8zm5.9.2c-1.1 0-1.7-.5-1.7-1.7v-3.7h-.9v-.8h.9v-1.6h1.1v1.6h1.2v.8h-1.2v3.7c0 .6.3.8.8.8h.3v.8c-.1 0-.3.1-.5.1m4.3-7h-.8l1-1.8h1.1zm-.3 7c-1.8 0-2.8-1.2-2.8-3.1s1.1-3.2 2.7-3.2 2.7 1.2 2.7 3.1v.4h-4.4c0 1.3.7 2 1.8 2 .8 0 1.3-.4 1.5-.9v-.1h1v.1c-.2.9-1.2 1.7-2.5 1.7m-.1-5.5c-.9 0-1.6.6-1.7 1.7h3.3c0-1.1-.7-1.7-1.6-1.7m9.3 5.5c-1.6 0-3.2-1.1-3.2-4.2 0-2.8 1.2-4.5 3.3-4.5 1.4 0 2.5.8 2.8 2v.1H419v-.1c-.3-.7-.9-1.1-1.7-1.1-1.6 0-2.2 1.5-2.2 3.3v.2c.3-.8 1.2-1.4 2.4-1.4 1.6 0 2.8 1.2 2.8 2.8-.1 1.7-1.4 2.9-3.1 2.9m-1.9-2.9c0 1.1.8 1.9 1.9 1.9s1.9-.8 1.9-1.9-.8-1.9-1.9-1.9-1.9.8-1.9 1.9" class="st1"/><path d="M299.5 328.2h35c8.3 0 15 6.7 15 15s-6.7 15-15 15h-35c-8.3 0-15-6.7-15-15s6.7-15 15-15" class="st0"/><path d="M293.4 347.2v-8.5h1.1v4.1l3.6-4.1h1.3l-3.3 3.7 3.6 4.7h-1.3l-3-3.9-.9 1v3zm7.1 0v-8.5h1v3.3c.3-.7 1-1.1 1.9-1.1 1.3 0 2.2 1 2.2 2.5v3.7h-1v-3.6c0-1.1-.6-1.8-1.5-1.8s-1.6.7-1.6 1.8v3.6h-1zm8.2.1c-1.2 0-2-.7-2-1.8 0-1 .8-1.7 2.2-1.8l1.7-.1v-.5c0-.7-.5-1.2-1.3-1.2s-1.3.4-1.4.9v.1h-1v-.1c.1-1 1-1.8 2.4-1.8s2.3.8 2.3 2v4.2h-1v-1c-.4.7-1.1 1.1-1.9 1.1m-1-1.8c0 .6.5 1 1.2 1 1 0 1.7-.7 1.7-1.5v-.5l-1.6.1c-.9 0-1.3.3-1.3.9m5.2 1.7v-6.1h1v1c.2-.7.7-1.1 1.4-1.1h.4v1c-.1 0-.3-.1-.5-.1-.8 0-1.3.5-1.3 1.5v3.8zm8.7 0v-3.6l-3-4.8h1.2l2.3 3.8 2.3-3.8h1.2l-3 4.8v3.6zm5.4.1c-1.2 0-2-.7-2-1.8 0-1 .8-1.7 2.2-1.8l1.7-.1v-.5c0-.7-.5-1.2-1.3-1.2s-1.3.4-1.4.9v.1h-1v-.1c.1-1 1-1.8 2.4-1.8s2.3.8 2.3 2v4.2h-1v-1c-.3.7-1.1 1.1-1.9 1.1m-1-1.8c0 .6.5 1 1.2 1 1 0 1.7-.7 1.7-1.5v-.5l-1.6.1c-.8 0-1.3.3-1.3.9m5.3 1.7v-8.5h1v8.5zm2.5 0v-8.5h1v8.5zm4.2.1c-1.2 0-2-.7-2-1.8 0-1 .8-1.7 2.2-1.8l1.7-.1v-.5c0-.7-.5-1.2-1.3-1.2s-1.3.4-1.4.9v.1h-1v-.1c.1-1 1-1.8 2.4-1.8s2.3.8 2.3 2v4.2h-1v-1c-.4.7-1.1 1.1-1.9 1.1m-1-1.8c0 .6.5 1 1.2 1 1 0 1.7-.7 1.7-1.5v-.5l-1.6.1c-.9 0-1.3.3-1.3.9" class="st1"/><path d="M404.8 306.4h46c8.3 0 15 6.7 15 15s-6.7 15-15 15h-46c-8.3 0-15-6.7-15-15s6.7-15 15-15" class="st0"/><path d="M401.8 325.6c-1.8 0-3.1-.9-3.2-2.3v-.1h1.1v.1c.1.8.9 1.4 2.2 1.4 1.2 0 2-.6 2-1.4 0-.7-.5-1.2-1.6-1.4l-.9-.2c-1.7-.4-2.4-1.1-2.4-2.3 0-1.4 1.2-2.4 3-2.4 1.7 0 2.9 1 3 2.3v.1h-1.1v-.1c-.1-.9-.9-1.4-1.9-1.4-1.1 0-1.9.5-1.9 1.4 0 .7.5 1.1 1.6 1.4l.9.2c1.7.4 2.5 1.1 2.5 2.4-.2 1.3-1.4 2.3-3.3 2.3m6.7-.1c-1.7 0-2.8-1.2-2.8-3.2 0-1.9 1.1-3.2 2.8-3.2 1.5 0 2.4 1 2.5 2.1h-1c-.2-.6-.6-1.1-1.5-1.1-1.1 0-1.8.9-1.8 2.3s.7 2.3 1.8 2.3c.8 0 1.4-.5 1.5-1.1h1c-.1 1-1.1 1.9-2.5 1.9m5.2 0c-1.2 0-2-.7-2-1.8 0-1 .8-1.7 2.2-1.8l1.7-.1v-.5c0-.7-.5-1.2-1.3-1.2s-1.3.4-1.4.9v.1h-1v-.1c.1-1 1-1.8 2.4-1.8s2.3.8 2.3 2v4.2h-1v-1c-.3.7-1 1.1-1.9 1.1m-.9-1.8c0 .6.5 1 1.2 1 1 0 1.7-.7 1.7-1.5v-.5l-1.6.1c-.9-.1-1.3.3-1.3.9m7.2 1.8c-1.1 0-1.7-.5-1.7-1.7v-3.7h-.9v-.8h.9v-1.6h1.1v1.6h1.2v.8h-1.2v3.7c0 .7.3.8.8.8h.3v.8c-.1.1-.3.1-.5.1m7.6.1c-2.1 0-3.4-1.3-3.4-3.1V317h1.1v5.4c0 1.3.8 2.2 2.3 2.2s2.3-.9 2.3-2.2V317h1.1v5.5c-.1 1.8-1.3 3.1-3.4 3.1m4.8-.2v-6.1h1v1c.2-.7.7-1.1 1.4-1.1h.4v1c-.1 0-.3-.1-.5-.1-.8 0-1.3.5-1.3 1.5v3.8zm6.8.1c-.9 0-1.6-.4-1.9-1.1v1h-1V317h1v3.4c.4-.7 1.1-1.1 2-1.1 1.5 0 2.6 1.2 2.6 3.2-.2 1.8-1.2 3-2.7 3m-.2-.9c1.1 0 1.7-.9 1.7-2.3s-.7-2.3-1.7-2.3-1.8.9-1.8 2.3.7 2.3 1.8 2.3m5.6.9c-1.2 0-2-.7-2-1.8 0-1 .8-1.7 2.2-1.8l1.7-.1v-.5c0-.7-.5-1.2-1.3-1.2s-1.3.4-1.4.9v.1h-1v-.1c.1-1 1-1.8 2.4-1.8s2.3.8 2.3 2v4.2h-1v-1c-.4.7-1.1 1.1-1.9 1.1m-1-1.8c0 .6.5 1 1.2 1 1 0 1.7-.7 1.7-1.5v-.5l-1.6.1c-.9-.1-1.3.3-1.3.9m5.2 1.7v-6.1h1v.9c.3-.6.9-1 1.7-1s1.4.4 1.7 1.2c.3-.7 1.1-1.2 1.9-1.2 1.2 0 2 .8 2 2v4.2h-1v-4c0-.8-.5-1.3-1.3-1.3s-1.4.6-1.4 1.4v3.9h-1v-4.1c0-.7-.5-1.2-1.2-1.2-.8 0-1.4.6-1.4 1.5v3.8z" class="st1"/><path d="M222 282.8h141c8.3 0 15 6.7 15 15s-6.7 15-15 15H222c-8.3 0-15-6.7-15-15s6.7-15 15-15" class="st0"/><path d="M219.4 301.9c-2.3 0-3.9-1.7-3.9-4.4s1.5-4.4 3.9-4.4c1.8 0 3.1 1.1 3.4 2.7v.1h-1.1v-.1c-.3-1-1.2-1.6-2.4-1.6-1.7 0-2.8 1.3-2.8 3.4s1.1 3.4 2.8 3.4c1.2 0 2-.6 2.4-1.7v-.1h1.1v.1c-.3 1.6-1.6 2.6-3.4 2.6m6.4 0c-1.2 0-2-.7-2-1.8 0-1 .8-1.7 2.2-1.8l1.7-.1v-.5c0-.7-.5-1.2-1.3-1.2s-1.3.4-1.4.9v.1h-1v-.1c.1-1 1-1.8 2.4-1.8s2.3.8 2.3 2v4.2h-1v-1c-.4.7-1.1 1.1-1.9 1.1m-1-1.8c0 .6.5 1 1.2 1 1 0 1.7-.7 1.7-1.5v-.6l-1.6.1c-.9 0-1.3.4-1.3 1m5.2 1.7v-6.1h1v1c.2-.7.7-1.1 1.4-1.1h.4v1c-.1 0-.3-.1-.5-.1-.8 0-1.3.6-1.3 1.5v3.8zm5.7.1c-1.6 0-2.6-1.2-2.6-3.2 0-1.9 1-3.2 2.6-3.2.9 0 1.6.4 2 1.1v-3.4h1v8.5h-1v-1c-.5.8-1.1 1.2-2 1.2m.2-.9c1 0 1.8-.9 1.8-2.3s-.7-2.3-1.8-2.3-1.7.9-1.7 2.3.6 2.3 1.7 2.3m4.7-6.3c-.4 0-.6-.3-.6-.6 0-.4.3-.6.6-.6.4 0 .6.3.6.6.1.3-.2.6-.6.6m-.5 7.1v-6.1h1v6.1zm2.4 0v-6.1h1v.9c.3-.6.9-1 1.9-1 1.3 0 2.1.9 2.1 2.3v4h-1V298c0-1-.5-1.5-1.4-1.5-1 0-1.6.7-1.6 1.7v3.6zm8.1.1c-1.2 0-2-.7-2-1.8 0-1 .8-1.7 2.2-1.8l1.7-.1v-.5c0-.7-.5-1.2-1.3-1.2s-1.3.4-1.4.9v.1h-1v-.1c.1-1 1-1.8 2.4-1.8s2.3.8 2.3 2v4.2h-1v-1c-.3.7-1.1 1.1-1.9 1.1m-1-1.8c0 .6.5 1 1.2 1 1 0 1.7-.7 1.7-1.5v-.6l-1.6.1c-.8 0-1.3.4-1.3 1m5.3 1.7v-8.5h1v8.5zm5 0v-8.5h1.1v3.7h4.6v-3.7h1.1v8.5h-1.1V298H261v3.8zm8.9 2h-.5v-.8h.3c.6 0 1-.2 1.2-.9l.1-.3-2.3-6.1h1.1l1.7 5.1 1.7-5.1h1.1l-2.4 6.5c-.4 1.1-.9 1.6-2 1.6m6.9-1.9c-1.2 0-2-.7-2-1.8 0-1 .8-1.7 2.2-1.8l1.7-.1v-.5c0-.7-.5-1.2-1.3-1.2s-1.3.4-1.4.9v.1h-1v-.1c.1-1 1-1.8 2.4-1.8s2.3.8 2.3 2v4.2h-1v-1c-.4.7-1.1 1.1-1.9 1.1m-1-1.8c0 .6.5 1 1.2 1 1 0 1.7-.7 1.7-1.5v-.6l-1.6.1c-.8 0-1.3.4-1.3 1m7.7 1.8c-1.7 0-2.8-1.2-2.8-3.2 0-1.9 1.1-3.2 2.8-3.2 1.5 0 2.4 1 2.5 2.1h-1c-.2-.6-.6-1.1-1.5-1.1-1.1 0-1.8.9-1.8 2.3s.7 2.3 1.8 2.3c.8 0 1.4-.5 1.5-1.1h1c-.1 1-1.1 1.9-2.5 1.9m4.1-7.2c-.4 0-.6-.3-.6-.6 0-.4.3-.6.6-.6.4 0 .6.3.6.6s-.2.6-.6.6m-.5 7.1v-6.1h1v6.1zm2.4 0v-6.1h1v.9c.3-.6.9-1 1.9-1 1.3 0 2.1.9 2.1 2.3v4h-1V298c0-1-.5-1.5-1.4-1.5-1 0-1.6.7-1.6 1.7v3.6zm8.3.1c-1.1 0-1.7-.5-1.7-1.7v-3.7h-.9v-.8h.9V294h1.1v1.6h1.2v.8h-1.2v3.7c0 .7.3.8.8.8h.3v.8c-.1.2-.3.2-.5.2m1.7-.1v-8.5h1v3.3c.3-.7 1-1.1 1.9-1.1 1.3 0 2.2 1 2.2 2.5v3.7h-1v-3.6c0-1.1-.6-1.8-1.5-1.8s-1.6.7-1.6 1.8v3.6h-1zm8.9.1c-1.8 0-2.8-1.2-2.8-3.1s1.1-3.2 2.7-3.2 2.7 1.2 2.7 3.1v.4h-4.4c0 1.3.7 2 1.8 2 .8 0 1.3-.4 1.5-.9v-.1h1v.1c-.1.9-1.1 1.7-2.5 1.7m0-5.4c-.9 0-1.6.6-1.7 1.7h3.3c-.1-1.2-.8-1.7-1.6-1.7m8.4 5.3v-7.5H313v-.9h6.4v.9h-2.7v7.5zm4.8 0v-8.5h1v3.3c.3-.7 1-1.1 1.9-1.1 1.3 0 2.2 1 2.2 2.5v3.7h-1v-3.6c0-1.1-.6-1.8-1.5-1.8s-1.6.7-1.6 1.8v3.6h-1zm7-7.1c-.4 0-.6-.3-.6-.6 0-.4.3-.6.6-.6.4 0 .6.3.6.6s-.3.6-.6.6m-.6 7.1v-6.1h1v6.1zm4.2.1c-1.2 0-2-.7-2-1.8 0-1 .8-1.7 2.2-1.8l1.7-.1v-.5c0-.7-.5-1.2-1.3-1.2s-1.3.4-1.4.9v.1h-1v-.1c.1-1 1-1.8 2.4-1.8s2.3.8 2.3 2v4.2h-1v-1c-.3.7-1.1 1.1-1.9 1.1m-1-1.8c0 .6.5 1 1.2 1 1 0 1.7-.7 1.7-1.5v-.6l-1.6.1c-.8 0-1.3.4-1.3 1m5.3 1.7v-6.1h1v.9c.3-.6 1-1 1.9-1 1.3 0 2.1.9 2.1 2.3v4h-1V298c0-1-.5-1.5-1.4-1.5-1 0-1.6.7-1.6 1.7v3.6zm8.6.1c-1.6 0-2.6-1.2-2.6-3.2 0-1.9 1-3.2 2.6-3.2.9 0 1.6.4 2 1.1v-3.4h1v8.5h-1v-1c-.5.8-1.1 1.2-2 1.2m.2-.9c1 0 1.8-.9 1.8-2.3s-.7-2.3-1.8-2.3-1.7.9-1.7 2.3c-.1 1.4.6 2.3 1.7 2.3m6.7.9c-1.7 0-2.8-1.2-2.8-3.2 0-1.9 1.1-3.2 2.8-3.2s2.8 1.2 2.8 3.2-1.1 3.2-2.8 3.2m0-.9c1.1 0 1.8-.8 1.8-2.3 0-1.4-.7-2.2-1.8-2.2s-1.8.8-1.8 2.2c0 1.5.7 2.3 1.8 2.3m5.9.9c-1.3 0-2.1-.9-2.1-2.3v-4h1v3.8c0 1 .5 1.5 1.4 1.5 1 0 1.6-.7 1.6-1.7v-3.6h1v6.1h-1v-.9c-.4.7-1 1.1-1.9 1.1m4.2-.1v-6.1h1v.9c.3-.6.9-1 1.7-1s1.4.4 1.7 1.2c.3-.7 1.1-1.2 1.9-1.2 1.2 0 2 .8 2 2v4.2h-1v-4c0-.8-.5-1.3-1.3-1.3s-1.4.6-1.4 1.4v3.9h-1v-4.1c0-.7-.5-1.2-1.2-1.2-.8 0-1.4.6-1.4 1.5v3.8z" class="st1"/><path d="M450.4 268.7h58c8.3 0 15 6.7 15 15s-6.7 15-15 15h-58c-8.3 0-15-6.7-15-15s6.7-15 15-15" class="st0"/><path d="M448.5 287.8c-2.4 0-3.9-1.7-3.9-4.4 0-2.6 1.5-4.3 3.9-4.3 1.9 0 3.1 1.1 3.5 2.6v.1h-1.1v-.1c-.4-1.1-1.2-1.7-2.4-1.7-1.7 0-2.8 1.3-2.8 3.3 0 2.1 1.1 3.4 2.8 3.4 1.5 0 2.5-1 2.5-2.4v-.2h-2.4v-.9h3.4v.8c.1 2.5-1.3 3.8-3.5 3.8m4.8-.1v-6.1h1v1c.2-.7.7-1.1 1.4-1.1h.4v1c-.1 0-.3-.1-.5-.1-.8 0-1.3.5-1.3 1.5v3.8zm5.3.1c-1.2 0-2-.7-2-1.8 0-1 .8-1.7 2.2-1.8l1.7-.1v-.5c0-.7-.5-1.2-1.3-1.2s-1.3.4-1.4.9v.1h-1v-.1c.1-1 1-1.8 2.4-1.8s2.3.8 2.3 2v4.2h-1v-1c-.3.7-1.1 1.1-1.9 1.1m-1-1.8c0 .6.5 1 1.2 1 1 0 1.7-.7 1.7-1.5v-.5l-1.6.1c-.8-.1-1.3.3-1.3.9m5.3 1.7v-6.1h1v.9c.3-.6.9-1 1.9-1 1.3 0 2.1.9 2.1 2.3v4h-1V284c0-1-.5-1.5-1.4-1.5-1 0-1.6.7-1.6 1.7v3.6h-1zm8.6.1c-1.6 0-2.6-1.2-2.6-3.2 0-1.9 1-3.2 2.6-3.2.9 0 1.6.4 2 1.1v-3.4h1v8.5h-1v-1c-.5.8-1.1 1.2-2 1.2m.2-.9c1 0 1.8-.9 1.8-2.3s-.7-2.3-1.8-2.3-1.7.9-1.7 2.3c-.1 1.4.6 2.3 1.7 2.3m6.8.8v-8.5h1.2l2.9 7.1 2.9-7.1h1.2v8.5h-1v-6.5l-2.7 6.5h-.9l-2.7-6.5v6.5zm12.3.1c-1.8 0-2.8-1.2-2.8-3.1s1.1-3.2 2.7-3.2 2.7 1.2 2.7 3.1v.4H489c0 1.3.7 2 1.8 2 .8 0 1.3-.4 1.5-.9v-.1h1v.1c-.2.9-1.2 1.7-2.5 1.7m-.1-5.4c-.9 0-1.6.6-1.7 1.7h3.3c0-1.2-.7-1.7-1.6-1.7m6 5.4c-1.6 0-2.6-1.2-2.6-3.2 0-1.9 1-3.2 2.6-3.2.9 0 1.6.4 2 1.1v-3.4h1v8.5h-1v-1c-.4.8-1.1 1.2-2 1.2m.2-.9c1 0 1.8-.9 1.8-2.3s-.7-2.3-1.8-2.3-1.7.9-1.7 2.3.6 2.3 1.7 2.3m4.8-6.3c-.4 0-.6-.3-.6-.6 0-.4.3-.6.6-.6.4 0 .6.3.6.6s-.3.6-.6.6m-.6 7.1v-6.1h1v6.1zm2.5 0v-6.1h1v.9c.3-.6.9-1 1.9-1 1.3 0 2.1.9 2.1 2.3v4h-1V284c0-1-.5-1.5-1.4-1.5-1 0-1.6.7-1.6 1.7v3.6h-1zm8.8.1c-1.8 0-2.8-1.2-2.8-3.1s1.1-3.2 2.7-3.2c1.7 0 2.7 1.2 2.7 3.1v.4h-4.4c0 1.3.7 2 1.8 2 .8 0 1.3-.4 1.5-.9v-.1h1v.1c-.2.9-1.2 1.7-2.5 1.7m-.1-5.4c-.9 0-1.6.6-1.7 1.7h3.3c0-1.2-.7-1.7-1.6-1.7" class="st1"/><path d="M341.5 228.9h85c8.3 0 15 6.7 15 15s-6.7 15-15 15h-85c-8.3 0-15-6.7-15-15 0-8.2 6.8-15 15-15" class="st0"/><path d="M336.3 247.9v-8.5h3c1.6 0 2.7 1.1 2.7 2.7s-1.1 2.7-2.7 2.7h-2v3h-1zm2.7-7.5h-1.7v3.6h1.7c1.2 0 1.9-.7 1.9-1.8s-.7-1.8-1.9-1.8m6.3 7.7c-1.7 0-2.8-1.2-2.8-3.2 0-1.9 1.1-3.2 2.8-3.2s2.8 1.2 2.8 3.2c0 1.9-1.1 3.2-2.8 3.2m0-.9c1.1 0 1.8-.8 1.8-2.3 0-1.4-.7-2.2-1.8-2.2s-1.8.8-1.8 2.2.7 2.3 1.8 2.3m3.9.7v-8.5h1v8.5zm3-7.1c-.4 0-.6-.3-.6-.6 0-.4.3-.6.6-.6.4 0 .6.3.6.6s-.3.6-.6.6m-.5 7.1v-6.1h1v6.1zm4.9.2c-1.7 0-2.8-1.2-2.8-3.2 0-1.9 1.1-3.2 2.8-3.2 1.5 0 2.4 1 2.5 2.1h-1c-.2-.6-.6-1.1-1.5-1.1-1.1 0-1.8.9-1.8 2.3s.7 2.3 1.8 2.3c.8 0 1.4-.5 1.5-1.1h1c-.1 1-1.1 1.9-2.5 1.9m6 0c-1.8 0-2.8-1.2-2.8-3.1s1.1-3.2 2.7-3.2 2.7 1.2 2.7 3.1v.4h-4.4c0 1.3.7 2 1.8 2 .8 0 1.3-.4 1.5-.9v-.1h1v.1c-.2.9-1.2 1.7-2.5 1.7m-.1-5.5c-.9 0-1.6.6-1.7 1.7h3.3c0-1.1-.7-1.7-1.6-1.7m8.5 5.5c-1.6 0-2.6-1.2-2.6-3.2 0-1.9 1-3.2 2.6-3.2.9 0 1.6.4 2 1.1v-3.4h1v8.5h-1v-1c-.5.7-1.1 1.2-2 1.2m.2-.9c1 0 1.8-.9 1.8-2.3s-.7-2.3-1.8-2.3-1.7.9-1.7 2.3.6 2.3 1.7 2.3m6.7.9c-1.8 0-2.8-1.2-2.8-3.1s1.1-3.2 2.7-3.2 2.7 1.2 2.7 3.1v.4h-4.4c0 1.3.7 2 1.8 2 .8 0 1.3-.4 1.5-.9v-.1h1v.1c-.2.9-1.2 1.7-2.5 1.7m-.1-5.5c-.9 0-1.6.6-1.7 1.7h3.3c-.1-1.1-.7-1.7-1.6-1.7m5.9 5.5c-1.4 0-2.3-.7-2.4-1.8v-.1h1v.1c.1.6.6 1 1.4 1s1.3-.3 1.3-.9c0-.4-.2-.7-.9-.9l-1-.2c-1.1-.3-1.7-.8-1.7-1.7 0-1 .9-1.8 2.2-1.8s2.2.8 2.3 1.8v.1h-1c-.1-.6-.5-1-1.3-1-.7 0-1.2.4-1.2.9 0 .4.3.7 1 .9l1 .2c1.2.3 1.7.8 1.7 1.7-.1.9-1.1 1.7-2.4 1.7m6-.2v-8.5h3c1.6 0 2.7 1.1 2.7 2.7s-1.1 2.7-2.7 2.7h-2v3h-1zm2.8-7.5h-1.7v3.6h1.7c1.2 0 1.9-.7 1.9-1.8s-.7-1.8-1.9-1.8m5.2 7.7c-1.2 0-2-.7-2-1.8 0-1 .8-1.7 2.2-1.8l1.7-.1v-.5c0-.7-.5-1.2-1.3-1.2s-1.3.4-1.4.9v.1h-1v-.1c.1-1 1-1.8 2.4-1.8s2.3.8 2.3 2v4.2h-1v-1c-.3.6-1 1.1-1.9 1.1m-.9-1.9c0 .6.5 1 1.2 1 1 0 1.7-.7 1.7-1.5v-.5l-1.6.1c-.9 0-1.3.3-1.3.9m5.2 1.7v-6.1h1v1c.2-.7.7-1.1 1.4-1.1h.4v1c-.1 0-.3-.1-.5-.1-.8 0-1.3.5-1.3 1.5v3.8zm5.9.2c-1.7 0-2.8-1.2-2.8-3.2 0-1.9 1.1-3.2 2.8-3.2 1.5 0 2.4 1 2.5 2.1h-1c-.2-.6-.6-1.1-1.5-1.1-1.1 0-1.8.9-1.8 2.3s.7 2.3 1.8 2.3c.8 0 1.4-.5 1.5-1.1h1c-.1 1-1.1 1.9-2.5 1.9m6 0c-1.8 0-2.8-1.2-2.8-3.1s1.1-3.2 2.7-3.2c1.7 0 2.7 1.2 2.7 3.1v.4h-4.4c0 1.3.7 2 1.8 2 .8 0 1.3-.4 1.5-.9v-.1h1v.1c-.2.9-1.2 1.7-2.5 1.7m-.1-5.5c-.9 0-1.6.6-1.7 1.7h3.3c0-1.1-.7-1.7-1.6-1.7m3.8 5.3v-8.5h1v8.5zm2.5 0v-8.5h1v8.5zm4.9.2c-1.8 0-2.8-1.2-2.8-3.1s1.1-3.2 2.7-3.2c1.7 0 2.7 1.2 2.7 3.1v.4h-4.4c0 1.3.7 2 1.8 2 .8 0 1.3-.4 1.5-.9v-.1h1v.1c-.2.9-1.2 1.7-2.5 1.7m-.1-5.5c-.9 0-1.6.6-1.7 1.7h3.3c-.1-1.1-.7-1.7-1.6-1.7m5.9 5.5c-1.4 0-2.3-.7-2.4-1.8v-.1h1v.1c.1.6.6 1 1.4 1s1.3-.3 1.3-.9c0-.4-.2-.7-.9-.9l-1-.2c-1.1-.3-1.7-.8-1.7-1.7 0-1 .9-1.8 2.2-1.8s2.2.8 2.3 1.8v.1h-1c-.1-.6-.5-1-1.3-1-.7 0-1.2.4-1.2.9q0 .6.9.9l1 .2c1.2.3 1.7.8 1.7 1.7s-1 1.7-2.3 1.7" class="st1"/><path d="M452.9 188.1h31c8.3 0 15 6.7 15 15s-6.7 15-15 15h-31c-8.3 0-15-6.7-15-15s6.7-15 15-15" class="st0"/><path d="M447 207.1v-8.5h3c1.6 0 2.7 1.1 2.7 2.7s-1.1 2.7-2.7 2.7h-2v3h-1zm2.8-7.5h-1.7v3.6h1.7c1.2 0 1.9-.7 1.9-1.8 0-1.2-.7-1.8-1.9-1.8m5.3 7.6c-1.2 0-2-.7-2-1.8 0-1 .8-1.7 2.2-1.8l1.7-.1v-.5c0-.7-.5-1.2-1.3-1.2s-1.3.4-1.4.9v.1h-1v-.1c.1-1 1-1.8 2.4-1.8s2.3.8 2.3 2v4.2h-1v-1c-.4.7-1.1 1.1-1.9 1.1m-1-1.8c0 .6.5 1 1.2 1 1 0 1.7-.7 1.7-1.5v-.5l-1.6.1c-.8-.1-1.3.3-1.3.9m5.2 1.7V201h1v1c.2-.7.7-1.1 1.4-1.1h.4v1c-.1 0-.3-.1-.5-.1-.8 0-1.3.6-1.3 1.5v3.8zm5.9.1c-1.7 0-2.8-1.2-2.8-3.2 0-1.9 1.1-3.2 2.8-3.2 1.5 0 2.4 1 2.5 2.1h-1c-.2-.6-.6-1.1-1.5-1.1-1.1 0-1.8.9-1.8 2.3s.7 2.3 1.8 2.3c.8 0 1.4-.5 1.5-1.1h1c-.1 1-1.1 1.9-2.5 1.9m6 0c-1.8 0-2.8-1.2-2.8-3.1s1.1-3.2 2.7-3.2 2.7 1.2 2.7 3.1v.4h-4.4c0 1.3.7 2 1.8 2 .8 0 1.3-.4 1.5-.9v-.1h1v.1c-.1.9-1.1 1.7-2.5 1.7m0-5.4c-.9 0-1.6.6-1.7 1.7h3.3c-.1-1.2-.7-1.7-1.6-1.7m3.7 5.3v-8.5h1v8.5zm2.5 0v-8.5h1v8.5zm4.9.1c-1.8 0-2.8-1.2-2.8-3.1s1.1-3.2 2.7-3.2 2.7 1.2 2.7 3.1v.4h-4.4c0 1.3.7 2 1.8 2 .8 0 1.3-.4 1.5-.9v-.1h1v.1c-.2.9-1.2 1.7-2.5 1.7m-.1-5.4c-.9 0-1.6.6-1.7 1.7h3.3c0-1.2-.7-1.7-1.6-1.7m5.9 5.4c-1.4 0-2.3-.7-2.4-1.8v-.1h1v.1c.1.6.6 1 1.4 1s1.3-.3 1.3-.9c0-.4-.2-.7-.9-.9l-1-.2c-1.1-.3-1.7-.8-1.7-1.7 0-1 .9-1.8 2.2-1.8s2.2.8 2.3 1.8v.1h-1c-.1-.6-.5-1-1.3-1-.7 0-1.2.4-1.2.9q0 .6.9.9l1 .2c1.2.3 1.7.8 1.7 1.7.1 1-.9 1.7-2.3 1.7" class="st1"/><path d="M506.9 235.9h61c8.3 0 15 6.7 15 15s-6.7 15-15 15h-61c-8.3 0-15-6.7-15-15s6.7-15 15-15" class="st0"/><path d="M505.2 255c-2.3 0-3.9-1.7-3.9-4.4s1.5-4.4 3.9-4.4c1.8 0 3.1 1.1 3.4 2.7v.1h-1.1v-.1c-.3-1-1.2-1.6-2.4-1.6-1.7 0-2.8 1.3-2.8 3.4s1.1 3.4 2.8 3.4c1.2 0 2-.6 2.4-1.7v-.1h1.1v.1c-.3 1.6-1.6 2.6-3.4 2.6m4.5-.1v-6.1h1v1c.2-.7.7-1.1 1.4-1.1h.4v1c-.1 0-.3-.1-.5-.1-.8 0-1.3.6-1.3 1.5v3.8zm6 .1c-1.7 0-2.8-1.2-2.8-3.2 0-1.9 1.1-3.2 2.8-3.2s2.8 1.2 2.8 3.2-1.2 3.2-2.8 3.2m0-.9c1.1 0 1.8-.8 1.8-2.3 0-1.4-.7-2.2-1.8-2.2s-1.8.8-1.8 2.2c0 1.5.7 2.3 1.8 2.3m4.4-6.3c-.4 0-.6-.3-.6-.6 0-.4.3-.6.6-.6.4 0 .6.3.6.6s-.3.6-.6.6m-.5 7.1v-6.1h1v6.1zm4.6.1c-1.4 0-2.3-.7-2.4-1.8v-.1h1v.1c.1.6.6 1 1.4 1s1.3-.3 1.3-.9c0-.4-.2-.7-.9-.9l-1-.2c-1.1-.3-1.7-.8-1.7-1.7 0-1 .9-1.8 2.2-1.8s2.2.8 2.3 1.8v.1h-1c-.1-.6-.5-1-1.3-1-.7 0-1.2.4-1.2.9q0 .6.9.9l1 .2c1.2.3 1.7.8 1.7 1.7s-1 1.7-2.3 1.7m5.9 0c-1.8 0-2.8-1.2-2.8-3.1s1.1-3.2 2.7-3.2 2.7 1.2 2.7 3.1v.4h-4.4c0 1.3.7 2 1.8 2 .8 0 1.3-.4 1.5-.9v-.1h1v.1c-.2.9-1.2 1.7-2.5 1.7m-.1-5.4c-.9 0-1.6.6-1.7 1.7h3.3c0-1.2-.7-1.7-1.6-1.7m3.7 5.3v-6.1h1v.9c.3-.6.9-1 1.7-1s1.4.4 1.7 1.2c.3-.7 1.1-1.2 1.9-1.2 1.2 0 2 .8 2 2v4.2h-1v-4c0-.8-.5-1.3-1.3-1.3s-1.4.6-1.4 1.4v3.9h-1v-4.1c0-.7-.5-1.2-1.2-1.2-.8 0-1.4.6-1.4 1.5v3.8zm12.2.1c-1.8 0-2.8-1.2-2.8-3.1s1.1-3.2 2.7-3.2c1.7 0 2.7 1.2 2.7 3.1v.4h-4.4c0 1.3.7 2 1.8 2 .8 0 1.3-.4 1.5-.9v-.1h1v.1c-.2.9-1.2 1.7-2.5 1.7m-.1-5.4c-.9 0-1.6.6-1.7 1.7h3.3c0-1.2-.7-1.7-1.6-1.7m3.7 5.3v-6.1h1v.9c.3-.6.9-1 1.9-1 1.3 0 2.1.9 2.1 2.3v4h-1v-3.8c0-1-.5-1.5-1.4-1.5-1 0-1.6.7-1.6 1.7v3.6h-1zm8.3.1c-1.1 0-1.7-.5-1.7-1.7v-3.7h-.9v-.8h.9v-1.6h1.1v1.6h1.2v.8h-1.2v3.7c0 .7.3.8.8.8h.3v.8c0 .1-.3.1-.5.1m4.2-.1v-.7l3-3.1c1.1-1.2 1.4-1.6 1.4-2.3 0-.9-.7-1.5-1.6-1.5-1.1 0-1.8.7-1.8 1.6h-1c0-1.5 1.3-2.5 2.8-2.5s2.6 1 2.6 2.3c0 .9-.4 1.6-2 3.2l-2 2.1h4.1v.9zm6.8 0v-.7l3-3.1c1.1-1.2 1.4-1.6 1.4-2.3 0-.9-.7-1.5-1.6-1.5-1.1 0-1.8.7-1.8 1.6h-1c0-1.5 1.3-2.5 2.8-2.5s2.6 1 2.6 2.3c0 .9-.4 1.6-2 3.2l-2 2.1h4.1v.9z" class="st1"/><path d="M570.4 192.9h31c8.3 0 15 6.7 15 15s-6.7 15-15 15h-31c-8.3 0-15-6.7-15-15 0-8.2 6.7-15 15-15" class="st0"/><path d="M564.3 211.9v-8.5h1l4.7 6.7v-6.7h1v8.5h-1l-4.7-6.7v6.7zm10.5.2c-1.6 0-2.6-1.2-2.6-3.2 0-1.9 1-3.2 2.6-3.2.9 0 1.6.4 2 1.1v-3.4h1v8.5h-1v-1c-.5.7-1.1 1.2-2 1.2m.2-.9c1 0 1.8-.9 1.8-2.3s-.7-2.3-1.8-2.3-1.7.9-1.7 2.3c-.1 1.4.6 2.3 1.7 2.3m4.7-6.4c-.4 0-.6-.3-.6-.6 0-.4.3-.6.6-.6.4 0 .6.3.6.6.1.3-.2.6-.6.6m-.5 7.1v-6.1h1v6.1zm2.4 0v-6.1h1v.9c.3-.6.9-1 1.9-1 1.3 0 2.1.9 2.1 2.3v4h-1v-3.8c0-1-.5-1.5-1.4-1.5-1 0-1.6.7-1.6 1.7v3.6h-1zm8.9 2.2c-1.5 0-2.5-.7-2.7-1.6v-.1h1v.1c.2.4.8.7 1.6.7 1.1 0 1.7-.6 1.7-1.5v-.8c-.4.7-1.1 1.1-1.9 1.1-1.5 0-2.6-1.2-2.6-3.1s1.1-3.1 2.6-3.1c.9 0 1.5.5 1.9 1.1v-1h1v5.9c.1 1.4-.9 2.3-2.6 2.3m0-3c1 0 1.7-.9 1.7-2.2s-.7-2.2-1.7-2.2c-1.1 0-1.8.9-1.8 2.2s.7 2.2 1.8 2.2m5.8 1c-1.2 0-2-.7-2-1.8 0-1 .8-1.7 2.2-1.8l1.7-.1v-.5c0-.7-.5-1.2-1.3-1.2s-1.3.4-1.4.9v.1h-1v-.1c.1-1 1-1.8 2.4-1.8s2.3.8 2.3 2v4.2h-1v-1c-.3.6-1.1 1.1-1.9 1.1m-1-1.9c0 .6.5 1 1.2 1 1 0 1.7-.7 1.7-1.5v-.5l-1.6.1c-.8 0-1.3.3-1.3.9m5.3 1.7v-8.5h1v8.5zm4.2.2c-1.2 0-2-.7-2-1.8 0-1 .8-1.7 2.2-1.8l1.7-.1v-.5c0-.7-.5-1.2-1.3-1.2s-1.3.4-1.4.9v.1h-1v-.1c.1-1 1-1.8 2.4-1.8s2.3.8 2.3 2v4.2h-1v-1c-.4.6-1.1 1.1-1.9 1.1m-1-1.9c0 .6.5 1 1.2 1 1 0 1.7-.7 1.7-1.5v-.5l-1.6.1c-.8 0-1.3.3-1.3.9" class="st1"/><path d="M509.8 151.1h30c8.3 0 15 6.7 15 15s-6.7 15-15 15h-30c-8.3 0-15-6.7-15-15s6.7-15 15-15" class="st0"/><path d="M507.6 170.3c-2.4 0-3.9-1.7-3.9-4.4 0-2.6 1.5-4.3 3.9-4.3 1.9 0 3.1 1.1 3.5 2.6v.1H510v-.1c-.4-1.1-1.2-1.7-2.4-1.7-1.7 0-2.8 1.3-2.8 3.3 0 2.1 1.1 3.4 2.8 3.4 1.5 0 2.5-1 2.5-2.4v-.2h-2.4v-.9h3.4v.8c.1 2.4-1.2 3.8-3.5 3.8m7.3-.1c-1.7 0-2.8-1.2-2.8-3.2 0-1.9 1.1-3.2 2.8-3.2s2.8 1.2 2.8 3.2-1.1 3.2-2.8 3.2m0-.9c1.1 0 1.8-.8 1.8-2.3 0-1.4-.7-2.2-1.8-2.2s-1.8.8-1.8 2.2c0 1.5.8 2.3 1.8 2.3m3.9.8v-8.5h1v8.5zm2.8 0v-5.2h-.9v-.9h.9v-.8c0-1.2.5-1.7 1.7-1.7h.6v.8h-.4c-.6 0-.8.3-.8.9v.7h1.3v.8h-1.2v5.2h-1.2zm8.7.2c-1.8 0-3.1-.9-3.2-2.3v-.1h1.1v.1c.1.9.9 1.4 2.2 1.4 1.2 0 2-.6 2-1.4 0-.7-.5-1.2-1.6-1.4l-.9-.2c-1.7-.4-2.4-1.1-2.4-2.3 0-1.4 1.2-2.4 3-2.4 1.7 0 2.9 1 3 2.3v.1h-1.1v-.1c-.1-.9-.8-1.4-1.9-1.4s-1.9.5-1.9 1.4c0 .7.5 1.1 1.6 1.4l.9.2c1.7.4 2.5 1.1 2.5 2.4-.2 1.3-1.4 2.3-3.3 2.3m6.2-.1c-1.3 0-2.1-.9-2.1-2.3v-4h1v3.8c0 1 .5 1.5 1.4 1.5 1 0 1.6-.7 1.6-1.7V164h1v6.1h-1v-.9c-.3.6-.9 1-1.9 1m6.6 0c-1.6 0-2.6-1.2-2.6-3.2 0-1.9 1-3.2 2.6-3.2.9 0 1.6.4 2 1.1v-3.4h1v8.5h-1v-1c-.5.8-1.1 1.2-2 1.2m.2-.9c1 0 1.8-.9 1.8-2.3s-.7-2.3-1.8-2.3-1.7.9-1.7 2.3c-.1 1.5.6 2.3 1.7 2.3" class="st1"/><path d="M626.4 161.7h36c8.3 0 15 6.7 15 15s-6.7 15-15 15h-36c-8.3 0-15-6.7-15-15 0-8.2 6.7-15 15-15" class="st0"/><path d="M621.1 180.7v-8.5h2.8c2.5 0 4 1.6 4 4.2 0 2.7-1.5 4.2-4 4.2h-2.8zm1.1-.9h1.7c1.9 0 3-1.2 3-3.3s-1.1-3.3-3-3.3h-1.7zm8.7 1.1c-1.2 0-2-.7-2-1.8 0-1 .8-1.7 2.2-1.8l1.7-.1v-.5c0-.7-.5-1.2-1.3-1.2s-1.3.4-1.4.9v.1h-1v-.1c.1-1 1-1.8 2.4-1.8s2.3.8 2.3 2v4.2h-1v-1c-.3.6-1.1 1.1-1.9 1.1m-1-1.9c0 .6.5 1 1.2 1 1 0 1.7-.7 1.7-1.5v-.5l-1.6.1c-.8 0-1.3.3-1.3.9m5.3 1.7v-8.5h1v8.5zm4.2.2c-1.2 0-2-.7-2-1.8 0-1 .8-1.7 2.2-1.8l1.7-.1v-.5c0-.7-.5-1.2-1.3-1.2s-1.3.4-1.4.9v.1h-1v-.1c.1-1 1-1.8 2.4-1.8s2.3.8 2.3 2v4.2h-1v-1c-.4.6-1.1 1.1-1.9 1.1m-1-1.9c0 .6.5 1 1.2 1 1 0 1.7-.7 1.7-1.5v-.5l-1.6.1c-.8 0-1.3.3-1.3.9m5.3 1.7v-8.5h1v8.5zm6.8.2c-1.5 0-2.3-.9-2.4-2.1v-.1h1.1v.1c.1.6.5 1.2 1.3 1.2.9 0 1.4-.6 1.4-1.6v-6h1.1v6c0 1.5-.9 2.5-2.5 2.5m5.6 0c-1.2 0-2-.7-2-1.8 0-1 .8-1.7 2.2-1.8l1.7-.1v-.5c0-.7-.5-1.2-1.3-1.2s-1.3.4-1.4.9v.1h-1v-.1c.1-1 1-1.8 2.4-1.8s2.3.8 2.3 2v4.2h-1v-1c-.3.6-1 1.1-1.9 1.1m-.9-1.9c0 .6.5 1 1.2 1 1 0 1.7-.7 1.7-1.5v-.5l-1.6.1c-.9 0-1.3.3-1.3.9m5.2 1.7v-6.1h1v.9c.3-.6.9-1 1.7-1s1.4.4 1.7 1.2c.3-.7 1.1-1.2 1.9-1.2 1.2 0 2 .8 2 2v4.2h-1v-4c0-.8-.5-1.3-1.3-1.3s-1.4.6-1.4 1.4v3.9h-1v-4.1c0-.7-.5-1.2-1.2-1.2-.8 0-1.4.6-1.4 1.5v3.8z" class="st1"/><path d="M546.4 110.6h30c8.3 0 15 6.7 15 15s-6.7 15-15 15h-30c-8.3 0-15-6.7-15-15s6.7-15 15-15" class="st0"/><path d="M540.3 129.6v-8.5h5.1v.9h-4.1v2.9h3.7v.9h-3.7v3.7h-1zm6.7-7.1c-.4 0-.6-.3-.6-.6 0-.4.3-.6.6-.6.4 0 .6.3.6.6.1.3-.2.6-.6.6m-.5 7.1v-6.1h1v6.1zm4.4.1c-1.1 0-1.7-.5-1.7-1.7v-3.7h-.9v-.8h.9v-1.6h1.1v1.6h1.2v.8h-1.2v3.7c0 .6.3.8.8.8h.3v.8c-.1.1-.3.1-.5.1m1.7-.1v-8.5h1v3.3c.3-.7 1-1.1 1.9-1.1 1.3 0 2.2 1 2.2 2.5v3.7h-1v-3.6c0-1.1-.6-1.8-1.5-1.8s-1.6.7-1.6 1.8v3.6h-1zm9.1 0v-8.5h1.2l2.9 7.1 2.9-7.1h1.2v8.5h-1v-6.5l-2.7 6.5h-.9l-2.7-6.5v6.5zm10.3-7.1c-.4 0-.6-.3-.6-.6 0-.4.3-.6.6-.6.4 0 .6.3.6.6.1.3-.2.6-.6.6m-.5 7.1v-6.1h1v6.1zm4.4.1c-1.1 0-1.7-.5-1.7-1.7v-3.7h-.9v-.8h.9v-1.6h1.1v1.6h1.2v.8h-1.2v3.7c0 .6.3.8.8.8h.3v.8c-.1.1-.3.1-.5.1m1.7-.1v-8.5h1v3.3c.3-.7 1-1.1 1.9-1.1 1.3 0 2.2 1 2.2 2.5v3.7h-1v-3.6c0-1.1-.6-1.8-1.5-1.8s-1.6.7-1.6 1.8v3.6h-1z" class="st1"/><path d="M625.8 95.6h35c8.3 0 15 6.7 15 15s-6.7 15-15 15h-35c-8.3 0-15-6.7-15-15s6.7-15 15-15" class="st0"/><path d="M623.9 114.8c-2.4 0-3.9-1.7-3.9-4.4 0-2.6 1.5-4.3 3.9-4.3 1.9 0 3.1 1.1 3.5 2.6v.1h-1.1v-.1c-.4-1.1-1.2-1.7-2.4-1.7-1.7 0-2.8 1.3-2.8 3.3 0 2.1 1.1 3.4 2.8 3.4 1.5 0 2.5-1 2.5-2.4v-.2H624v-.9h3.4v.8c.1 2.4-1.2 3.8-3.5 3.8m7.3-.1c-1.7 0-2.8-1.2-2.8-3.2 0-1.9 1.1-3.2 2.8-3.2s2.8 1.2 2.8 3.2-1.1 3.2-2.8 3.2m0-.9c1.1 0 1.8-.8 1.8-2.3 0-1.4-.7-2.2-1.8-2.2s-1.8.8-1.8 2.2c.1 1.5.8 2.3 1.8 2.3m3.9.8v-8.5h1v8.5zm2.8 0v-5.2h-.9v-.8h.8v-.8c0-1.2.5-1.7 1.7-1.7h.6v.8h-.4c-.6 0-.8.3-.8.9v.7h1.3v.8H639v5.2h-1.1zm5.9 0v-8.5h1l4.7 6.7v-6.7h1v8.5h-1l-4.7-6.7v6.7zm10.8.1c-1.7 0-2.8-1.2-2.8-3.2 0-1.9 1.1-3.2 2.8-3.2s2.8 1.2 2.8 3.2-1.2 3.2-2.8 3.2m0-.9c1.1 0 1.8-.8 1.8-2.3 0-1.4-.7-2.2-1.8-2.2s-1.8.8-1.8 2.2c0 1.5.7 2.3 1.8 2.3m3.8.8v-6.1h1v1c.2-.7.7-1.1 1.4-1.1h.4v1c-.1 0-.3-.1-.5-.1-.8 0-1.3.6-1.3 1.5v3.8zm5.7.1c-1.6 0-2.6-1.2-2.6-3.2 0-1.9 1-3.2 2.6-3.2.9 0 1.6.4 2 1.1V106h1v8.5h-1v-1c-.4.8-1.1 1.2-2 1.2m.2-.9c1 0 1.8-.9 1.8-2.3s-.7-2.3-1.8-2.3-1.7.9-1.7 2.3c0 1.5.6 2.3 1.7 2.3" class="st1"/><path d="M698.5 115.7h55c8.3 0 15 6.7 15 15s-6.7 15-15 15h-55c-8.3 0-15-6.7-15-15s6.7-15 15-15" class="st0"/><path d="M696.2 134.8c-2.4 0-3.9-1.7-3.9-4.4 0-2.6 1.5-4.3 3.9-4.3 1.9 0 3.1 1.1 3.5 2.6v.1h-1.1v-.1c-.4-1.1-1.2-1.7-2.4-1.7-1.7 0-2.8 1.3-2.8 3.3 0 2.1 1.1 3.4 2.8 3.4 1.5 0 2.5-1 2.5-2.4v-.2h-2.4v-.9h3.4v.8c.1 2.5-1.3 3.8-3.5 3.8m6.8 0c-1.3 0-2.1-.9-2.1-2.3v-4h1v3.8c0 1 .5 1.5 1.4 1.5 1 0 1.6-.7 1.6-1.7v-3.6h1v6.1h-1v-.9c-.3.7-.9 1.1-1.9 1.1m6.8 0c-1.8 0-2.8-1.2-2.8-3.1s1.1-3.2 2.7-3.2 2.7 1.2 2.7 3.1v.4H708c0 1.3.7 2 1.8 2 .8 0 1.3-.4 1.5-.9v-.1h1v.1c-.2.9-1.2 1.7-2.5 1.7m-.1-5.4c-.9 0-1.6.6-1.7 1.7h3.3c0-1.2-.7-1.7-1.6-1.7m5.8 5.4c-1.3 0-2.1-.9-2.1-2.3v-4h1v3.8c0 1 .5 1.5 1.4 1.5 1 0 1.6-.7 1.6-1.7v-3.6h1v6.1h-1v-.9c-.3.7-.9 1.1-1.9 1.1m4.3-.1v-8.5h1v8.5zm4.9.1c-1.8 0-2.8-1.2-2.8-3.1s1.1-3.2 2.7-3.2 2.7 1.2 2.7 3.1v.4H723c0 1.3.7 2 1.8 2 .8 0 1.3-.4 1.5-.9v-.1h1v.1c-.2.9-1.2 1.7-2.6 1.7m0-5.4c-.9 0-1.6.6-1.7 1.7h3.3c-.1-1.2-.7-1.7-1.6-1.7m8.4 5.3v-7.5h-2.7v-.9h6.4v.9h-2.7v7.5zm4.9.1c-1.2 0-2-.7-2-1.8 0-1 .8-1.7 2.2-1.8l1.7-.1v-.5c0-.7-.5-1.2-1.3-1.2s-1.3.4-1.4.9v.1h-1v-.1c.1-1 1-1.8 2.4-1.8s2.3.8 2.3 2v4.2h-1v-1c-.3.7-1.1 1.1-1.9 1.1m-1-1.8c0 .6.5 1 1.2 1 1 0 1.7-.7 1.7-1.5v-.5l-1.6.1c-.8-.1-1.3.3-1.3.9m5.3 3.8v-8.1h1v1c.4-.7 1.1-1.1 1.9-1.1 1.6 0 2.6 1.2 2.6 3.2 0 1.9-1 3.2-2.6 3.2-.9 0-1.6-.4-2-1.1v3.1h-.9zm2.7-2.9c1.1 0 1.7-.9 1.7-2.3s-.7-2.3-1.7-2.3-1.8.9-1.8 2.3c.1 1.4.8 2.3 1.8 2.3m6.6-6h-.8l1-1.8h1.1zm-.2 6.9c-1.8 0-2.8-1.2-2.8-3.1s1.1-3.2 2.7-3.2 2.7 1.2 2.7 3.1v.4h-4.4c0 1.3.7 2 1.8 2 .8 0 1.3-.4 1.5-.9v-.1h1v.1c-.2.9-1.2 1.7-2.5 1.7m-.1-5.4c-.9 0-1.6.6-1.7 1.7h3.3c-.1-1.2-.7-1.7-1.6-1.7m6.2 5.4c-1.8 0-2.8-1.2-2.8-3.1s1.1-3.2 2.7-3.2 2.7 1.2 2.7 3.1v.4h-4.4c0 1.3.7 2 1.8 2 .8 0 1.3-.4 1.5-.9v-.1h1v.1c-.2.9-1.2 1.7-2.5 1.7m-.1-5.4c-.9 0-1.6.6-1.7 1.7h3.3c0-1.2-.7-1.7-1.6-1.7" class="st1"/><path d="M725 162.9h118c8.3 0 15 6.7 15 15s-6.7 15-15 15H725c-8.3 0-15-6.7-15-15 0-8.2 6.7-15 15-15" class="st0"/><path d="M719.5 181.9v-8.5h3c1.6 0 2.7 1.1 2.7 2.7s-1.1 2.7-2.7 2.7h-2v3h-1zm2.8-7.5h-1.7v3.6h1.7c1.2 0 1.9-.7 1.9-1.8s-.7-1.8-1.9-1.8m4 7.5v-6.1h1v1c.2-.7.7-1.1 1.4-1.1h.4v1c-.1 0-.3-.1-.5-.1-.8 0-1.3.6-1.3 1.5v3.8zm6.2-6.7h-.8l1-1.8h1.1zm-.3 6.9c-1.8 0-2.8-1.2-2.8-3.1s1.1-3.2 2.7-3.2c1.7 0 2.7 1.2 2.7 3.1v.4h-4.4c0 1.3.7 2 1.8 2 .8 0 1.3-.4 1.5-.9v-.1h1v.1c-.2.9-1.2 1.7-2.5 1.7m-.1-5.5c-.9 0-1.6.6-1.7 1.7h3.3c0-1.1-.7-1.7-1.6-1.7m4.1 5.3v-5.2h-.9v-.8h.9v-.8c0-1.2.5-1.7 1.7-1.7h.6v.8h-.4c-.6 0-.8.3-.8.9v.7h1.3v.8h-1.2v5.2h-1.2zm5.2.2c-1.8 0-2.8-1.2-2.8-3.1s1.1-3.2 2.7-3.2c1.7 0 2.7 1.2 2.7 3.1v.4h-4.4c0 1.3.7 2 1.8 2 .8 0 1.3-.4 1.5-.9v-.1h1v.1c-.2.9-1.1 1.7-2.5 1.7m-.1-5.5c-.9 0-1.6.6-1.7 1.7h3.3c0-1.1-.7-1.7-1.6-1.7m6.3 5.5c-1.7 0-2.8-1.2-2.8-3.2 0-1.9 1.1-3.2 2.8-3.2 1.5 0 2.4 1 2.5 2.1h-1c-.2-.6-.6-1.1-1.5-1.1-1.1 0-1.8.9-1.8 2.3s.7 2.3 1.8 2.3c.8 0 1.4-.5 1.5-1.1h1c-.1 1-1.1 1.9-2.5 1.9m5.5 0c-1.1 0-1.7-.5-1.7-1.7v-3.7h-.9v-.8h.9v-1.6h1.1v1.6h1.2v.8h-1.2v3.7c0 .7.3.8.8.8h.3v.8c-.1 0-.3.1-.5.1m3.7 0c-1.3 0-2.1-.9-2.1-2.3v-4h1v3.8c0 1 .5 1.5 1.4 1.5 1 0 1.6-.7 1.6-1.7v-3.6h1v6.1h-1v-.9c-.4.6-1 1.1-1.9 1.1m4.2-.2v-6.1h1v1c.2-.7.7-1.1 1.4-1.1h.4v1c-.1 0-.3-.1-.5-.1-.8 0-1.3.6-1.3 1.5v3.8zm5.9.2c-1.8 0-2.8-1.2-2.8-3.1s1.1-3.2 2.7-3.2 2.7 1.2 2.7 3.1v.4h-4.4c0 1.3.7 2 1.8 2 .8 0 1.3-.4 1.5-.9v-.1h1v.1c-.1.9-1.1 1.7-2.5 1.7m0-5.5c-.9 0-1.6.6-1.7 1.7h3.3c-.1-1.1-.7-1.7-1.6-1.7m8.4 5.5c-1.6 0-2.6-1.2-2.6-3.2 0-1.9 1-3.2 2.6-3.2.9 0 1.6.4 2 1.1v-3.4h1v8.5h-1v-1c-.4.7-1.1 1.2-2 1.2m.2-.9c1 0 1.8-.9 1.8-2.3s-.7-2.3-1.8-2.3-1.7.9-1.7 2.3.7 2.3 1.7 2.3m6.7.9c-1.8 0-2.8-1.2-2.8-3.1s1.1-3.2 2.7-3.2 2.7 1.2 2.7 3.1v.4h-4.4c0 1.3.7 2 1.8 2 .8 0 1.3-.4 1.5-.9v-.1h1v.1c-.2.9-1.2 1.7-2.5 1.7m-.1-5.5c-.9 0-1.6.6-1.7 1.7h3.3c0-1.1-.7-1.7-1.6-1.7m9.9 5.5c-2.4 0-3.9-1.7-3.9-4.4 0-2.6 1.5-4.3 3.9-4.3 1.9 0 3.1 1.1 3.5 2.6v.1h-1.1v-.1c-.4-1.1-1.2-1.7-2.4-1.7-1.7 0-2.8 1.3-2.8 3.3 0 2.1 1.1 3.4 2.8 3.4 1.5 0 2.5-1 2.5-2.4v-.2h-2.4v-.9h3.4v.8c.1 2.4-1.2 3.8-3.5 3.8m6.9 0c-1.3 0-2.1-.9-2.1-2.3v-4h1v3.8c0 1 .5 1.5 1.4 1.5 1 0 1.6-.7 1.6-1.7v-3.6h1v6.1h-1v-.9c-.4.6-1 1.1-1.9 1.1m7-6.9h-.8l1-1.8h1.1zm-.3 6.9c-1.8 0-2.8-1.2-2.8-3.1s1.1-3.2 2.7-3.2c1.7 0 2.7 1.2 2.7 3.1v.4h-4.4c0 1.3.7 2 1.8 2 .8 0 1.3-.4 1.5-.9v-.1h1v.1c-.1.9-1.1 1.7-2.5 1.7m0-5.5c-.9 0-1.6.6-1.7 1.7h3.3c-.1-1.1-.8-1.7-1.6-1.7m6 5.5c-1.6 0-2.6-1.2-2.6-3.2 0-1.9 1-3.2 2.6-3.2.9 0 1.6.4 2 1.1v-3.4h1v8.5h-1v-1c-.5.7-1.2 1.2-2 1.2m.2-.9c1 0 1.8-.9 1.8-2.3s-.7-2.3-1.8-2.3-1.7.9-1.7 2.3c-.1 1.4.6 2.3 1.7 2.3m4.7-6.4c-.4 0-.6-.3-.6-.6 0-.4.3-.6.6-.6.4 0 .6.3.6.6s-.3.6-.6.6m-.5 7.1v-6.1h1v6.1zm4.2.2c-1.2 0-2-.7-2-1.8 0-1 .8-1.7 2.2-1.8l1.7-.1v-.5c0-.7-.5-1.2-1.3-1.2s-1.3.4-1.4.9v.1h-1v-.1c.1-1 1-1.8 2.4-1.8s2.3.8 2.3 2v4.2h-1v-1c-.4.6-1.1 1.1-1.9 1.1m-1-1.9c0 .6.5 1 1.2 1 1 0 1.7-.7 1.7-1.5v-.5l-1.6.1c-.8 0-1.3.3-1.3.9m6.4 1.7-1.7-6.1h1l1.2 5 1.4-5h1l1.4 5 1.2-5h1l-1.7 6.1h-1l-1.4-4.7-1.4 4.7zm9.1.2c-1.2 0-2-.7-2-1.8 0-1 .8-1.7 2.2-1.8l1.7-.1v-.5c0-.7-.5-1.2-1.3-1.2s-1.3.4-1.4.9v.1h-1v-.1c.1-1 1-1.8 2.4-1.8s2.3.8 2.3 2v4.2h-1v-1c-.4.6-1.1 1.1-1.9 1.1m-1-1.9c0 .6.5 1 1.2 1 1 0 1.7-.7 1.7-1.5v-.5l-1.6.1c-.8 0-1.3.3-1.3.9m5.8 3.8h-.5v-.8h.3c.6 0 1-.2 1.2-.9l.1-.3-2.3-6.1h1.1l1.7 5.1 1.7-5.1h1.1l-2.4 6.5c-.4 1.1-.9 1.6-2 1.6m7.5-1.9c-1.8 0-2.8-1.2-2.8-3.1s1.1-3.2 2.7-3.2 2.7 1.2 2.7 3.1v.4h-4.4c0 1.3.7 2 1.8 2 .8 0 1.3-.4 1.5-.9v-.1h1v.1c-.2.9-1.2 1.7-2.5 1.7m-.1-5.5c-.9 0-1.6.6-1.7 1.7h3.3c0-1.1-.7-1.7-1.6-1.7" class="st1"/><path d="M425.7 617.1s-9.4-7.4-13-28.3c-2.9-17-9.5-36.3-11.8-42.8-.5-1.5-1.3-2.9-2.3-4.2l-79.1-101.9c-2.3-2.9-3.4-6.5-3.4-10.2l.2-9.1c.1-3.9 1.6-7.6 4.2-10.5l36.3-39.3c2-2.2 3.4-4.9 4-7.8l5.1-26.5c.2-1.1.6-2.2 1.1-3.3 2.7-5.7 12.7-25.2 26.5-33 16.2-9.2 22.8-17.9 23.7-21.9s14.8-15.7 30-18.5c12.6-2.4 32.7-16.6 39.2-21.5 1.4-1.1 3-1.9 4.7-2.5l.4-.1c3.8-1.3 7-4 8.9-7.5l9.2-16.9c1.3-2.4 3.3-4.5 5.7-5.9 5.9-3.3 17.7-9.4 24.6-9.2 9 .2 30.4-14.2 32.9-15.9.2-.1.3-.2.5-.3 2.3-1.5 19.3-12.3 20.9-13.8 1.6-1.6 3.4-7.9 1.9-12-1.5-4-4.6-8.9-2.2-9.7 2.4-.7 36 1.6 45.7-3.8s24.9-4.2 33.5 3.9c8.6 8.2 21.2 16.5 21.2 16.5" style="fill:none;stroke:#31a02a;stroke-width:4;stroke-miterlimit:10"/><path d="M423.6 621.4c2.8.1 5.2-2.2 5.2-5 .1-2.8-2.2-5.2-5-5.2-2.8-.1-5.2 2.2-5.2 5-.1 2.8 2.1 5.1 5 5.2" class="st1"/><path d="M423.5 622.9c-3.7-.1-6.6-3.2-6.5-6.8.1-3.7 3.2-6.6 6.8-6.6 3.7.1 6.6 3.2 6.5 6.8 0 3.8-3.1 6.7-6.8 6.6m.2-10.2c-2 0-3.6 1.5-3.6 3.5s1.5 3.6 3.5 3.6 3.6-1.5 3.6-3.5-1.5-3.6-3.5-3.6" class="st0"/><path d="M694.7 166.9c2.8.1 5.2-2.2 5.2-5 .1-2.8-2.2-5.2-5-5.2-2.8-.1-5.2 2.2-5.2 5-.1 2.8 2.2 5.1 5 5.2" class="st1"/><path d="M694.6 168.4c-3.7-.1-6.6-3.2-6.6-6.8.1-3.7 3.2-6.6 6.8-6.6 3.7.1 6.6 3.2 6.5 6.8.1 3.8-3 6.7-6.7 6.6m.3-10.2c-2 0-3.6 1.5-3.6 3.5s1.5 3.6 3.5 3.6 3.6-1.5 3.6-3.5c0-1.9-1.6-3.6-3.5-3.6" class="st0"/><path d="M643.2 145.4c2.8.1 5.2-2.2 5.2-5 .1-2.8-2.2-5.2-5-5.2-2.8-.1-5.2 2.2-5.2 5-.1 2.8 2.2 5.1 5 5.2" class="st1"/><path d="M643.1 146.9c-3.7-.1-6.6-3.2-6.6-6.8.1-3.7 3.2-6.6 6.8-6.6 3.7.1 6.6 3.2 6.5 6.8.1 3.8-3 6.7-6.7 6.6m.3-10.2c-2 0-3.6 1.5-3.6 3.5s1.5 3.6 3.5 3.6 3.6-1.5 3.6-3.5c0-1.9-1.6-3.6-3.5-3.6" class="st0"/><path d="M667.7 146.7c2.8.1 5.2-2.2 5.2-5 .1-2.8-2.2-5.2-5-5.2-2.8-.1-5.2 2.2-5.2 5-.1 2.8 2.2 5.1 5 5.2" class="st1"/><path d="M667.6 148.3c-3.7-.1-6.6-3.2-6.6-6.8.1-3.7 3.2-6.6 6.8-6.6 3.7.1 6.6 3.2 6.5 6.8.1 3.7-3 6.6-6.7 6.6m.3-10.3c-2 0-3.6 1.5-3.6 3.5s1.5 3.6 3.5 3.6 3.6-1.5 3.6-3.5c0-1.9-1.6-3.5-3.5-3.6" class="st0"/><path d="M606.7 150.6c2.8.1 5.2-2.2 5.2-5 .1-2.8-2.2-5.2-5-5.2-2.8-.1-5.2 2.2-5.2 5-.1 2.8 2.2 5.1 5 5.2" class="st1"/><path d="M606.6 152.2c-3.7-.1-6.6-3.2-6.6-6.8.1-3.7 3.2-6.6 6.8-6.6 3.7.1 6.6 3.2 6.5 6.8.1 3.7-3 6.7-6.7 6.6m.3-10.3c-2 0-3.6 1.5-3.6 3.5s1.5 3.6 3.5 3.6 3.6-1.5 3.6-3.5c0-1.9-1.6-3.5-3.5-3.6" class="st0"/><path d="M596 168.1c2.8.1 5.2-2.2 5.2-5 .1-2.8-2.2-5.2-5-5.2-2.8-.1-5.2 2.2-5.2 5-.1 2.8 2.2 5.1 5 5.2" class="st1"/><path d="M596 169.6c-3.7-.1-6.6-3.2-6.5-6.8.1-3.7 3.2-6.6 6.8-6.6 3.7.1 6.6 3.2 6.5 6.8 0 3.8-3.1 6.7-6.8 6.6m.2-10.2c-2 0-3.6 1.5-3.6 3.5s1.5 3.6 3.5 3.6 3.6-1.5 3.6-3.5c0-1.9-1.5-3.6-3.5-3.6" class="st0"/><path d="M569.6 186.8c2.8.1 5.2-2.2 5.2-5 .1-2.8-2.2-5.2-5-5.2-2.8-.1-5.2 2.2-5.2 5s2.2 5.2 5 5.2" class="st1"/><path d="M569.6 188.4c-3.7-.1-6.6-3.2-6.5-6.8.1-3.7 3.2-6.6 6.8-6.6 3.7.1 6.6 3.2 6.5 6.8 0 3.8-3.1 6.7-6.8 6.6m.2-10.2c-2 0-3.6 1.5-3.6 3.5s1.5 3.6 3.5 3.6 3.6-1.5 3.6-3.5-1.5-3.6-3.5-3.6" class="st0"/><path d="M539.5 201.4c2.8.1 5.2-2.2 5.2-5 .1-2.8-2.2-5.2-5-5.2-2.8-.1-5.2 2.2-5.2 5s2.2 5.1 5 5.2" class="st1"/><path d="M539.5 202.9c-3.7-.1-6.6-3.2-6.5-6.8.1-3.7 3.2-6.6 6.8-6.6s6.6 3.2 6.5 6.8c-.1 3.8-3.1 6.7-6.8 6.6m.2-10.2c-2 0-3.6 1.5-3.6 3.5s1.5 3.6 3.5 3.6 3.6-1.5 3.6-3.5c0-1.9-1.5-3.6-3.5-3.6" class="st0"/><path d="M514.5 212c2.8.1 5.2-2.2 5.2-5 .1-2.8-2.2-5.2-5-5.2-2.8-.1-5.2 2.2-5.2 5-.1 2.8 2.2 5.2 5 5.2" class="st1"/><path d="M514.5 213.6c-3.7-.1-6.6-3.2-6.5-6.8s3.2-6.6 6.8-6.6c3.7.1 6.6 3.2 6.5 6.8-.1 3.7-3.1 6.7-6.8 6.6m.2-10.2c-2 0-3.6 1.5-3.6 3.5s1.5 3.6 3.5 3.6 3.6-1.5 3.6-3.5-1.5-3.6-3.5-3.6" class="st0"/><path d="M476 250.4c2.8.1 5.2-2.2 5.2-5 .1-2.8-2.2-5.2-5-5.2-2.8-.1-5.2 2.2-5.2 5-.1 2.8 2.2 5.1 5 5.2" class="st1"/><path d="M476 251.9c-3.7-.1-6.6-3.2-6.5-6.8s3.2-6.6 6.8-6.6 6.6 3.2 6.5 6.8c0 3.8-3.1 6.7-6.8 6.6m.2-10.2c-2 0-3.6 1.5-3.6 3.5s1.5 3.6 3.5 3.6 3.6-1.5 3.6-3.5c0-1.9-1.5-3.6-3.5-3.6" class="st0"/><path d="M447.3 264.1c2.8.1 5.2-2.2 5.2-5 .1-2.8-2.2-5.2-5-5.2-2.8-.1-5.2 2.2-5.2 5-.1 2.8 2.1 5.1 5 5.2" class="st1"/><path d="M447.2 265.6c-3.7-.1-6.6-3.2-6.5-6.8.1-3.7 3.2-6.6 6.8-6.6 3.7.1 6.6 3.2 6.5 6.8 0 3.8-3.1 6.7-6.8 6.6m.3-10.2c-2 0-3.6 1.5-3.6 3.5s1.5 3.6 3.5 3.6 3.6-1.5 3.6-3.5c0-1.9-1.6-3.6-3.5-3.6" class="st0"/><path d="M420.3 279.1c2.8.1 5.2-2.2 5.2-5 .1-2.8-2.2-5.2-5-5.2-2.8-.1-5.2 2.2-5.2 5-.1 2.8 2.1 5.2 5 5.2" class="st1"/><path d="M420.2 280.7c-3.7-.1-6.6-3.2-6.5-6.8s3.2-6.6 6.8-6.6c3.7.1 6.6 3.2 6.5 6.8 0 3.8-3.1 6.7-6.8 6.6m.3-10.2c-2 0-3.6 1.5-3.6 3.5s1.5 3.6 3.5 3.6 3.6-1.5 3.6-3.5-1.6-3.6-3.5-3.6" class="st0"/><path d="M393.9 305.6c2.8.1 5.2-2.2 5.2-5 .1-2.8-2.2-5.2-5-5.2-2.8-.1-5.2 2.2-5.2 5-.1 2.8 2.2 5.2 5 5.2" class="st1"/><path d="M393.9 307.2c-3.7-.1-6.6-3.2-6.5-6.8s3.2-6.6 6.8-6.6c3.7.1 6.6 3.2 6.5 6.8-.1 3.8-3.1 6.7-6.8 6.6m.2-10.2c-2 0-3.6 1.5-3.6 3.5s1.5 3.6 3.5 3.6 3.6-1.5 3.6-3.5-1.6-3.6-3.5-3.6" class="st0"/><path d="M374 326.8c2.8.1 5.2-2.2 5.2-5 .1-2.8-2.2-5.2-5-5.2-2.8-.1-5.2 2.2-5.2 5-.1 2.8 2.2 5.1 5 5.2" class="st1"/><path d="M374 328.3c-3.7-.1-6.6-3.2-6.5-6.8s3.2-6.6 6.8-6.6c3.7.1 6.6 3.2 6.5 6.8 0 3.8-3.1 6.7-6.8 6.6m.2-10.2c-2 0-3.6 1.5-3.6 3.5s1.5 3.6 3.5 3.6 3.6-1.5 3.6-3.5c0-1.9-1.5-3.6-3.5-3.6" class="st0"/><path d="M364.9 348c2.8.1 5.2-2.2 5.2-5 .1-2.8-2.2-5.2-5-5.2-2.8-.1-5.2 2.2-5.2 5-.1 2.8 2.1 5.1 5 5.2" class="st1"/><path d="M364.8 349.6c-3.7-.1-6.6-3.2-6.5-6.8.1-3.7 3.2-6.6 6.8-6.6 3.7.1 6.6 3.2 6.6 6.8-.1 3.7-3.2 6.7-6.9 6.6m.3-10.3c-2 0-3.6 1.5-3.6 3.5s1.5 3.6 3.5 3.6 3.6-1.5 3.6-3.5c0-1.9-1.6-3.5-3.5-3.6" class="st0"/><path d="M351.5 381.6c2.8.1 5.2-2.2 5.2-5 .1-2.8-2.2-5.2-5-5.2-2.8-.1-5.2 2.2-5.2 5-.1 2.8 2.1 5.2 5 5.2" class="st1"/><path d="M351.4 383.2c-3.7-.1-6.6-3.2-6.5-6.8s3.2-6.6 6.8-6.6c3.7.1 6.6 3.2 6.5 6.8 0 3.7-3.1 6.7-6.8 6.6m.3-10.2c-2 0-3.6 1.5-3.6 3.5s1.5 3.6 3.5 3.6 3.6-1.5 3.6-3.5-1.6-3.6-3.5-3.6" class="st0"/><path d="M331.5 404.3c2.8.1 5.2-2.2 5.2-5 .1-2.8-2.2-5.2-5-5.2-2.8-.1-5.2 2.2-5.2 5s2.2 5.1 5 5.2" class="st1"/><path d="M331.5 405.9c-3.7-.1-6.6-3.2-6.6-6.8.1-3.7 3.2-6.6 6.8-6.6 3.7.1 6.6 3.2 6.5 6.8.1 3.7-3 6.7-6.7 6.6m.2-10.3c-2 0-3.6 1.5-3.6 3.5s1.5 3.6 3.5 3.6 3.6-1.5 3.6-3.5c.1-1.9-1.5-3.5-3.5-3.6" class="st0"/><path d="M316.5 426.8c2.8.1 5.2-2.2 5.2-5 .1-2.8-2.2-5.2-5-5.2-2.8-.1-5.2 2.2-5.2 5-.1 2.8 2.2 5.2 5 5.2" class="st1"/><path d="M316.5 428.4c-3.7-.1-6.6-3.2-6.5-6.8.1-3.7 3.2-6.6 6.8-6.6s6.6 3.2 6.6 6.8c-.2 3.8-3.2 6.7-6.9 6.6m.2-10.2c-2 0-3.6 1.5-3.6 3.5s1.5 3.6 3.5 3.6 3.6-1.5 3.6-3.5-1.5-3.6-3.5-3.6" class="st0"/><path d="M331.8 459.8c2.8.1 5.2-2.2 5.2-5 .1-2.8-2.2-5.2-5-5.2-2.8-.1-5.2 2.2-5.2 5s2.2 5.2 5 5.2" class="st1"/><path d="M331.8 461.4c-3.7-.1-6.6-3.2-6.5-6.8s3.2-6.6 6.8-6.6 6.6 3.2 6.5 6.8c0 3.8-3.1 6.7-6.8 6.6m.2-10.2c-2 0-3.6 1.5-3.6 3.5s1.5 3.6 3.5 3.6 3.6-1.5 3.6-3.5-1.5-3.6-3.5-3.6" class="st0"/><path d="M352.7 486.8c2.8.1 5.2-2.2 5.2-5 .1-2.8-2.2-5.2-5-5.2-2.8-.1-5.2 2.2-5.2 5-.1 2.8 2.1 5.2 5 5.2" class="st1"/><path d="M352.6 488.4c-3.7-.1-6.6-3.2-6.5-6.8.1-3.7 3.2-6.6 6.8-6.6 3.7.1 6.6 3.2 6.6 6.8-.1 3.8-3.2 6.7-6.9 6.6m.3-10.2c-2 0-3.6 1.5-3.6 3.5s1.5 3.6 3.5 3.6 3.6-1.5 3.6-3.5-1.6-3.6-3.5-3.6" class="st0"/><path d="M373.1 513.3c2.8.1 5.2-2.2 5.2-5 .1-2.8-2.2-5.2-5-5.2-2.8-.1-5.2 2.2-5.2 5-.1 2.8 2.2 5.2 5 5.2" class="st1"/><path d="M373 514.9c-3.7-.1-6.6-3.2-6.5-6.8.1-3.7 3.2-6.6 6.8-6.6 3.7.1 6.6 3.2 6.5 6.8 0 3.8-3.1 6.7-6.8 6.6m.3-10.2c-2 0-3.6 1.5-3.6 3.5s1.5 3.6 3.5 3.6 3.6-1.5 3.6-3.5-1.6-3.6-3.5-3.6" class="st0"/><path d="M386.5 531.3c2.8.1 5.2-2.2 5.2-5 .1-2.8-2.2-5.2-5-5.2-2.8-.1-5.2 2.2-5.2 5-.1 2.8 2.1 5.2 5 5.2" class="st1"/><path d="M386.4 532.9c-3.7-.1-6.6-3.2-6.5-6.8.1-3.7 3.2-6.6 6.8-6.6 3.7.1 6.6 3.2 6.5 6.8 0 3.8-3.1 6.7-6.8 6.6m.3-10.2c-2 0-3.6 1.5-3.6 3.5s1.5 3.6 3.5 3.6 3.6-1.5 3.6-3.5-1.6-3.6-3.5-3.6" class="st0"/><path d="M414.1 601.3c2.8.1 5.2-2.2 5.2-5 .1-2.8-2.2-5.2-5-5.2-2.8-.1-5.2 2.2-5.2 5-.1 2.8 2.2 5.2 5 5.2" class="st1"/><path d="M414 602.9c-3.7-.1-6.6-3.2-6.5-6.8.1-3.7 3.2-6.6 6.8-6.6 3.7.1 6.6 3.2 6.5 6.8 0 3.8-3.1 6.7-6.8 6.6m.3-10.2c-2 0-3.6 1.5-3.6 3.5s1.5 3.6 3.5 3.6 3.6-1.5 3.6-3.5-1.6-3.6-3.5-3.6" class="st0"/></svg>