<svg xmlns="http://www.w3.org/2000/svg" xml:space="preserve" id="Calque_1" x="0" y="0" viewBox="0 0 997 783"><style>.st0{fill:#f77c14}.st1{fill:#fff}</style><path d="M453.9 601.1h66c8.3 0 15 6.7 15 15s-6.7 15-15 15h-66c-8.3 0-15-6.7-15-15s6.7-15 15-15" class="st0"/><path d="M448.4 620.1v-8.5h3c1.6 0 2.7 1.1 2.7 2.7s-1.1 2.7-2.7 2.7h-2v3h-1zm2.7-7.5h-1.7v3.6h1.7c1.2 0 1.9-.7 1.9-1.8 0-1.2-.7-1.8-1.9-1.8m5.3 7.6c-1.2 0-2-.7-2-1.8 0-1 .8-1.7 2.2-1.8l1.7-.1v-.5c0-.7-.5-1.2-1.3-1.2s-1.3.4-1.4.9v.1h-1v-.1c.1-1 1-1.8 2.4-1.8s2.3.8 2.3 2v4.2h-1v-1c-.3.7-1.1 1.1-1.9 1.1m-1-1.8c0 .6.5 1 1.2 1 1 0 1.7-.7 1.7-1.5v-.5l-1.6.1c-.8-.1-1.3.3-1.3.9m5.3 3.7V614h1v1c.4-.7 1.1-1.1 1.9-1.1 1.6 0 2.6 1.2 2.6 3.2 0 1.9-1 3.2-2.6 3.2-.9 0-1.6-.4-2-1.1v3.1h-.9zm2.7-2.8c1.1 0 1.7-.9 1.7-2.3s-.7-2.3-1.7-2.3-1.8.9-1.8 2.3c.1 1.4.8 2.3 1.8 2.3m5.6.9c-1.2 0-2-.7-2-1.8 0-1 .8-1.7 2.2-1.8l1.7-.1v-.5c0-.7-.5-1.2-1.3-1.2s-1.3.4-1.4.9v.1h-1v-.1c.1-1 1-1.8 2.4-1.8s2.3.8 2.3 2v4.2h-1v-1c-.3.7-1 1.1-1.9 1.1m-.9-1.8c0 .6.5 1 1.2 1 1 0 1.7-.7 1.7-1.5v-.5l-1.6.1c-.9-.1-1.3.3-1.3.9m11.3 1.8c-2.4 0-3.9-1.7-3.9-4.4 0-2.6 1.5-4.3 3.9-4.3 1.9 0 3.1 1.1 3.5 2.6v.1h-1.1v-.1c-.4-1.1-1.2-1.7-2.4-1.7-1.7 0-2.8 1.3-2.8 3.3 0 2.1 1.1 3.4 2.8 3.4 1.5 0 2.5-1 2.5-2.4v-.2h-2.4v-.9h3.4v.8c.1 2.5-1.2 3.8-3.5 3.8m6.9 0c-1.3 0-2.1-.9-2.1-2.3v-4h1v3.8c0 1 .5 1.5 1.4 1.5 1 0 1.6-.7 1.6-1.7V614h1v6.1h-1v-.9c-.3.6-1 1-1.9 1m6.8 0c-1.8 0-2.8-1.2-2.8-3.1s1.1-3.2 2.7-3.2 2.7 1.2 2.7 3.1v.4h-4.4c0 1.3.7 2 1.8 2 .8 0 1.3-.4 1.5-.9v-.1h1v.1c-.2.9-1.2 1.7-2.5 1.7m-.1-5.4c-.9 0-1.6.6-1.7 1.7h3.3c-.1-1.2-.7-1.7-1.6-1.7m4.1 7.3h-.5v-.8h.3c.6 0 1-.2 1.2-.9l.1-.3-2.3-6.1h1.1l1.7 5.1 1.7-5.1h1.1l-2.4 6.5c-.4 1.1-.9 1.6-2 1.6m7.5-1.9c-1.8 0-2.8-1.2-2.8-3.1s1.1-3.2 2.7-3.2 2.7 1.2 2.7 3.1v.4h-4.4c0 1.3.7 2 1.8 2 .8 0 1.3-.4 1.5-.9v-.1h1v.1c-.2.9-1.2 1.7-2.5 1.7m-.1-5.4c-.9 0-1.6.6-1.7 1.7h3.3c0-1.2-.7-1.7-1.6-1.7m6.3 5.3v-8.5h5.1v.9h-4.1v2.9h3.7v.9h-3.7v3.7h-1zm7.6.1c-1.2 0-2-.7-2-1.8 0-1 .8-1.7 2.2-1.8l1.7-.1v-.5c0-.7-.5-1.2-1.3-1.2s-1.3.4-1.4.9v.1h-1v-.1c.1-1 1-1.8 2.4-1.8s2.3.8 2.3 2v4.2h-1v-1c-.4.7-1.1 1.1-1.9 1.1m-1-1.8c0 .6.5 1 1.2 1 1 0 1.7-.7 1.7-1.5v-.5l-1.6.1c-.8-.1-1.3.3-1.3.9m5.3 1.7v-8.5h1v8.5zm2.4 0v-8.5h1v8.5z" class="st1"/><path d="M282.5 511.1h74c8.3 0 15 6.7 15 15s-6.7 15-15 15h-74c-8.3 0-15-6.7-15-15 0-8.2 6.7-15 15-15" class="st0"/><path d="M276.3 530.1v-8.5h3c1.6 0 2.7 1.1 2.7 2.7s-1.1 2.7-2.7 2.7h-2v3h-1zm2.8-7.5h-1.7v3.6h1.7c1.2 0 1.9-.7 1.9-1.8s-.7-1.8-1.9-1.8m4.1 7.5v-8.5h1v8.5zm4.1.2c-1.2 0-2-.7-2-1.8 0-1 .8-1.7 2.2-1.8l1.7-.1v-.6c0-.7-.5-1.2-1.3-1.2s-1.3.4-1.4.9v.1h-1v-.1c.1-1 1-1.8 2.4-1.8s2.3.8 2.3 2v4.2h-1v-1c-.3.7-1.1 1.2-1.9 1.2m-1-1.9c0 .6.5 1 1.2 1 1 0 1.7-.7 1.7-1.5v-.5l-1.6.1c-.8 0-1.3.3-1.3.9m7.8 1.9c-1.7 0-2.8-1.2-2.8-3.2 0-1.9 1.1-3.2 2.8-3.2 1.5 0 2.4 1 2.5 2.1h-1c-.2-.6-.6-1.1-1.5-1.1-1.1 0-1.8.9-1.8 2.3s.7 2.3 1.8 2.3c.8 0 1.4-.5 1.5-1.1h1c-.1 1-1.1 1.9-2.5 1.9m6 0c-1.8 0-2.8-1.2-2.8-3.1s1.1-3.2 2.7-3.2 2.7 1.2 2.7 3.1v.4h-4.4c0 1.3.7 2 1.8 2 .8 0 1.3-.4 1.5-.9v-.1h1v.1c-.2.9-1.2 1.7-2.5 1.7m-.1-5.5c-.9 0-1.6.6-1.7 1.7h3.3c0-1.1-.7-1.7-1.6-1.7m8.5 5.5c-1.6 0-2.6-1.2-2.6-3.2 0-1.9 1-3.2 2.6-3.2.9 0 1.6.4 2 1.1v-3.4h1v8.5h-1v-1c-.5.7-1.1 1.2-2 1.2m.2-.9c1 0 1.8-.9 1.8-2.3s-.7-2.3-1.8-2.3-1.7.9-1.7 2.3c-.1 1.4.6 2.3 1.7 2.3m6.7.9c-1.8 0-2.8-1.2-2.8-3.1s1.1-3.2 2.7-3.2 2.7 1.2 2.7 3.1v.4h-4.4c0 1.3.7 2 1.8 2 .8 0 1.3-.4 1.5-.9v-.1h1v.1c-.2.9-1.2 1.7-2.5 1.7m-.1-5.5c-.9 0-1.6.6-1.7 1.7h3.3c-.1-1.1-.7-1.7-1.6-1.7m6.2 5.3v-8.5h1v8.5zm4.2.2c-1.2 0-2-.7-2-1.8 0-1 .8-1.7 2.2-1.8l1.7-.1v-.6c0-.7-.5-1.2-1.3-1.2s-1.3.4-1.4.9v.1h-1v-.1c.1-1 1-1.8 2.4-1.8s2.3.8 2.3 2v4.2h-1v-1c-.4.7-1.1 1.2-1.9 1.2m-1-1.9c0 .6.5 1 1.2 1 1 0 1.7-.7 1.7-1.5v-.5l-1.6.1c-.8 0-1.3.3-1.3.9m7.7 1.7V524h1v.9c.3-.6.9-1 1.9-1 1.3 0 2.1.9 2.1 2.3v4h-1v-3.8c0-1-.5-1.5-1.4-1.5-1 0-1.6.7-1.6 1.7v3.6h-1zm8.1.2c-1.2 0-2-.7-2-1.8 0-1 .8-1.7 2.2-1.8l1.7-.1v-.6c0-.7-.5-1.2-1.3-1.2s-1.3.4-1.4.9v.1h-1v-.1c.1-1 1-1.8 2.4-1.8s2.3.8 2.3 2v4.2h-1v-1c-.4.7-1.1 1.2-1.9 1.2m-1-1.9c0 .6.5 1 1.2 1 1 0 1.7-.7 1.7-1.5v-.5l-1.6.1c-.8 0-1.3.3-1.3.9m7.2 1.9c-1.1 0-1.7-.5-1.7-1.7v-3.7h-.9v-.8h.9v-1.6h1.1v1.6h1.2v.8h-1.2v3.7c0 .6.3.8.8.8h.3v.8c-.1 0-.3.1-.5.1m2.2-7.3c-.4 0-.6-.3-.6-.6 0-.4.3-.6.6-.6.4 0 .6.3.6.6.1.3-.2.6-.6.6m-.5 7.1V524h1v6.1zm5 .2c-1.7 0-2.8-1.2-2.8-3.2 0-1.9 1.1-3.2 2.8-3.2s2.8 1.2 2.8 3.2c0 1.9-1.2 3.2-2.8 3.2m0-.9c1.1 0 1.8-.8 1.8-2.3 0-1.4-.7-2.2-1.8-2.2s-1.8.8-1.8 2.2.7 2.3 1.8 2.3m3.8.7V524h1v.9c.3-.6.9-1 1.9-1 1.3 0 2.1.9 2.1 2.3v4h-1v-3.8c0-1-.5-1.5-1.4-1.5-1 0-1.6.7-1.6 1.7v3.6h-1z" class="st1"/><path d="M382.8 466.6h50c8.3 0 15 6.7 15 15s-6.7 15-15 15h-50c-8.3 0-15-6.7-15-15s6.7-15 15-15" class="st0"/><path d="M381 485.7c-2.4 0-3.9-1.7-3.9-4.4 0-2.6 1.5-4.3 3.9-4.3 1.9 0 3.1 1.1 3.5 2.6v.1h-1.1v-.1c-.4-1.1-1.2-1.7-2.4-1.7-1.7 0-2.8 1.3-2.8 3.3 0 2.1 1.1 3.4 2.8 3.4 1.5 0 2.5-1 2.5-2.4v-.2h-2.4v-.9h3.4v.8c0 2.4-1.3 3.8-3.5 3.8m4.7-.1v-6.1h1v1c.2-.7.7-1.1 1.4-1.1h.4v1c-.1 0-.3-.1-.5-.1-.8 0-1.3.6-1.3 1.5v3.8zm5.4.1c-1.2 0-2-.7-2-1.8 0-1 .8-1.7 2.2-1.8l1.7-.1v-.5c0-.7-.5-1.2-1.3-1.2s-1.3.4-1.4.9v.1h-1v-.1c.1-1 1-1.8 2.4-1.8s2.3.8 2.3 2v4.2h-1v-1c-.4.6-1.1 1.1-1.9 1.1m-1-1.9c0 .6.5 1 1.2 1 1 0 1.7-.7 1.7-1.5v-.5l-1.6.1c-.8 0-1.3.4-1.3.9m5.2 1.8v-6.1h1v.9c.3-.6.9-1 1.9-1 1.3 0 2.1.9 2.1 2.3v4h-1v-3.8c0-1-.5-1.5-1.4-1.5-1 0-1.6.7-1.6 1.7v3.6h-1zm8.7.1c-1.6 0-2.6-1.2-2.6-3.2 0-1.9 1-3.2 2.6-3.2.9 0 1.6.4 2 1.1V477h1v8.5h-1v-1c-.5.7-1.2 1.2-2 1.2m.2-.9c1 0 1.8-.9 1.8-2.3s-.7-2.3-1.8-2.3-1.7.9-1.7 2.3c-.1 1.4.6 2.3 1.7 2.3m6.7.8v-8.5h2.8c2.5 0 4 1.6 4 4.2 0 2.7-1.5 4.2-4 4.2h-2.8zm1.1-1h1.7c1.9 0 3-1.2 3-3.3s-1.1-3.3-3-3.3H412zm8.7 1.1c-1.2 0-2-.7-2-1.8 0-1 .8-1.7 2.2-1.8l1.7-.1v-.5c0-.7-.5-1.2-1.3-1.2s-1.3.4-1.4.9v.1h-1v-.1c.1-1 1-1.8 2.4-1.8s2.3.8 2.3 2v4.2h-1v-1c-.4.6-1.1 1.1-1.9 1.1m-1-1.9c0 .6.5 1 1.2 1 1 0 1.7-.7 1.7-1.5v-.5l-1.6.1c-.8 0-1.3.4-1.3.9m5.3 1.8v-8.5h1v5l2.7-2.7h1.2l-2.6 2.6 2.7 3.5h-1.2l-2.3-2.8-.6.5v2.3h-.9zm7.5.1c-1.2 0-2-.7-2-1.8 0-1 .8-1.7 2.2-1.8l1.7-.1v-.5c0-.7-.5-1.2-1.3-1.2s-1.3.4-1.4.9v.1h-1v-.1c.1-1 1-1.8 2.4-1.8s2.3.8 2.3 2v4.2h-1v-1c-.3.6-1 1.1-1.9 1.1m-.9-1.9c0 .6.5 1 1.2 1 1 0 1.7-.7 1.7-1.5v-.5l-1.6.1c-.9 0-1.3.4-1.3.9m5.2 1.8v-6.1h1v1c.2-.7.7-1.1 1.4-1.1h.4v1c-.1 0-.3-.1-.5-.1-.8 0-1.3.6-1.3 1.5v3.8z" class="st1"/><path d="M236.5 406.6h48c8.3 0 15 6.7 15 15s-6.7 15-15 15h-48c-8.3 0-15-6.7-15-15s6.7-15 15-15" class="st0"/><path d="M233.1 425.7c-1.8 0-3.1-.9-3.2-2.3v-.1h1.1v.1c.1.8.9 1.4 2.2 1.4 1.2 0 2-.6 2-1.4 0-.7-.5-1.2-1.6-1.4l-.9-.2c-1.7-.4-2.4-1.1-2.4-2.3 0-1.4 1.2-2.4 3-2.4 1.7 0 2.9 1 3 2.3v.1H235v-.1c-.1-.9-.8-1.4-1.9-1.4s-1.9.5-1.9 1.4c0 .7.5 1.1 1.6 1.4l.9.2c1.7.4 2.5 1.1 2.5 2.4 0 1.4-1.2 2.3-3.1 2.3m6 0c-1.2 0-2-.7-2-1.8 0-1 .8-1.7 2.2-1.8l1.7-.1v-.5c0-.7-.5-1.2-1.3-1.2s-1.3.4-1.4.9v.1h-1v-.1c.1-1 1-1.8 2.4-1.8s2.3.8 2.3 2v4.2h-1v-1c-.4.6-1.1 1.1-1.9 1.1m-1-1.9c0 .6.5 1 1.2 1 1 0 1.7-.7 1.7-1.5v-.5l-1.6.1c-.8 0-1.3.4-1.3.9m7.8 1.9c-1.7 0-2.8-1.2-2.8-3.2 0-1.9 1.1-3.2 2.8-3.2 1.5 0 2.4 1 2.5 2h-1c-.2-.6-.6-1.1-1.5-1.1-1.1 0-1.8.9-1.8 2.3s.7 2.3 1.8 2.3c.8 0 1.4-.5 1.5-1.1h1c-.2 1.1-1.2 2-2.5 2m3.4-.1v-6.1h1v1c.2-.7.7-1.1 1.4-1.1h.4v1c-.1 0-.3-.1-.5-.1-.8 0-1.3.6-1.3 1.5v3.8zm6.2-6.8h-.8l1-1.8h1.1zm-.2 6.9c-1.8 0-2.8-1.2-2.8-3.1s1.1-3.2 2.7-3.2 2.7 1.2 2.7 3.1v.4h-4.4c0 1.3.7 2 1.8 2 .8 0 1.3-.4 1.5-.9v-.1h1v.1c-.2.9-1.2 1.7-2.5 1.7m-.1-5.4c-.9 0-1.6.6-1.7 1.7h3.3c-.1-1.2-.7-1.7-1.6-1.7m9.9 5.4c-2.4 0-3.9-1.7-3.9-4.4s1.5-4.4 3.9-4.4c1.8 0 3.1 1.1 3.4 2.7v.1h-1.1v-.1c-.3-1-1.2-1.6-2.3-1.6-1.7 0-2.8 1.3-2.8 3.4s1.1 3.4 2.8 3.4c1.2 0 2-.6 2.4-1.7v-.1h1.1v.1c-.4 1.6-1.8 2.6-3.5 2.6m7 0c-1.7 0-2.8-1.2-2.8-3.2 0-1.9 1.1-3.2 2.8-3.2s2.8 1.2 2.8 3.2-1.1 3.2-2.8 3.2m0-.9c1.1 0 1.8-.8 1.8-2.3 0-1.4-.7-2.2-1.8-2.2s-1.8.8-1.8 2.2.8 2.3 1.8 2.3m6.4.9c-1.8 0-2.8-1.2-2.8-3.1s1.1-3.2 2.7-3.2 2.7 1.2 2.7 3.1v.4h-4.4c0 1.3.7 2 1.8 2 .8 0 1.3-.4 1.5-.9v-.1h1v.1c-.2.9-1.2 1.7-2.5 1.7m-.1-5.4c-.9 0-1.6.6-1.7 1.7h3.3c0-1.2-.7-1.7-1.6-1.7m5.8 5.4c-1.3 0-2.1-.9-2.1-2.3v-4h1v3.8c0 1 .5 1.5 1.4 1.5 1 0 1.6-.7 1.6-1.7v-3.6h1v6.1h-1v-.9c-.3.7-1 1.1-1.9 1.1m4.3-.1v-6.1h1v1c.2-.7.7-1.1 1.4-1.1h.4v1c-.1 0-.3-.1-.5-.1-.8 0-1.3.6-1.3 1.5v3.8z" class="st1"/><path d="M450.2 268.5h58c8.3 0 15 6.7 15 15s-6.7 15-15 15h-58c-8.3 0-15-6.7-15-15s6.8-15 15-15" class="st0"/><path d="M448.4 287.7c-2.4 0-3.9-1.7-3.9-4.4 0-2.6 1.5-4.3 3.9-4.3 1.9 0 3.1 1.1 3.5 2.6v.1h-1.1v-.1c-.4-1.1-1.2-1.7-2.4-1.7-1.7 0-2.8 1.3-2.8 3.3 0 2.1 1.1 3.4 2.8 3.4 1.5 0 2.5-1 2.5-2.4v-.2h-2.4v-.9h3.4v.8c0 2.4-1.3 3.8-3.5 3.8m4.7-.2v-6.1h1v1c.2-.7.7-1.1 1.4-1.1h.4v1c-.1 0-.3-.1-.5-.1-.8 0-1.3.6-1.3 1.5v3.8zm5.4.1c-1.2 0-2-.7-2-1.8 0-1 .8-1.7 2.2-1.8l1.7-.1v-.5c0-.7-.5-1.2-1.3-1.2s-1.3.4-1.4.9v.1h-1v-.1c.1-1 1-1.8 2.4-1.8s2.3.8 2.3 2v4.2h-1v-1c-.3.7-1.1 1.1-1.9 1.1m-1-1.8c0 .6.5 1 1.2 1 1 0 1.7-.7 1.7-1.5v-.5l-1.6.1c-.8 0-1.3.3-1.3.9m5.3 1.7v-6.1h1v.9c.3-.6.9-1 1.9-1 1.3 0 2.1.9 2.1 2.3v4h-1v-3.8c0-1-.5-1.5-1.4-1.5-1 0-1.6.7-1.6 1.7v3.6h-1zm8.6.1c-1.6 0-2.6-1.2-2.6-3.2 0-1.9 1-3.2 2.6-3.2.9 0 1.6.4 2 1.1v-3.4h1v8.5h-1v-1c-.5.8-1.2 1.2-2 1.2m.2-.9c1 0 1.8-.9 1.8-2.3s-.7-2.3-1.8-2.3-1.7.9-1.7 2.3c-.1 1.5.6 2.3 1.7 2.3m6.7.8V279h1.2l2.9 7.1 2.9-7.1h1.2v8.5h-1V281l-2.7 6.5h-.9l-2.7-6.5v6.5zm12.4.1c-1.8 0-2.8-1.2-2.8-3.1s1.1-3.2 2.7-3.2 2.7 1.2 2.7 3.1v.4h-4.4c0 1.3.7 2 1.8 2 .8 0 1.3-.4 1.5-.9v-.1h1v.1c-.2.9-1.2 1.7-2.5 1.7m-.1-5.4c-.9 0-1.6.6-1.7 1.7h3.3c-.1-1.1-.7-1.7-1.6-1.7m6 5.4c-1.6 0-2.6-1.2-2.6-3.2 0-1.9 1-3.2 2.6-3.2.9 0 1.6.4 2 1.1v-3.4h1v8.5h-1v-1c-.4.8-1.1 1.2-2 1.2m.2-.9c1 0 1.8-.9 1.8-2.3s-.7-2.3-1.8-2.3-1.7.9-1.7 2.3c0 1.5.6 2.3 1.7 2.3m4.7-6.3c-.4 0-.6-.3-.6-.6 0-.4.3-.6.6-.6.4 0 .6.3.6.6.1.3-.2.6-.6.6m-.5 7.1v-6.1h1v6.1zm2.4 0v-6.1h1v.9c.3-.6.9-1 1.9-1 1.3 0 2.1.9 2.1 2.3v4h-1v-3.8c0-1-.5-1.5-1.4-1.5-1 0-1.6.7-1.6 1.7v3.6h-1zm8.9.1c-1.8 0-2.8-1.2-2.8-3.1s1.1-3.2 2.7-3.2c1.7 0 2.7 1.2 2.7 3.1v.4h-4.4c0 1.3.7 2 1.8 2 .8 0 1.3-.4 1.5-.9v-.1h1v.1c-.2.9-1.2 1.7-2.5 1.7m-.1-5.4c-.9 0-1.6.6-1.7 1.7h3.3c-.1-1.1-.7-1.7-1.6-1.7" class="st1"/><path d="M529.5 146.5h36c8.3 0 15 6.7 15 15s-6.7 15-15 15h-36c-8.3 0-15-6.7-15-15s6.7-15 15-15" class="st0"/><path d="M524.3 165.5V157h2.8c2.5 0 4 1.6 4 4.2 0 2.7-1.5 4.2-4 4.2h-2.8zm1-.9h1.7c1.9 0 3-1.2 3-3.3s-1.1-3.3-3-3.3h-1.7zm8.7 1c-1.2 0-2-.7-2-1.8 0-1 .8-1.7 2.2-1.8l1.7-.1v-.5c0-.7-.5-1.2-1.3-1.2s-1.3.4-1.4.9v.1h-1v-.1c.1-1 1-1.8 2.4-1.8s2.3.8 2.3 2v4.2h-1v-1c-.3.7-1 1.1-1.9 1.1m-.9-1.8c0 .6.5 1 1.2 1 1 0 1.7-.7 1.7-1.5v-.5l-1.6.1c-.9-.1-1.3.3-1.3.9m5.2 1.7V157h1v8.5zm4.2.1c-1.2 0-2-.7-2-1.8 0-1 .8-1.7 2.2-1.8l1.7-.1v-.5c0-.7-.5-1.2-1.3-1.2s-1.3.4-1.4.9v.1h-1v-.1c.1-1 1-1.8 2.4-1.8s2.3.8 2.3 2v4.2h-1v-1c-.3.7-1.1 1.1-1.9 1.1m-1-1.8c0 .6.5 1 1.2 1 1 0 1.7-.7 1.7-1.5v-.5l-1.6.1c-.8-.1-1.3.3-1.3.9m5.3 1.7V157h1v8.5zm6.8.1c-1.5 0-2.3-.9-2.4-2.1v-.1h1.1v.1c.1.6.5 1.2 1.3 1.2.9 0 1.4-.6 1.4-1.6v-6h1.1v6c0 1.6-.9 2.5-2.5 2.5m5.7 0c-1.2 0-2-.7-2-1.8 0-1 .8-1.7 2.2-1.8l1.7-.1v-.5c0-.7-.5-1.2-1.3-1.2s-1.3.4-1.4.9v.1h-1v-.1c.1-1 1-1.8 2.4-1.8s2.3.8 2.3 2v4.2h-1v-1c-.4.7-1.1 1.1-1.9 1.1m-1-1.8c0 .6.5 1 1.2 1 1 0 1.7-.7 1.7-1.5v-.5l-1.6.1c-.8-.1-1.3.3-1.3.9m5.2 1.7v-6.1h1v.9c.3-.6.9-1 1.7-1s1.4.4 1.7 1.2c.3-.7 1.1-1.2 1.9-1.2 1.2 0 2 .8 2 2v4.2h-1v-4c0-.8-.5-1.3-1.3-1.3s-1.4.6-1.4 1.4v3.9h-1v-4.1c0-.7-.5-1.2-1.2-1.2-.8 0-1.4.6-1.4 1.5v3.8z" class="st1"/><path d="M724.9 162.8h118c8.3 0 15 6.7 15 15s-6.7 15-15 15h-118c-8.3 0-15-6.7-15-15s6.7-15 15-15" class="st0"/><path d="M719.4 181.8v-8.5h3c1.6 0 2.7 1.1 2.7 2.7s-1.1 2.7-2.7 2.7h-2v3h-1zm2.7-7.5h-1.7v3.6h1.7c1.2 0 1.9-.7 1.9-1.8 0-1.2-.7-1.8-1.9-1.8m4.1 7.5v-6.1h1v1c.2-.7.7-1.1 1.4-1.1h.4v1c-.1 0-.3-.1-.5-.1-.8 0-1.3.5-1.3 1.5v3.8zm6.1-6.8h-.8l1-1.8h1.1zm-.2 6.9c-1.8 0-2.8-1.2-2.8-3.1s1.1-3.2 2.7-3.2c1.7 0 2.7 1.2 2.7 3.1v.4h-4.4c0 1.3.7 2 1.8 2 .8 0 1.3-.4 1.5-.9v-.1h1v.1c-.2.9-1.2 1.7-2.5 1.7m-.1-5.4c-.9 0-1.6.6-1.7 1.7h3.3c0-1.2-.7-1.7-1.6-1.7m4.1 5.3v-5.2h-.9v-.8h.9v-.8c0-1.2.5-1.7 1.7-1.7h.6v.8h-.4c-.6 0-.8.3-.8.9v.7h1.3v.8h-1.2v5.2h-1.2zm5.2.1c-1.8 0-2.8-1.2-2.8-3.1s1.1-3.2 2.7-3.2c1.7 0 2.7 1.2 2.7 3.1v.4h-4.4c0 1.3.7 2 1.8 2 .8 0 1.3-.4 1.5-.9v-.1h1v.1c-.2.9-1.2 1.7-2.5 1.7m-.1-5.4c-.9 0-1.6.6-1.7 1.7h3.3c0-1.2-.7-1.7-1.6-1.7m6.3 5.4c-1.7 0-2.8-1.2-2.8-3.2 0-1.9 1.1-3.2 2.8-3.2 1.5 0 2.4 1 2.5 2.1h-1c-.2-.6-.6-1.1-1.5-1.1-1.1 0-1.8.9-1.8 2.3s.7 2.3 1.8 2.3c.8 0 1.4-.5 1.5-1.1h1c-.2 1-1.2 1.9-2.5 1.9m5.4 0c-1.1 0-1.7-.5-1.7-1.7v-3.7h-.9v-.8h.9V174h1.1v1.6h1.2v.8h-1.2v3.7c0 .7.3.8.8.8h.3v.8c-.1.2-.3.2-.5.2m3.8 0c-1.3 0-2.1-.9-2.1-2.3v-4h1v3.8c0 1 .5 1.5 1.4 1.5 1 0 1.6-.7 1.6-1.7v-3.6h1v6.1h-1v-.9c-.4.7-1 1.1-1.9 1.1m4.2-.1v-6.1h1v1c.2-.7.7-1.1 1.4-1.1h.4v1c-.1 0-.3-.1-.5-.1-.8 0-1.3.5-1.3 1.5v3.8zm5.9.1c-1.8 0-2.8-1.2-2.8-3.1s1.1-3.2 2.7-3.2 2.7 1.2 2.7 3.1v.4H765c0 1.3.7 2 1.8 2 .8 0 1.3-.4 1.5-.9v-.1h1v.1c-.2.9-1.2 1.7-2.5 1.7m-.1-5.4c-.9 0-1.6.6-1.7 1.7h3.3c0-1.2-.7-1.7-1.6-1.7m8.5 5.4c-1.6 0-2.6-1.2-2.6-3.2 0-1.9 1-3.2 2.6-3.2.9 0 1.6.4 2 1.1v-3.4h1v8.5h-1v-1c-.4.8-1.1 1.2-2 1.2m.2-.9c1 0 1.8-.9 1.8-2.3s-.7-2.3-1.8-2.3-1.7.9-1.7 2.3.6 2.3 1.7 2.3m6.7.9c-1.8 0-2.8-1.2-2.8-3.1s1.1-3.2 2.7-3.2 2.7 1.2 2.7 3.1v.4h-4.4c0 1.3.7 2 1.8 2 .8 0 1.3-.4 1.5-.9v-.1h1v.1c-.2.9-1.2 1.7-2.5 1.7m-.1-5.4c-.9 0-1.6.6-1.7 1.7h3.3c0-1.2-.7-1.7-1.6-1.7m9.9 5.4c-2.4 0-3.9-1.7-3.9-4.4 0-2.6 1.5-4.3 3.9-4.3 1.9 0 3.1 1.1 3.5 2.6v.1h-1.1v-.1c-.4-1.1-1.2-1.7-2.4-1.7-1.7 0-2.8 1.3-2.8 3.3 0 2.1 1.1 3.4 2.8 3.4 1.5 0 2.5-1 2.5-2.4v-.2H792v-.9h3.4v.8c.1 2.5-1.3 3.8-3.5 3.8m6.8 0c-1.3 0-2.1-.9-2.1-2.3v-4h1v3.8c0 1 .5 1.5 1.4 1.5 1 0 1.6-.7 1.6-1.7v-3.6h1v6.1h-1v-.9c-.3.7-.9 1.1-1.9 1.1m7.1-6.9h-.8l1-1.8h1.1zm-.3 6.9c-1.8 0-2.8-1.2-2.8-3.1s1.1-3.2 2.7-3.2c1.7 0 2.7 1.2 2.7 3.1v.4h-4.4c0 1.3.7 2 1.8 2 .8 0 1.3-.4 1.5-.9v-.1h1v.1c-.2.9-1.2 1.7-2.5 1.7m-.1-5.4c-.9 0-1.6.6-1.7 1.7h3.3c0-1.2-.7-1.7-1.6-1.7m6 5.4c-1.6 0-2.6-1.2-2.6-3.2 0-1.9 1-3.2 2.6-3.2.9 0 1.6.4 2 1.1v-3.4h1v8.5h-1v-1c-.4.8-1.1 1.2-2 1.2m.2-.9c1 0 1.8-.9 1.8-2.3s-.7-2.3-1.8-2.3-1.7.9-1.7 2.3.7 2.3 1.7 2.3m4.8-6.3c-.4 0-.6-.3-.6-.6 0-.4.3-.6.6-.6.4 0 .6.3.6.6s-.3.6-.6.6m-.5 7.1v-6.1h1v6.1zm4.1.1c-1.2 0-2-.7-2-1.8 0-1 .8-1.7 2.2-1.8l1.7-.1v-.5c0-.7-.5-1.2-1.3-1.2s-1.3.4-1.4.9v.1h-1v-.1c.1-1 1-1.8 2.4-1.8s2.3.8 2.3 2v4.2h-1v-1c-.3.7-1 1.1-1.9 1.1m-.9-1.8c0 .6.5 1 1.2 1 1 0 1.7-.7 1.7-1.5v-.6l-1.6.1c-.9 0-1.3.4-1.3 1m6.4 1.7-1.7-6.1h1l1.2 5 1.4-5h1l1.4 5 1.2-5h1l-1.7 6.1h-1l-1.4-4.7-1.4 4.7zm9 .1c-1.2 0-2-.7-2-1.8 0-1 .8-1.7 2.2-1.8l1.7-.1v-.5c0-.7-.5-1.2-1.3-1.2s-1.3.4-1.4.9v.1h-1v-.1c.1-1 1-1.8 2.4-1.8s2.3.8 2.3 2v4.2h-1v-1c-.3.7-1 1.1-1.9 1.1m-.9-1.8c0 .6.5 1 1.2 1 1 0 1.7-.7 1.7-1.5v-.6l-1.6.1c-.9 0-1.3.4-1.3 1m5.8 3.7h-.5v-.8h.3c.6 0 1-.2 1.2-.9l.1-.3-2.3-6.1h1.1l1.7 5.1 1.7-5.1h1.1l-2.4 6.5c-.4 1.1-.9 1.6-2 1.6m7.5-1.9c-1.8 0-2.8-1.2-2.8-3.1s1.1-3.2 2.7-3.2 2.7 1.2 2.7 3.1v.4h-4.4c0 1.3.7 2 1.8 2 .8 0 1.3-.4 1.5-.9v-.1h1v.1c-.2.9-1.2 1.7-2.5 1.7m-.1-5.4c-.9 0-1.6.6-1.7 1.7h3.3c0-1.2-.7-1.7-1.6-1.7" class="st1"/><path d="M425.6 616.9s-9.4-7.4-13-28.3c-2.9-17-9.5-36.3-11.8-42.8-.5-1.5-1.3-2.9-2.3-4.2l-79.1-101.9c-2.3-2.9-3.4-6.5-3.4-10.2l.2-9.1c.1-3.9 1.6-7.6 4.2-10.5l36.3-39.3c2-2.2 3.4-4.9 4-7.8l5.1-26.5c.2-1.1.6-2.2 1.1-3.3 2.7-5.7 12.7-25.2 26.5-33 16.2-9.2 22.8-17.9 23.7-21.9s14.8-15.7 30-18.5c12.6-2.4 32.7-16.6 39.2-21.5 1.4-1.1 3-1.9 4.7-2.5l.4-.1c3.8-1.3 7-4 8.9-7.5l9.2-16.9c1.3-2.4 3.3-4.5 5.7-5.9 5.9-3.3 17.7-9.4 24.6-9.2 9 .2 30.4-14.2 32.9-15.9.2-.1.3-.2.5-.3 2.3-1.5 19.3-12.3 20.9-13.8 1.6-1.6 3.4-7.9 1.9-12s-4.6-8.9-2.2-9.7c2.4-.7 36 1.6 45.7-3.8s24.9-4.2 33.5 3.9c8.6 8.2 21.2 16.5 21.2 16.5" style="fill:none;stroke:#f77c14;stroke-width:4;stroke-miterlimit:10"/><path d="M423.4 621.2c2.8.1 5.2-2.2 5.2-5 .1-2.8-2.2-5.2-5-5.2-2.8-.1-5.2 2.2-5.2 5s2.2 5.1 5 5.2" class="st1"/><path d="M423.4 622.8c-3.7-.1-6.6-3.2-6.5-6.8.1-3.7 3.2-6.6 6.8-6.6 3.7.1 6.6 3.2 6.5 6.8 0 3.7-3.1 6.7-6.8 6.6m.2-10.3c-2 0-3.6 1.5-3.6 3.5s1.5 3.6 3.5 3.6 3.6-1.5 3.6-3.5-1.5-3.5-3.5-3.6" class="st0"/><path d="M694.6 166.7c2.8.1 5.2-2.2 5.2-5 .1-2.8-2.2-5.2-5-5.2-2.8-.1-5.2 2.2-5.2 5-.1 2.8 2.1 5.1 5 5.2" class="st1"/><path d="M694.5 168.3c-3.7-.1-6.6-3.2-6.6-6.8.1-3.7 3.2-6.6 6.8-6.6s6.6 3.2 6.5 6.8c.1 3.7-3 6.7-6.7 6.6m.2-10.3c-2 0-3.6 1.5-3.6 3.5s1.5 3.6 3.5 3.6 3.6-1.5 3.6-3.5c.1-1.9-1.5-3.5-3.5-3.6" class="st0"/><path d="M595.9 167.9c2.8.1 5.2-2.2 5.2-5 .1-2.8-2.2-5.2-5-5.2-2.8-.1-5.2 2.2-5.2 5-.1 2.8 2.2 5.1 5 5.2" class="st1"/><path d="M595.9 169.5c-3.7-.1-6.6-3.2-6.5-6.8.1-3.7 3.2-6.6 6.8-6.6 3.7.1 6.6 3.2 6.5 6.8-.1 3.7-3.1 6.7-6.8 6.6m.2-10.3c-2 0-3.6 1.5-3.6 3.5s1.5 3.6 3.5 3.6 3.6-1.5 3.6-3.5c0-1.9-1.6-3.5-3.5-3.6" class="st0"/><path d="M420.1 279c2.8.1 5.2-2.2 5.2-5 .1-2.8-2.2-5.2-5-5.2-2.8-.1-5.2 2.2-5.2 5s2.2 5.1 5 5.2" class="st1"/><path d="M420.1 280.5c-3.7-.1-6.6-3.2-6.5-6.8s3.2-6.6 6.8-6.6c3.7.1 6.6 3.2 6.5 6.8 0 3.8-3.1 6.7-6.8 6.6m.2-10.2c-2 0-3.6 1.5-3.6 3.5s1.5 3.6 3.5 3.6 3.6-1.5 3.6-3.5c0-1.9-1.5-3.6-3.5-3.6" class="st0"/><path d="M316.4 426.7c2.8.1 5.2-2.2 5.2-5 .1-2.8-2.2-5.2-5-5.2-2.8-.1-5.2 2.2-5.2 5-.1 2.8 2.2 5.1 5 5.2" class="st1"/><path d="M316.4 428.3c-3.7-.1-6.6-3.2-6.5-6.8.1-3.7 3.2-6.6 6.8-6.6 3.7.1 6.6 3.2 6.6 6.8-.2 3.7-3.3 6.6-6.9 6.6m.2-10.3c-2 0-3.6 1.5-3.6 3.5s1.5 3.6 3.5 3.6 3.6-1.5 3.6-3.5c0-1.9-1.6-3.5-3.5-3.6" class="st0"/><path d="M352.5 486.7c2.8.1 5.2-2.2 5.2-5 .1-2.8-2.2-5.2-5-5.2-2.8-.1-5.2 2.2-5.2 5s2.2 5.1 5 5.2" class="st1"/><path d="M352.5 488.3c-3.7-.1-6.6-3.2-6.5-6.8.1-3.7 3.2-6.6 6.8-6.6 3.7.1 6.6 3.2 6.6 6.8s-3.2 6.6-6.9 6.6m.2-10.3c-2 0-3.6 1.5-3.6 3.5s1.5 3.6 3.5 3.6 3.6-1.5 3.6-3.5-1.5-3.5-3.5-3.6" class="st0"/><path d="M386.4 531.2c2.8.1 5.2-2.2 5.2-5 .1-2.8-2.2-5.2-5-5.2-2.8-.1-5.2 2.2-5.2 5-.1 2.8 2.1 5.1 5 5.2" class="st1"/><path d="M386.3 532.8c-3.7-.1-6.6-3.2-6.5-6.8.1-3.7 3.2-6.6 6.8-6.6 3.7.1 6.6 3.2 6.5 6.8 0 3.7-3.1 6.6-6.8 6.6m.2-10.3c-2 0-3.6 1.5-3.6 3.5s1.5 3.6 3.5 3.6 3.6-1.5 3.6-3.5-1.5-3.5-3.5-3.6" class="st0"/></svg>