<svg xmlns="http://www.w3.org/2000/svg" width="996" height="782" fill="none" viewBox="0 0 996 782"><path fill="#0949cc" d="M519.375 600.58h-66c-8.284 0-15 6.716-15 15s6.716 15 15 15h66c8.284 0 15-6.716 15-15s-6.716-15-15-15"/><path fill="#fff" d="M447.883 619.58v-8.455h3.012c1.587 0 2.712 1.096 2.712 2.701v.012c0 1.605-1.125 2.724-2.712 2.724h-1.957v3.018zm2.742-7.518h-1.687v3.563h1.687c1.207 0 1.904-.662 1.904-1.775v-.012c0-1.113-.697-1.776-1.904-1.776m5.291 7.635c-1.213 0-2.027-.732-2.027-1.84v-.011c0-1.037.808-1.688 2.209-1.77l1.746-.099v-.51c0-.744-.487-1.196-1.336-1.196-.785 0-1.277.375-1.395.92l-.011.053h-.985l.006-.064c.088-1.002.961-1.811 2.397-1.811 1.441 0 2.343.779 2.343 1.998v4.213h-1.019v-.99h-.024c-.357.668-1.089 1.107-1.904 1.107m-.984-1.84c0 .586.48.955 1.213.955.961 0 1.699-.662 1.699-1.546v-.498l-1.629.099c-.815.047-1.283.41-1.283.979zm5.226 3.774v-8.145h1.02v1.032h.023c.381-.709 1.061-1.149 1.934-1.149 1.558 0 2.59 1.242 2.59 3.164v.006c0 1.922-1.043 3.158-2.573 3.158-.861 0-1.57-.433-1.951-1.136h-.023v3.07zm2.778-2.836c1.078 0 1.746-.867 1.746-2.256v-.006c0-1.4-.668-2.262-1.746-2.262-1.032 0-1.764.897-1.764 2.262v.006c0 1.359.738 2.256 1.764 2.256m5.601.902c-1.213 0-2.027-.732-2.027-1.84v-.011c0-1.037.808-1.688 2.209-1.77l1.746-.099v-.51c0-.744-.486-1.196-1.336-1.196-.785 0-1.277.375-1.395.92l-.011.053h-.985l.006-.064c.088-1.002.961-1.811 2.397-1.811 1.441 0 2.343.779 2.343 1.998v4.213h-1.019v-.99h-.024c-.357.668-1.089 1.107-1.904 1.107m-.984-1.84c0 .586.48.955 1.213.955.961 0 1.699-.662 1.699-1.546v-.498l-1.629.099c-.814.047-1.283.41-1.283.979zm11.39 1.864c-2.361 0-3.873-1.717-3.873-4.412v-.006c0-2.643 1.512-4.319 3.873-4.319 1.946 0 3.112 1.12 3.504 2.614l.03.111h-1.108l-.023-.064c-.393-1.073-1.213-1.688-2.403-1.688-1.74 0-2.795 1.26-2.795 3.346v.006c0 2.127 1.073 3.439 2.795 3.439 1.5 0 2.532-.973 2.532-2.391v-.152h-2.385v-.926h3.439v.803c0 2.285-1.33 3.639-3.586 3.639m6.862-.024c-1.336 0-2.11-.867-2.11-2.256v-3.955h1.02v3.774c0 .99.463 1.535 1.4 1.535.961 0 1.588-.686 1.588-1.723v-3.586h1.02v6.094h-1.02v-.867h-.023c-.328.568-.949.984-1.875.984m6.756 0c-1.752 0-2.807-1.224-2.807-3.14v-.006c0-1.887 1.078-3.182 2.742-3.182s2.678 1.236 2.678 3.065v.375h-4.389c.024 1.253.715 1.986 1.799 1.986.773 0 1.318-.387 1.494-.908l.018-.053h1.002l-.012.059c-.199 1.007-1.195 1.804-2.525 1.804m-.071-5.426c-.884 0-1.576.604-1.687 1.741h3.334c-.1-1.184-.756-1.741-1.647-1.741m4.067 7.36c-.2 0-.416-.024-.545-.047v-.832c.088.018.205.035.328.035.644 0 1.002-.164 1.248-.855l.123-.346-2.262-6.1h1.09l1.682 5.075h.023l1.688-5.075h1.072l-2.379 6.475c-.434 1.166-.967 1.67-2.068 1.67m7.523-1.934c-1.752 0-2.807-1.224-2.807-3.14v-.006c0-1.887 1.079-3.182 2.743-3.182s2.677 1.236 2.677 3.065v.375h-4.388c.023 1.253.715 1.986 1.799 1.986.773 0 1.318-.387 1.494-.908l.017-.053h1.002l-.011.059c-.2 1.007-1.196 1.804-2.526 1.804m-.07-5.426c-.885 0-1.576.604-1.688 1.741h3.334c-.099-1.184-.756-1.741-1.646-1.741m6.334 5.309v-8.455h5.133v.949h-4.079v2.906h3.745v.938h-3.745v3.662zm7.553.117c-1.213 0-2.028-.732-2.028-1.84v-.011c0-1.037.809-1.688 2.209-1.77l1.746-.099v-.51c0-.744-.486-1.196-1.336-1.196-.785 0-1.277.375-1.394.92l-.012.053h-.984l.006-.064c.087-1.002.961-1.811 2.396-1.811 1.441 0 2.344.779 2.344 1.998v4.213h-1.02v-.99h-.023c-.358.668-1.09 1.107-1.904 1.107m-.985-1.84c0 .586.481.955 1.213.955.961 0 1.699-.662 1.699-1.546v-.498l-1.629.099c-.814.047-1.283.41-1.283.979zm5.279 1.723v-8.455h1.02v8.455zm2.45 0v-8.455h1.019v8.455z"/><path fill="#0949cc" d="M490.147 510.648h-74c-8.284 0-15 6.716-15 15 0 8.285 6.716 15 15 15h74c8.284 0 15-6.715 15-15s-6.716-15-15-15"/><path fill="#fff" d="M409.968 529.648v-8.455h3.011c1.588 0 2.713 1.096 2.713 2.701v.012c0 1.606-1.125 2.725-2.713 2.725h-1.957v3.017zm2.742-7.517h-1.688v3.562h1.688c1.207 0 1.904-.662 1.904-1.775v-.012c0-1.113-.697-1.775-1.904-1.775m4.09 7.517v-8.455h1.019v8.455zm4.177.118c-1.212 0-2.027-.733-2.027-1.84v-.012c0-1.037.809-1.688 2.209-1.77l1.746-.099v-.51c0-.744-.486-1.195-1.336-1.195-.785 0-1.277.375-1.394.92l-.012.052h-.984l.005-.064c.088-1.002.961-1.811 2.397-1.811 1.441 0 2.344.78 2.344 1.998v4.213h-1.02v-.99h-.023c-.358.668-1.09 1.108-1.905 1.108m-.984-1.84c0 .586.481.955 1.213.955.961 0 1.699-.662 1.699-1.547v-.498l-1.629.099c-.814.047-1.283.411-1.283.979zm7.752 1.84c-1.729 0-2.824-1.231-2.824-3.17v-.006c0-1.922 1.119-3.153 2.812-3.153 1.518 0 2.414 1.008 2.543 2.051l.006.047h-.996l-.012-.047c-.152-.609-.644-1.148-1.541-1.148-1.06 0-1.769.879-1.769 2.261v.006c0 1.418.726 2.256 1.781 2.256.832 0 1.365-.469 1.535-1.148l.012-.047h1.002l-.006.041c-.164 1.16-1.166 2.057-2.543 2.057m5.994 0c-1.752 0-2.807-1.225-2.807-3.141v-.006c0-1.887 1.079-3.182 2.743-3.182s2.677 1.237 2.677 3.065v.375h-4.388c.023 1.254.715 1.986 1.799 1.986.773 0 1.318-.387 1.494-.908l.017-.053h1.002l-.011.059c-.2 1.008-1.196 1.805-2.526 1.805m-.07-5.426c-.885 0-1.576.603-1.688 1.74h3.334c-.099-1.184-.756-1.74-1.646-1.74m8.467 5.426c-1.559 0-2.59-1.243-2.59-3.165v-.005c0-1.922 1.043-3.159 2.572-3.159.861 0 1.57.434 1.951 1.137h.024v-3.381h1.019v8.455h-1.019v-1.031h-.024c-.381.709-1.06 1.149-1.933 1.149m.199-.903c1.031 0 1.764-.896 1.764-2.262v-.005c0-1.36-.739-2.256-1.764-2.256-1.078 0-1.746.867-1.746 2.256v.005c0 1.401.668 2.262 1.746 2.262m6.662.903c-1.752 0-2.807-1.225-2.807-3.141v-.006c0-1.887 1.078-3.182 2.742-3.182 1.665 0 2.678 1.237 2.678 3.065v.375h-4.388c.023 1.254.714 1.986 1.798 1.986.774 0 1.319-.387 1.495-.908l.017-.053h1.002l-.012.059c-.199 1.008-1.195 1.805-2.525 1.805m-.07-5.426c-.885 0-1.577.603-1.688 1.74h3.334c-.099-1.184-.756-1.74-1.646-1.74m6.228 5.308v-8.455h1.02v8.455zm4.178.118c-1.213 0-2.027-.733-2.027-1.84v-.012c0-1.037.808-1.688 2.209-1.77l1.746-.099v-.51c0-.744-.487-1.195-1.336-1.195-.785 0-1.278.375-1.395.92l-.012.052h-.984l.006-.064c.088-1.002.961-1.811 2.396-1.811 1.442 0 2.344.78 2.344 1.998v4.213h-1.019v-.99h-.024c-.357.668-1.09 1.108-1.904 1.108m-.984-1.84c0 .586.48.955 1.212.955.961 0 1.7-.662 1.7-1.547v-.498l-1.629.099c-.815.047-1.283.411-1.283.979zm7.687 1.722v-6.093h1.02v.867h.023c.328-.569.949-.985 1.875-.985 1.336 0 2.109.868 2.109 2.256v3.955h-1.019v-3.773c0-.99-.463-1.535-1.401-1.535-.961 0-1.587.685-1.587 1.722v3.586zm8.109.118c-1.213 0-2.027-.733-2.027-1.84v-.012c0-1.037.809-1.688 2.209-1.77l1.746-.099v-.51c0-.744-.486-1.195-1.336-1.195-.785 0-1.277.375-1.394.92l-.012.052h-.984l.005-.064c.088-1.002.961-1.811 2.397-1.811 1.441 0 2.344.78 2.344 1.998v4.213h-1.02v-.99h-.023c-.358.668-1.09 1.108-1.905 1.108m-.984-1.84c0 .586.48.955 1.213.955.961 0 1.699-.662 1.699-1.547v-.498l-1.629.099c-.814.047-1.283.411-1.283.979zm7.207 1.84c-1.119 0-1.67-.504-1.67-1.67v-3.698h-.891v-.843h.891v-1.647h1.055v1.647h1.16v.843h-1.16v3.692c0 .65.287.832.832.832.123 0 .24-.018.328-.024v.826a4 4 0 0 1-.545.042m2.215-7.243a.64.64 0 0 1-.639-.638c0-.358.287-.639.639-.639.357 0 .639.281.639.639a.637.637 0 0 1-.639.638m-.51 7.125v-6.093h1.02v6.093zm4.934.118c-1.694 0-2.825-1.225-2.825-3.165v-.011c0-1.94 1.137-3.153 2.819-3.153s2.824 1.207 2.824 3.153v.011c0 1.946-1.137 3.165-2.818 3.165m.006-.903c1.072 0 1.769-.832 1.769-2.262v-.011c0-1.43-.703-2.25-1.781-2.25-1.061 0-1.776.826-1.776 2.25v.011c0 1.436.709 2.262 1.788 2.262m3.843.785v-6.093h1.02v.867h.023c.328-.569.95-.985 1.875-.985 1.336 0 2.11.868 2.11 2.256v3.955h-1.02v-3.773c0-.99-.463-1.535-1.4-1.535-.961 0-1.588.685-1.588 1.722v3.586z"/><path fill="#0949cc" d="M333.905 327.564h-35c-8.284 0-15 6.716-15 15 0 8.285 6.716 15 15 15h35c8.284 0 15-6.715 15-15s-6.716-15-15-15"/><path fill="#fff" d="M292.741 346.564v-8.455h1.054v4.149h.035l3.586-4.149h1.325l-3.305 3.744 3.615 4.711h-1.348l-3.005-3.949-.903.99v2.959zm7.101 0v-8.455h1.02v3.334h.023c.328-.685.99-1.09 1.899-1.09 1.294 0 2.179 1.002 2.179 2.479v3.732h-1.019v-3.556c0-1.102-.563-1.752-1.512-1.752-.943 0-1.57.715-1.57 1.752v3.556zm8.197.118c-1.212 0-2.027-.733-2.027-1.84v-.012c0-1.037.809-1.687 2.209-1.769l1.746-.1v-.51c0-.744-.486-1.195-1.336-1.195-.785 0-1.277.375-1.394.92l-.012.052h-.984l.005-.064c.088-1.002.961-1.811 2.397-1.811 1.441 0 2.344.78 2.344 1.999v4.212h-1.02v-.99h-.023c-.358.668-1.09 1.108-1.905 1.108m-.984-1.84c0 .586.481.955 1.213.955.961 0 1.699-.662 1.699-1.547v-.498l-1.629.1c-.814.046-1.283.41-1.283.978zm5.227 1.722v-6.093h1.019v1.031h.024c.205-.703.732-1.149 1.418-1.149.175 0 .328.03.41.042v.99c-.082-.03-.299-.059-.545-.059-.791 0-1.307.551-1.307 1.477v3.761zm8.648 0v-3.638l-3-4.817h1.201l2.309 3.797h.035l2.309-3.797h1.201l-3 4.817v3.638zm5.473.118c-1.213 0-2.028-.733-2.028-1.84v-.012c0-1.037.809-1.687 2.209-1.769l1.746-.1v-.51c0-.744-.486-1.195-1.335-1.195-.786 0-1.278.375-1.395.92l-.012.052h-.984l.006-.064c.088-1.002.961-1.811 2.396-1.811 1.442 0 2.344.78 2.344 1.999v4.212h-1.02v-.99h-.023c-.357.668-1.09 1.108-1.904 1.108m-.985-1.84c0 .586.481.955 1.213.955.961 0 1.699-.662 1.699-1.547v-.498l-1.628.1c-.815.046-1.284.41-1.284.978zm5.28 1.722v-8.455h1.019v8.455zm2.449 0v-8.455h1.019v8.455zm4.178.118c-1.213 0-2.028-.733-2.028-1.84v-.012c0-1.037.809-1.687 2.209-1.769l1.746-.1v-.51c0-.744-.486-1.195-1.336-1.195-.785 0-1.277.375-1.394.92l-.012.052h-.984l.006-.064c.088-1.002.961-1.811 2.396-1.811 1.442 0 2.344.78 2.344 1.999v4.212h-1.02v-.99h-.023c-.358.668-1.09 1.108-1.904 1.108m-.985-1.84c0 .586.481.955 1.213.955.961 0 1.699-.662 1.699-1.547v-.498l-1.629.1c-.814.046-1.283.41-1.283.978z"/><path fill="#0949cc" d="M483.236 187.436h-31c-8.284 0-15 6.715-15 15s6.716 15 15 15h31c8.284 0 15-6.716 15-15 0-8.285-6.716-15-15-15"/><path fill="#fff" d="M446.408 206.435v-8.455h3.012c1.588 0 2.713 1.095 2.713 2.701v.012c0 1.605-1.125 2.724-2.713 2.724h-1.957v3.018zm2.742-7.518h-1.687v3.563h1.687c1.207 0 1.905-.662 1.905-1.776v-.011c0-1.114-.698-1.776-1.905-1.776m5.291 7.635c-1.213 0-2.027-.733-2.027-1.84v-.012c0-1.037.808-1.687 2.209-1.769l1.746-.1v-.51c0-.744-.486-1.195-1.336-1.195-.785 0-1.277.375-1.395.92l-.011.053h-.985l.006-.065c.088-1.002.961-1.81 2.397-1.81 1.441 0 2.343.779 2.343 1.998v4.213h-1.019v-.991h-.023c-.358.668-1.09 1.108-1.905 1.108m-.984-1.84c0 .586.48.955 1.213.955.961 0 1.699-.662 1.699-1.547v-.498l-1.629.1c-.814.047-1.283.41-1.283.978zm5.226 1.723v-6.094h1.02v1.031h.023c.205-.703.733-1.148 1.418-1.148.176 0 .328.029.411.041v.99a2 2 0 0 0-.545-.059c-.791 0-1.307.551-1.307 1.477v3.762zm5.936.117c-1.729 0-2.824-1.231-2.824-3.17v-.006c0-1.922 1.119-3.152 2.812-3.152 1.518 0 2.414 1.008 2.543 2.051l.006.046h-.996l-.012-.046c-.152-.61-.644-1.149-1.541-1.149-1.06 0-1.769.879-1.769 2.262v.006c0 1.418.726 2.256 1.781 2.256.832 0 1.365-.469 1.535-1.149l.012-.047h1.002l-.006.041c-.164 1.16-1.166 2.057-2.543 2.057m5.994 0c-1.752 0-2.807-1.225-2.807-3.141v-.006c0-1.886 1.079-3.181 2.743-3.181s2.677 1.236 2.677 3.064v.375h-4.388c.023 1.254.715 1.987 1.799 1.987.773 0 1.318-.387 1.494-.909l.017-.052h1.002l-.012.058c-.199 1.008-1.195 1.805-2.525 1.805m-.07-5.426c-.885 0-1.576.604-1.688 1.74h3.334c-.099-1.183-.756-1.74-1.646-1.74m3.767 5.309v-8.455h1.02v8.455zm2.45 0v-8.455h1.019v8.455zm4.904.117c-1.752 0-2.807-1.225-2.807-3.141v-.006c0-1.886 1.078-3.181 2.742-3.181s2.678 1.236 2.678 3.064v.375h-4.389c.024 1.254.715 1.987 1.799 1.987.774 0 1.319-.387 1.494-.909l.018-.052h1.002l-.012.058c-.199 1.008-1.195 1.805-2.525 1.805m-.07-5.426c-.885 0-1.577.604-1.688 1.74h3.334c-.1-1.183-.756-1.74-1.646-1.74m5.877 5.426c-1.436 0-2.303-.733-2.426-1.822l-.006-.053h1.019l.012.058c.123.61.574.967 1.406.967.827 0 1.319-.345 1.319-.896v-.006c0-.44-.229-.686-.92-.856l-.967-.234c-1.148-.275-1.705-.809-1.705-1.687v-.006c0-1.049.92-1.793 2.238-1.793 1.336 0 2.186.779 2.262 1.799l.006.076h-.973l-.006-.041c-.082-.592-.533-.985-1.289-.985-.738 0-1.195.358-1.195.897v.006c0 .416.275.703.949.867l.967.234c1.23.299 1.676.785 1.676 1.653v.005c0 1.067-1.008 1.817-2.367 1.817"/><path fill="#0949cc" d="M567.245 235.221h-61c-8.284 0-15 6.715-15 15s6.716 15 15 15h61c8.284 0 15-6.716 15-15 0-8.285-6.716-15-15-15"/><path fill="#fff" d="M504.559 254.36c-2.349 0-3.861-1.711-3.861-4.371v-.006c0-2.66 1.506-4.36 3.861-4.36 1.758 0 3.123 1.067 3.446 2.666l.011.059h-1.066l-.041-.129c-.328-1.025-1.16-1.623-2.35-1.623-1.687 0-2.777 1.33-2.777 3.387v.006c0 2.056 1.096 3.398 2.777 3.398 1.184 0 2.004-.586 2.373-1.699l.018-.053h1.066l-.011.059c-.323 1.617-1.676 2.666-3.446 2.666m4.547-.141v-6.094h1.02v1.032h.023c.205-.704.733-1.149 1.418-1.149.176 0 .328.029.41.041v.99a2 2 0 0 0-.545-.058c-.791 0-1.306.551-1.306 1.476v3.762zm5.936.117c-1.694 0-2.824-1.224-2.824-3.164v-.012c0-1.939 1.136-3.152 2.818-3.152s2.824 1.207 2.824 3.152v.012c0 1.946-1.137 3.164-2.818 3.164m.006-.902c1.072 0 1.769-.832 1.769-2.262v-.012c0-1.429-.703-2.25-1.781-2.25-1.061 0-1.776.827-1.776 2.25v.012c0 1.436.709 2.262 1.788 2.262m4.418-6.34a.64.64 0 0 1-.639-.639c0-.357.287-.638.639-.638.357 0 .638.281.638.638a.636.636 0 0 1-.638.639m-.51 7.125v-6.094h1.019v6.094zm4.57.117c-1.435 0-2.303-.732-2.426-1.822l-.006-.053h1.02l.012.059c.123.609.574.967 1.406.967.826 0 1.318-.346 1.318-.897v-.006c0-.439-.228-.685-.92-.855l-.966-.235c-1.149-.275-1.705-.808-1.705-1.687v-.006c0-1.049.919-1.793 2.238-1.793 1.336 0 2.185.779 2.262 1.799l.005.076h-.972l-.006-.041c-.082-.592-.533-.984-1.289-.984-.738 0-1.195.357-1.195.896v.006c0 .416.275.703.949.867l.967.235c1.23.298 1.675.785 1.675 1.652v.006c0 1.066-1.008 1.816-2.367 1.816m5.936 0c-1.752 0-2.807-1.224-2.807-3.14v-.006c0-1.887 1.078-3.182 2.742-3.182s2.678 1.236 2.678 3.065v.375h-4.389c.024 1.254.715 1.986 1.799 1.986.774 0 1.318-.387 1.494-.908l.018-.053h1.002l-.012.059c-.199 1.007-1.195 1.804-2.525 1.804m-.071-5.426c-.884 0-1.576.604-1.687 1.741h3.334c-.1-1.184-.756-1.741-1.647-1.741m3.715 5.309v-6.094h1.02v.891h.023c.276-.604.885-1.008 1.67-1.008.832 0 1.447.428 1.711 1.172h.023c.34-.732 1.055-1.172 1.911-1.172 1.207 0 1.986.791 1.986 2.004v4.207h-1.02v-3.973c0-.837-.462-1.336-1.265-1.336-.809 0-1.377.604-1.377 1.436v3.873h-1.02v-4.084c0-.738-.492-1.225-1.248-1.225-.808 0-1.394.639-1.394 1.489v3.82zm12.153.117c-1.752 0-2.807-1.224-2.807-3.14v-.006c0-1.887 1.078-3.182 2.742-3.182s2.678 1.236 2.678 3.065v.375h-4.389c.024 1.254.715 1.986 1.799 1.986.773 0 1.318-.387 1.494-.908l.018-.053h1.002l-.012.059c-.199 1.007-1.195 1.804-2.525 1.804m-.071-5.426c-.885 0-1.576.604-1.687 1.741h3.334c-.1-1.184-.756-1.741-1.647-1.741m3.715 5.309v-6.094h1.02v.868h.023c.328-.569.949-.985 1.875-.985 1.336 0 2.109.867 2.109 2.256v3.955h-1.019v-3.773c0-.991-.463-1.536-1.401-1.536-.96 0-1.587.686-1.587 1.723v3.586zm8.309.117c-1.119 0-1.67-.504-1.67-1.67v-3.697h-.891v-.844h.891v-1.646h1.054v1.646h1.161v.844h-1.161v3.691c0 .651.288.833.832.833.124 0 .241-.018.329-.024v.826a4 4 0 0 1-.545.041m4.125-.117v-.726l2.976-3.106c1.143-1.189 1.406-1.646 1.406-2.35v-.011c-.005-.862-.656-1.483-1.576-1.483-1.054 0-1.84.727-1.84 1.635v.029h-1.019v-.035c0-1.465 1.266-2.549 2.842-2.549 1.529 0 2.648 1.026 2.648 2.35v.012c0 .925-.428 1.623-1.98 3.211l-2.01 2.062v.024h4.131v.937zm6.797 0v-.726l2.976-3.106c1.143-1.189 1.406-1.646 1.406-2.35v-.011c-.006-.862-.656-1.483-1.576-1.483-1.055 0-1.84.727-1.84 1.635v.029h-1.019v-.035c0-1.465 1.265-2.549 2.842-2.549 1.529 0 2.648 1.026 2.648 2.35v.012c0 .925-.428 1.623-1.98 3.211l-2.01 2.062v.024h4.131v.937z"/><path fill="#0949cc" d="M842.375 162.283h-118c-8.284 0-15 6.716-15 15s6.716 15 15 15h118c8.284 0 15-6.716 15-15s-6.716-15-15-15"/><path fill="#fff" d="M718.887 181.283v-8.455h3.011c1.588 0 2.713 1.095 2.713 2.701v.013c0 1.605-1.125 2.724-2.713 2.724h-1.957v3.017zm2.742-7.517h-1.688v3.562h1.688c1.207 0 1.904-.662 1.904-1.776v-.01c0-1.114-.697-1.776-1.904-1.776m4.037 7.517v-6.094h1.02v1.031h.023c.205-.703.732-1.148 1.418-1.148.176 0 .328.029.41.041v.991a2 2 0 0 0-.545-.058c-.791 0-1.306.549-1.306 1.475v3.762zm6.17-6.791h-.785l1.002-1.758h1.066zm-.252 6.908c-1.752 0-2.807-1.225-2.807-3.141v-.004c0-1.887 1.078-3.183 2.743-3.183s2.677 1.236 2.677 3.064v.375h-4.388c.023 1.254.714 1.987 1.798 1.987.774 0 1.319-.387 1.495-.909l.017-.052h1.002l-.012.058c-.199 1.008-1.195 1.805-2.525 1.805m-.07-5.425c-.885 0-1.576.603-1.688 1.739h3.334c-.099-1.183-.756-1.739-1.646-1.739m4.043 5.308v-5.25h-.85v-.844h.85v-.75c0-1.172.545-1.727 1.67-1.727.228 0 .468.017.621.041v.825a3 3 0 0 0-.44-.024c-.562 0-.844.287-.844.891v.744h1.254v.844h-1.242v5.25zm5.238.117c-1.752 0-2.807-1.225-2.807-3.141v-.004c0-1.887 1.078-3.183 2.742-3.183 1.665 0 2.678 1.236 2.678 3.064v.375h-4.388c.023 1.254.714 1.987 1.798 1.987.774 0 1.319-.387 1.495-.909l.017-.052h1.002l-.012.058c-.199 1.008-1.195 1.805-2.525 1.805m-.07-5.425c-.885 0-1.577.603-1.688 1.739h3.334c-.1-1.183-.756-1.739-1.646-1.739m6.24 5.425c-1.729 0-2.824-1.23-2.824-3.17v-.005c0-1.922 1.119-3.153 2.812-3.153 1.518 0 2.414 1.008 2.543 2.051l.006.048h-.996l-.012-.048c-.152-.61-.644-1.148-1.541-1.148-1.06 0-1.769.878-1.769 2.261v.006c0 1.418.726 2.256 1.781 2.256.832 0 1.365-.468 1.535-1.148l.012-.048h1.002l-.006.041c-.164 1.161-1.166 2.057-2.543 2.057m5.467 0c-1.119 0-1.67-.504-1.67-1.67v-3.697h-.891v-.844h.891v-1.645h1.054v1.645h1.161v.844h-1.161v3.692c0 .651.288.832.832.832.123 0 .241-.018.329-.024v.826a4 4 0 0 1-.545.041m3.72 0c-1.336 0-2.109-.866-2.109-2.255v-3.956h1.02v3.775c0 .99.462 1.534 1.4 1.534.961 0 1.588-.686 1.588-1.723v-3.586h1.019v6.094h-1.019v-.866h-.024c-.328.568-.949.983-1.875.983m4.248-.117v-6.094h1.02v1.031h.023c.205-.703.733-1.148 1.418-1.148.176 0 .328.029.41.041v.991a2 2 0 0 0-.544-.058c-.791 0-1.307.549-1.307 1.475v3.762zm5.918.117c-1.752 0-2.806-1.225-2.806-3.141v-.004c0-1.887 1.078-3.183 2.742-3.183s2.678 1.236 2.678 3.064v.375h-4.389c.023 1.254.715 1.987 1.799 1.987.773 0 1.318-.387 1.494-.909l.018-.052h1.001l-.011.058c-.199 1.008-1.196 1.805-2.526 1.805m-.07-5.425c-.885 0-1.576.603-1.687 1.739h3.334c-.1-1.183-.756-1.739-1.647-1.739m8.467 5.425c-1.559 0-2.59-1.242-2.59-3.164v-.006c0-1.922 1.043-3.158 2.572-3.158.862 0 1.571.434 1.951 1.138h.024v-3.382h1.019v8.455h-1.019v-1.03h-.024c-.38.709-1.06 1.147-1.933 1.147m.199-.902c1.031 0 1.764-.897 1.764-2.262v-.006c0-1.359-.739-2.255-1.764-2.255-1.078 0-1.746.866-1.746 2.255v.006c0 1.4.668 2.262 1.746 2.262m6.662.902c-1.752 0-2.806-1.225-2.806-3.141v-.004c0-1.887 1.078-3.183 2.742-3.183s2.677 1.236 2.677 3.064v.375h-4.388c.023 1.254.715 1.987 1.799 1.987.773 0 1.318-.387 1.494-.909l.017-.052h1.002l-.011.058c-.2 1.008-1.196 1.805-2.526 1.805m-.07-5.425c-.885 0-1.576.603-1.688 1.739h3.334c-.099-1.183-.756-1.739-1.646-1.739m9.879 5.448c-2.362 0-3.873-1.716-3.873-4.412v-.006c0-2.642 1.511-4.317 3.873-4.317 1.945 0 3.111 1.118 3.504 2.612l.029.112h-1.107l-.024-.064c-.392-1.072-1.213-1.688-2.402-1.688-1.74 0-2.795 1.26-2.795 3.345v.006c0 2.127 1.072 3.44 2.795 3.44 1.5 0 2.531-.972 2.531-2.39v-.153h-2.385v-.926h3.44v.803c0 2.285-1.33 3.638-3.586 3.638m6.861-.023c-1.336 0-2.109-.866-2.109-2.255v-3.956h1.019v3.775c0 .99.463 1.534 1.401 1.534.961 0 1.588-.686 1.588-1.723v-3.586h1.019v6.094h-1.019v-.866h-.024c-.328.568-.949.983-1.875.983m7.008-6.908h-.785l1.002-1.758h1.066zm-.252 6.908c-1.752 0-2.807-1.225-2.807-3.141v-.004c0-1.887 1.078-3.183 2.743-3.183s2.677 1.236 2.677 3.064v.375h-4.388c.023 1.254.714 1.987 1.798 1.987.774 0 1.319-.387 1.495-.909l.017-.052h1.002l-.012.058c-.199 1.008-1.195 1.805-2.525 1.805m-.07-5.425c-.885 0-1.577.603-1.688 1.739h3.334c-.099-1.183-.756-1.739-1.646-1.739m6.006 5.425c-1.559 0-2.59-1.242-2.59-3.164v-.006c0-1.922 1.043-3.158 2.572-3.158.861 0 1.57.434 1.951 1.138h.024v-3.382h1.019v8.455h-1.019v-1.03h-.024c-.381.709-1.06 1.147-1.933 1.147m.199-.902c1.031 0 1.763-.897 1.763-2.262v-.006c0-1.359-.738-2.255-1.763-2.255-1.078 0-1.746.866-1.746 2.255v.006c0 1.4.668 2.262 1.746 2.262m4.728-6.34a.64.64 0 1 1 .002-1.278.64.64 0 0 1-.002 1.278m-.51 7.125v-6.094h1.02v6.094zm4.19.117c-1.213 0-2.027-.731-2.027-1.839v-.013c0-1.037.808-1.687 2.209-1.769l1.746-.1v-.508c0-.745-.487-1.196-1.336-1.196-.785 0-1.278.375-1.395.92l-.012.052h-.984l.006-.065c.088-1.002.961-1.81 2.396-1.81 1.442 0 2.344.779 2.344 1.998v4.213h-1.019v-.989h-.024c-.357.668-1.09 1.106-1.904 1.106m-.984-1.839c0 .586.48.955 1.212.955.961 0 1.7-.663 1.7-1.548v-.498l-1.629.1c-.815.047-1.283.41-1.283.978zm6.433 1.722-1.705-6.094h1.014l1.218 4.957h.024l1.377-4.957h.984l1.383 4.957h.024l1.218-4.957h1.008l-1.699 6.094h-1.037l-1.377-4.717h-.024l-1.371 4.717zm9.047.117c-1.213 0-2.027-.731-2.027-1.839v-.013c0-1.037.808-1.687 2.209-1.769l1.746-.1v-.508c0-.745-.487-1.196-1.336-1.196-.785 0-1.278.375-1.395.92l-.011.052h-.985l.006-.065c.088-1.002.961-1.81 2.397-1.81 1.441 0 2.343.779 2.343 1.998v4.213h-1.019v-.989h-.024c-.357.668-1.09 1.106-1.904 1.106m-.984-1.839c0 .586.48.955 1.213.955.96 0 1.699-.663 1.699-1.548v-.498l-1.629.1c-.815.047-1.283.41-1.283.978zm5.812 3.774a3.4 3.4 0 0 1-.545-.048v-.832c.088.017.205.035.328.035.645 0 1.002-.164 1.248-.856l.123-.345-2.261-6.1h1.09l1.681 5.075h.024l1.687-5.075h1.072l-2.378 6.475c-.434 1.166-.967 1.671-2.069 1.671m7.524-1.935c-1.752 0-2.807-1.225-2.807-3.141v-.004c0-1.887 1.078-3.183 2.742-3.183s2.678 1.236 2.678 3.064v.375h-4.389c.024 1.254.715 1.987 1.799 1.987.773 0 1.318-.387 1.494-.909l.018-.052h1.002l-.012.058c-.199 1.008-1.195 1.805-2.525 1.805m-.071-5.425c-.884 0-1.576.603-1.687 1.739h3.334c-.1-1.183-.756-1.739-1.647-1.739"/><path stroke="#0949cc" stroke-miterlimit="10" stroke-width="4" d="M425.073 616.406s-9.439-7.412-12.977-28.297c-2.888-17.05-9.461-36.315-11.778-42.816a15.2 15.2 0 0 0-2.317-4.199l-79.057-101.891a16 16 0 0 1-3.354-10.163l.201-9.067a16 16 0 0 1 4.242-10.501l36.26-39.26a16 16 0 0 0 3.954-7.814l5.13-26.492c.22-1.136.557-2.236 1.052-3.282 2.688-5.676 12.677-25.179 26.455-33.036 16.21-9.244 22.804-17.9 23.693-21.882.888-3.982 14.752-15.678 30.02-18.541 12.636-2.369 32.66-16.631 39.19-21.48a17 17 0 0 1 4.687-2.476l.385-.13a16 16 0 0 0 8.925-7.514l9.17-16.872c1.325-2.437 3.251-4.492 5.667-5.855 5.918-3.337 17.652-9.395 24.616-9.241 9.015.2 30.356-14.153 32.914-15.897.171-.116.333-.224.508-.335 2.294-1.459 19.336-12.316 20.861-13.775 1.635-1.564 3.376-7.927 1.865-11.962s-4.604-8.905-2.187-9.652 35.977 1.598 45.699-3.788 24.903-4.25 33.524 3.944 21.242 16.476 21.242 16.476"/><path fill="#fff" d="M422.926 620.703a5.124 5.124 0 0 0 5.235-5.01 5.123 5.123 0 1 0-10.244-.227 5.124 5.124 0 0 0 5.009 5.237"/><path fill="#0949cc" d="M422.891 622.281c-3.693-.081-6.632-3.154-6.55-6.848s3.153-6.634 6.846-6.552a6.71 6.71 0 0 1 6.55 6.848c-.082 3.695-3.153 6.634-6.846 6.552m.227-10.247a3.55 3.55 0 0 0-3.625 3.469 3.55 3.55 0 0 0 3.468 3.625 3.55 3.55 0 0 0 3.624-3.468 3.55 3.55 0 0 0-3.467-3.626"/><path fill="#fff" d="M694.055 166.203a5.125 5.125 0 0 0 .227-10.247 5.125 5.125 0 0 0-.227 10.247"/><path fill="#0949cc" d="M694.02 167.781c-3.693-.081-6.631-3.154-6.55-6.848s3.154-6.634 6.847-6.552 6.631 3.154 6.55 6.848-3.154 6.634-6.847 6.552m.227-10.247a3.553 3.553 0 0 0-3.625 3.469 3.55 3.55 0 0 0 3.468 3.625 3.55 3.55 0 0 0 3.625-3.468 3.55 3.55 0 0 0-3.468-3.626"/><path fill="#fff" d="M666.587 145.824a5.125 5.125 0 0 0 .227-10.247 5.125 5.125 0 0 0-.227 10.247"/><path fill="#0949cc" d="M666.552 147.402c-3.693-.081-6.631-3.154-6.55-6.848s3.154-6.634 6.847-6.552 6.631 3.154 6.55 6.848-3.154 6.634-6.847 6.552m.227-10.247a3.553 3.553 0 0 0-3.625 3.469 3.55 3.55 0 0 0 3.468 3.625 3.55 3.55 0 0 0 3.625-3.468 3.55 3.55 0 0 0-3.468-3.626"/><path fill="#fff" d="M513.895 211.36a5.123 5.123 0 0 0 5.235-5.01 5.123 5.123 0 1 0-10.244-.227 5.125 5.125 0 0 0 5.009 5.237"/><path fill="#0949cc" d="M513.86 212.938c-3.693-.082-6.632-3.155-6.55-6.849a6.71 6.71 0 0 1 6.846-6.552c3.694.082 6.632 3.155 6.55 6.849a6.71 6.71 0 0 1-6.846 6.552m.227-10.248a3.55 3.55 0 0 0-3.625 3.469 3.55 3.55 0 0 0 3.468 3.626 3.55 3.55 0 0 0 3.624-3.469 3.55 3.55 0 0 0-3.467-3.626"/><path fill="#fff" d="M475.395 249.701a5.123 5.123 0 0 0 5.235-5.01 5.124 5.124 0 1 0-10.244-.227 5.123 5.123 0 0 0 5.009 5.237"/><path fill="#0949cc" d="M475.36 251.279a6.71 6.71 0 0 1-6.55-6.848c.082-3.695 3.153-6.634 6.846-6.552 3.693.081 6.632 3.154 6.55 6.848s-3.153 6.634-6.846 6.552m.227-10.247a3.55 3.55 0 0 0-3.625 3.468 3.55 3.55 0 0 0 3.468 3.626 3.55 3.55 0 0 0 3.624-3.469 3.55 3.55 0 0 0-3.467-3.625"/><path fill="#fff" d="M364.241 347.347a5.126 5.126 0 0 0 .227-10.248 5.126 5.126 0 0 0-.227 10.248"/><path fill="#0949cc" d="M364.206 348.921c-3.693-.082-6.631-3.154-6.55-6.848s3.154-6.634 6.847-6.552 6.631 3.154 6.55 6.848-3.154 6.634-6.847 6.552m.227-10.247a3.55 3.55 0 0 0-3.624 3.468 3.55 3.55 0 0 0 3.467 3.626 3.55 3.55 0 0 0 3.625-3.469 3.55 3.55 0 0 0-3.468-3.625"/><path fill="#fff" d="M385.852 530.684a5.124 5.124 0 0 0 5.235-5.01 5.124 5.124 0 1 0-5.235 5.01"/><path fill="#0949cc" d="M385.817 532.259a6.71 6.71 0 0 1-6.55-6.848c.082-3.695 3.153-6.634 6.846-6.552 3.693.081 6.632 3.154 6.55 6.848s-3.153 6.634-6.846 6.552m.226-10.247a3.55 3.55 0 0 0-3.624 3.468 3.55 3.55 0 0 0 3.467 3.626 3.55 3.55 0 0 0 3.625-3.469 3.55 3.55 0 0 0-3.468-3.625M642 103h-61c-8.284 0-15 6.716-15 15s6.716 15 15 15h61c8.284 0 15-6.716 15-15s-6.716-15-15-15"/><path fill="#fff" d="M630.484 115.922q.759 0 1.336.379.579.378.903 1.074.324.695.324 1.641 0 .953-.324 1.652a2.55 2.55 0 0 1-.899 1.078 2.35 2.35 0 0 1-1.324.379q-.578 0-.926-.191a1.7 1.7 0 0 1-.535-.442 6 6 0 0 1-.289-.414h-.078v3.172h-.922V116h.891v.953h.109q.101-.156.281-.398a1.7 1.7 0 0 1 .524-.438q.344-.195.929-.195m-6.635 0q.288 0 .664.07.379.066.73.278.356.21.59.636t.234 1.141V122h-.921v-.812h-.047q-.094.195-.313.417-.219.223-.582.379-.363.157-.887.157-.57 0-1.035-.215a1.8 1.8 0 0 1-.738-.629q-.273-.414-.273-1 0-.516.203-.836.202-.324.543-.508.339-.183.75-.273.414-.094.832-.149.546-.07.886-.105.344-.039.5-.129.16-.09.161-.313v-.031q0-.578-.317-.898-.312-.321-.949-.321-.66 0-1.035.289-.375.29-.528.618l-.875-.313q.235-.546.625-.851.395-.309.86-.43.468-.125.922-.125m-31.017 0q.469 0 .926.156t.832.508q.375.348.598.922t.222 1.414v.39h-4.356q.019.6.231 1.028.239.469.66.715.422.242.981.242.363 0 .656-.102.297-.105.512-.312.215-.211.332-.524l.89.25a2 2 0 0 1-.472.797 2.3 2.3 0 0 1-.821.532 3.1 3.1 0 0 1-1.097.187q-.867 0-1.496-.383a2.56 2.56 0 0 1-.965-1.078q-.336-.695-.336-1.617t.336-1.625q.34-.707.945-1.102.609-.398 1.422-.398m15.404 0q.469 0 .926.156t.832.508q.375.348.598.922t.222 1.414v.39h-4.356q.02.6.231 1.028.238.469.661.715.422.242.98.242.363 0 .656-.102.297-.105.512-.312.215-.211.332-.524l.891.25a2 2 0 0 1-.473.797 2.3 2.3 0 0 1-.82.532 3.1 3.1 0 0 1-1.098.187q-.867 0-1.496-.383a2.57 2.57 0 0 1-.965-1.078q-.336-.695-.336-1.617t.336-1.625a2.66 2.66 0 0 1 .945-1.102q.61-.398 1.422-.398m28.639 0q.469 0 .926.156t.832.508q.375.348.597.922.223.574.223 1.414v.39h-4.356q.019.6.231 1.028.239.469.66.715.422.242.981.242.363 0 .656-.102.297-.105.512-.312.215-.211.332-.524l.89.25a2 2 0 0 1-.472.797 2.3 2.3 0 0 1-.821.532 3.1 3.1 0 0 1-1.097.187q-.867 0-1.496-.383a2.56 2.56 0 0 1-.965-1.078q-.336-.695-.336-1.617t.336-1.625q.339-.707.945-1.102.609-.398 1.422-.398m6.402 0q.469 0 .926.156t.832.508q.375.348.598.922t.222 1.414v.39h-4.356q.02.6.231 1.028.238.469.661.715.422.242.98.242.363 0 .656-.102.297-.105.512-.312.215-.211.332-.524l.891.25a2 2 0 0 1-.473.797 2.3 2.3 0 0 1-.82.532 3.1 3.1 0 0 1-1.098.187q-.867 0-1.496-.383a2.57 2.57 0 0 1-.965-1.078q-.336-.695-.336-1.617t.336-1.625a2.66 2.66 0 0 1 .945-1.102q.61-.398 1.422-.398m-64.121-2.031q.633 0 1.18.191a3.16 3.16 0 0 1 2.102 2.418h-1a2.8 2.8 0 0 0-.34-.707 2.2 2.2 0 0 0-.496-.539 2.1 2.1 0 0 0-.649-.34 2.6 2.6 0 0 0-.797-.117q-.711 0-1.293.367-.582.368-.925 1.082-.345.715-.344 1.754 0 1.039.347 1.754.348.714.942 1.082.594.367 1.336.367.687 0 1.211-.293.527-.296.82-.836.283-.519.295-1.215h-2.107V118h3.046v.859q0 .989-.422 1.719a2.9 2.9 0 0 1-1.156 1.133q-.734.399-1.687.398-1.063 0-1.867-.5-.801-.5-1.25-1.421-.446-.922-.446-2.188 0-.95.254-1.707.258-.762.727-1.297t1.109-.82a3.4 3.4 0 0 1 1.41-.285m5.784 5.859q0 .656.368 1.047.37.39.945.391.344 0 .699-.176.36-.176.602-.539.246-.364.246-.926V116h.922v6h-.922v-1.016h-.063q-.21.457-.656.778-.446.316-1.125.316-.562 0-1-.246a1.7 1.7 0 0 1-.687-.75q-.25-.504-.25-1.27V116h.921zm12.794 0q0 .656.368 1.047.37.39.945.391.343 0 .699-.176.36-.176.602-.539.246-.364.246-.926V116h.922v6h-.922v-1.016h-.063q-.21.457-.656.778-.446.316-1.125.316-.562 0-1-.246a1.73 1.73 0 0 1-.688-.75q-.25-.504-.25-1.27V116h.922zm6.392 2.25h-.922v-8h.922zm16.872-7.141h-2.516V122h-.968v-7.141h-2.516V114h6zm4.148 4.125q-.06.07-.258.129a4 4 0 0 1-.453.098 22 22 0 0 1-.883.117q-.36.047-.672.152a1.16 1.16 0 0 0-.5.309q-.188.203-.188.555 0 .48.356.726.359.243.91.242.547 0 .922-.214a1.47 1.47 0 0 0 .766-1.27zm5.229-2.234q-.562 0-.945.285a1.7 1.7 0 0 0-.578.789 3.2 3.2 0 0 0-.196 1.176q0 .68.199 1.199.2.515.583.809.382.29.937.289.578 0 .965-.305.39-.309.586-.828.2-.523.199-1.164 0-.633-.195-1.141a1.77 1.77 0 0 0-.582-.808q-.387-.301-.973-.301m-37.543 0q-.55 0-.953.273-.399.27-.613.704-.183.37-.207.789h3.414q0-.508-.203-.907a1.54 1.54 0 0 0-.571-.629 1.6 1.6 0 0 0-.867-.23m15.404 0q-.55 0-.953.273-.398.27-.613.704-.183.37-.207.789h3.414q0-.508-.203-.907a1.54 1.54 0 0 0-.57-.629 1.6 1.6 0 0 0-.868-.23m28.639 0q-.55 0-.953.273-.399.27-.613.704-.183.37-.207.789h3.414q0-.508-.204-.907a1.53 1.53 0 0 0-.57-.629 1.6 1.6 0 0 0-.867-.23m6.402 0q-.55 0-.953.273-.398.27-.613.704-.183.37-.207.789h3.414q0-.508-.203-.907a1.54 1.54 0 0 0-.57-.629 1.6 1.6 0 0 0-.868-.23m-6.058-1.562h-.813l.953-1.813h1.079z"/></svg>