<svg xmlns="http://www.w3.org/2000/svg" xml:space="preserve" id="Calque_1" x="0" y="0" viewBox="0 0 997 783"><style>.st0{fill:#e80032}.st1{fill:#fff}</style><g id="Calque_1_00000173163277135626128010000009500418579050746815_"><path d="M453.9 601.1h66c8.3 0 15 6.7 15 15s-6.7 15-15 15h-66c-8.3 0-15-6.7-15-15s6.7-15 15-15" class="st0"/><path d="M448.4 620.1v-8.5h3c1.6 0 2.7 1.1 2.7 2.7s-1.1 2.7-2.7 2.7h-2v3zm2.7-7.5h-1.7v3.6h1.7c1.2 0 1.9-.7 1.9-1.8 0-1.2-.7-1.8-1.9-1.8m5.3 7.6c-1.2 0-2-.7-2-1.8 0-1 .8-1.7 2.2-1.8l1.7-.1v-.5c0-.7-.5-1.2-1.3-1.2s-1.3.4-1.4.9v.1h-1v-.1c.1-1 1-1.8 2.4-1.8s2.3.8 2.3 2v4.2h-1v-1c-.3.7-1.1 1.1-1.9 1.1m-1-1.8c0 .6.5 1 1.2 1 1 0 1.7-.7 1.7-1.5v-.5l-1.6.1c-.8-.1-1.3.3-1.3.9m5.3 3.7V614h1v1c.4-.7 1.1-1.1 1.9-1.1 1.6 0 2.6 1.2 2.6 3.2 0 1.9-1 3.2-2.6 3.2-.9 0-1.6-.4-2-1.1v3.1h-.9zm2.7-2.8c1.1 0 1.7-.9 1.7-2.3s-.7-2.3-1.7-2.3-1.8.9-1.8 2.3c.1 1.4.8 2.3 1.8 2.3m5.6.9c-1.2 0-2-.7-2-1.8 0-1 .8-1.7 2.2-1.8l1.7-.1v-.5c0-.7-.5-1.2-1.3-1.2s-1.3.4-1.4.9v.1h-1v-.1c.1-1 1-1.8 2.4-1.8s2.3.8 2.3 2v4.2h-1v-1c-.3.7-1 1.1-1.9 1.1m-.9-1.8c0 .6.5 1 1.2 1 1 0 1.7-.7 1.7-1.5v-.5l-1.6.1c-.9-.1-1.3.3-1.3.9m11.3 1.8c-2.4 0-3.9-1.7-3.9-4.4 0-2.6 1.5-4.3 3.9-4.3 1.9 0 3.1 1.1 3.5 2.6v.1h-1.1v-.1c-.4-1.1-1.2-1.7-2.4-1.7-1.7 0-2.8 1.3-2.8 3.3 0 2.1 1.1 3.4 2.8 3.4 1.5 0 2.5-1 2.5-2.4v-.2h-2.4v-.9h3.4v.8c.1 2.5-1.2 3.8-3.5 3.8m6.9 0c-1.3 0-2.1-.9-2.1-2.3v-4h1v3.8c0 1 .5 1.5 1.4 1.5 1 0 1.6-.7 1.6-1.7V614h1v6.1h-1v-.9c-.3.6-1 1-1.9 1m6.8 0c-1.8 0-2.8-1.2-2.8-3.1s1.1-3.2 2.7-3.2 2.7 1.2 2.7 3.1v.4h-4.4c0 1.3.7 2 1.8 2 .8 0 1.3-.4 1.5-.9v-.1h1v.1c-.2.9-1.2 1.7-2.5 1.7m-.1-5.4c-.9 0-1.6.6-1.7 1.7h3.3c-.1-1.2-.7-1.7-1.6-1.7m4.1 7.3h-.5v-.8h.3c.6 0 1-.2 1.2-.9l.1-.3-2.3-6.1h1.1l1.7 5.1 1.7-5.1h1.1l-2.4 6.5c-.4 1.1-.9 1.6-2 1.6m7.5-1.9c-1.8 0-2.8-1.2-2.8-3.1s1.1-3.2 2.7-3.2 2.7 1.2 2.7 3.1v.4h-4.4c0 1.3.7 2 1.8 2 .8 0 1.3-.4 1.5-.9v-.1h1v.1c-.2.9-1.2 1.7-2.5 1.7m-.1-5.4c-.9 0-1.6.6-1.7 1.7h3.3c0-1.2-.7-1.7-1.6-1.7m6.3 5.3v-8.5h5.1v.9h-4.1v2.9h3.7v.9h-3.7v3.7zm7.6.1c-1.2 0-2-.7-2-1.8 0-1 .8-1.7 2.2-1.8l1.7-.1v-.5c0-.7-.5-1.2-1.3-1.2s-1.3.4-1.4.9v.1h-1v-.1c.1-1 1-1.8 2.4-1.8s2.3.8 2.3 2v4.2h-1v-1c-.4.7-1.1 1.1-1.9 1.1m-1-1.8c0 .6.5 1 1.2 1 1 0 1.7-.7 1.7-1.5v-.5l-1.6.1c-.8-.1-1.3.3-1.3.9m5.3 1.7v-8.5h1v8.5zm2.4 0v-8.5h1v8.5z" class="st1"/><path d="M310.9 581.1h73c8.3 0 15 6.7 15 15s-6.7 15-15 15h-73c-8.3 0-15-6.7-15-15s6.7-15 15-15" class="st0"/><path d="M308.8 600.2c-2.4 0-3.9-1.7-3.9-4.4 0-2.6 1.5-4.3 3.9-4.3 1.9 0 3.1 1.1 3.5 2.6v.1h-1.1v-.1c-.4-1.1-1.2-1.7-2.4-1.7-1.7 0-2.8 1.3-2.8 3.3 0 2.1 1.1 3.4 2.8 3.4 1.5 0 2.5-1 2.5-2.4v-.2h-2.4v-.9h3.4v.8c.1 2.4-1.3 3.8-3.5 3.8m4.8-.1V594h1v1c.2-.7.7-1.1 1.4-1.1h.4v1c-.1 0-.3-.1-.5-.1-.8 0-1.3.6-1.3 1.5v3.8zm5.3.1c-1.2 0-2-.7-2-1.8 0-1 .8-1.7 2.2-1.8l1.7-.1v-.5c0-.7-.5-1.2-1.3-1.2s-1.3.4-1.4.9v.1h-1v-.1c.1-1 1-1.8 2.4-1.8s2.3.8 2.3 2v4.2h-1v-1c-.3.6-1.1 1.1-1.9 1.1m-1-1.9c0 .6.5 1 1.2 1 1 0 1.7-.7 1.7-1.5v-.5l-1.6.1c-.8 0-1.3.4-1.3.9m5.3 1.8V594h1v.9c.3-.6 1-1 1.9-1 1.3 0 2.1.9 2.1 2.3v4h-1v-3.8c0-1-.5-1.5-1.4-1.5-1 0-1.6.7-1.6 1.7v3.6h-1zm8.6.1c-1.6 0-2.6-1.2-2.6-3.2 0-1.9 1-3.2 2.6-3.2.9 0 1.6.4 2 1.1v-3.4h1v8.5h-1v-1c-.5.7-1.1 1.2-2 1.2m.2-.9c1 0 1.8-.9 1.8-2.3s-.7-2.3-1.8-2.3-1.7.9-1.7 2.3c-.1 1.4.6 2.3 1.7 2.3m6.6.9c-1.8 0-2.8-1.2-2.8-3.1s1.1-3.2 2.7-3.2 2.7 1.2 2.7 3.1v.4h-4.4c0 1.3.7 2 1.8 2 .8 0 1.3-.4 1.5-.9v-.1h1v.1c-.1.9-1.1 1.7-2.5 1.7m0-5.4c-.9 0-1.6.6-1.7 1.7h3.3c-.1-1.2-.7-1.7-1.6-1.7m6.1 5.3V594h1v.9c.3-.6.9-1 1.7-1s1.4.4 1.7 1.2c.3-.7 1.1-1.2 1.9-1.2 1.2 0 2 .8 2 2v4.2h-1v-4c0-.8-.5-1.3-1.3-1.3s-1.4.6-1.4 1.4v3.9h-1V596c0-.7-.5-1.2-1.2-1.2-.8 0-1.4.6-1.4 1.5v3.8zm12.2.1c-1.7 0-2.8-1.2-2.8-3.2 0-1.9 1.1-3.2 2.8-3.2s2.8 1.2 2.8 3.2-1.1 3.2-2.8 3.2m0-.9c1.1 0 1.8-.8 1.8-2.3 0-1.4-.7-2.2-1.8-2.2s-1.8.8-1.8 2.2.7 2.3 1.8 2.3m6 .9c-1.4 0-2.3-.7-2.4-1.8v-.1h1v.1c.1.6.6 1 1.4 1s1.3-.3 1.3-.9c0-.4-.2-.7-.9-.9l-1-.2c-1.1-.3-1.7-.8-1.7-1.7 0-1 .9-1.8 2.2-1.8s2.2.8 2.3 1.8v.1h-1c-.1-.6-.5-1-1.3-1-.7 0-1.2.4-1.2.9 0 .4.3.7 1 .9l1 .2c1.2.3 1.7.8 1.7 1.7s-1 1.7-2.4 1.7m7.7 1.9v-3c-.4.7-1.1 1.1-1.9 1.1-1.5 0-2.6-1.2-2.6-3.2 0-1.9 1.1-3.1 2.6-3.1.9 0 1.5.5 1.9 1.1v-1h1v8.1zm-1.7-2.8c1 0 1.7-.9 1.7-2.3s-.7-2.2-1.7-2.2c-1.1 0-1.8.9-1.8 2.2 0 1.4.7 2.3 1.8 2.3m6.1.9c-1.3 0-2.1-.9-2.1-2.3v-4h1v3.8c0 1 .5 1.5 1.4 1.5 1 0 1.6-.7 1.6-1.7V594h1v6.1h-1v-.9c-.3.6-1 1-1.9 1m7-6.9h-.8l1-1.8h1.1zm-.2 6.9c-1.8 0-2.8-1.2-2.8-3.1s1.1-3.2 2.7-3.2 2.7 1.2 2.7 3.1v.4H380c0 1.3.7 2 1.8 2 .8 0 1.3-.4 1.5-.9v-.1h1v.1c-.2.9-1.2 1.7-2.5 1.7m-.1-5.4c-.9 0-1.6.6-1.7 1.7h3.3c0-1.2-.7-1.7-1.6-1.7m6.2 5.4c-1.8 0-2.8-1.2-2.8-3.1s1.1-3.2 2.7-3.2c1.7 0 2.7 1.2 2.7 3.1v.4h-4.4c0 1.3.7 2 1.8 2 .8 0 1.3-.4 1.5-.9v-.1h1v.1c-.1.9-1.1 1.7-2.5 1.7m0-5.4c-.9 0-1.6.6-1.7 1.7h3.3c-.1-1.2-.7-1.7-1.6-1.7" class="st1"/><path d="M416.6 511.1h74c8.3 0 15 6.7 15 15s-6.7 15-15 15h-74c-8.3 0-15-6.7-15-15 0-8.2 6.8-15 15-15" class="st0"/><path d="M410.5 530.1v-8.5h3c1.6 0 2.7 1.1 2.7 2.7s-1.1 2.7-2.7 2.7h-2v3zm2.7-7.5h-1.7v3.6h1.7c1.2 0 1.9-.7 1.9-1.8s-.7-1.8-1.9-1.8m4.1 7.5v-8.5h1v8.5zm4.2.2c-1.2 0-2-.7-2-1.8 0-1 .8-1.7 2.2-1.8l1.7-.1v-.6c0-.7-.5-1.2-1.3-1.2s-1.3.4-1.4.9v.1h-1v-.1c.1-1 1-1.8 2.4-1.8s2.3.8 2.3 2v4.2h-1v-1c-.4.7-1.1 1.2-1.9 1.2m-1-1.9c0 .6.5 1 1.2 1 1 0 1.7-.7 1.7-1.5v-.5l-1.6.1c-.8 0-1.3.3-1.3.9m7.7 1.9c-1.7 0-2.8-1.2-2.8-3.2 0-1.9 1.1-3.2 2.8-3.2 1.5 0 2.4 1 2.5 2.1h-1c-.2-.6-.6-1.1-1.5-1.1-1.1 0-1.8.9-1.8 2.3s.7 2.3 1.8 2.3c.8 0 1.4-.5 1.5-1.1h1c-.1 1-1.1 1.9-2.5 1.9m6 0c-1.8 0-2.8-1.2-2.8-3.1s1.1-3.2 2.7-3.2 2.7 1.2 2.7 3.1v.4h-4.4c0 1.3.7 2 1.8 2 .8 0 1.3-.4 1.5-.9v-.1h1v.1c-.1.9-1.1 1.7-2.5 1.7m0-5.5c-.9 0-1.6.6-1.7 1.7h3.3c-.1-1.1-.7-1.7-1.6-1.7m8.4 5.5c-1.6 0-2.6-1.2-2.6-3.2 0-1.9 1-3.2 2.6-3.2.9 0 1.6.4 2 1.1v-3.4h1v8.5h-1v-1c-.4.7-1.1 1.2-2 1.2m.2-.9c1 0 1.8-.9 1.8-2.3s-.7-2.3-1.8-2.3-1.7.9-1.7 2.3.7 2.3 1.7 2.3m6.7.9c-1.8 0-2.8-1.2-2.8-3.1s1.1-3.2 2.7-3.2c1.7 0 2.7 1.2 2.7 3.1v.4h-4.4c0 1.3.7 2 1.8 2 .8 0 1.3-.4 1.5-.9v-.1h1v.1c-.2.9-1.2 1.7-2.5 1.7m-.1-5.5c-.9 0-1.6.6-1.7 1.7h3.3c0-1.1-.7-1.7-1.6-1.7m6.3 5.3v-8.5h1v8.5zm4.1.2c-1.2 0-2-.7-2-1.8 0-1 .8-1.7 2.2-1.8l1.7-.1v-.6c0-.7-.5-1.2-1.3-1.2s-1.3.4-1.4.9v.1h-1v-.1c.1-1 1-1.8 2.4-1.8s2.3.8 2.3 2v4.2h-1v-1c-.3.7-1.1 1.2-1.9 1.2m-1-1.9c0 .6.5 1 1.2 1 1 0 1.7-.7 1.7-1.5v-.5l-1.6.1c-.8 0-1.3.3-1.3.9m7.7 1.7V524h1v.9c.3-.6.9-1 1.9-1 1.3 0 2.1.9 2.1 2.3v4h-1v-3.8c0-1-.5-1.5-1.4-1.5-1 0-1.6.7-1.6 1.7v3.6h-1zm8.1.2c-1.2 0-2-.7-2-1.8 0-1 .8-1.7 2.2-1.8l1.7-.1v-.6c0-.7-.5-1.2-1.3-1.2s-1.3.4-1.4.9v.1h-1v-.1c.1-1 1-1.8 2.4-1.8s2.3.8 2.3 2v4.2h-1v-1c-.3.7-1 1.2-1.9 1.2m-.9-1.9c0 .6.5 1 1.2 1 1 0 1.7-.7 1.7-1.5v-.5l-1.6.1c-.9 0-1.3.3-1.3.9m7.2 1.9c-1.1 0-1.7-.5-1.7-1.7v-3.7h-.9v-.8h.9v-1.6h1.1v1.6h1.2v.8h-1.2v3.7c0 .6.3.8.8.8h.3v.8c-.1 0-.3.1-.5.1m2.2-7.3c-.4 0-.6-.3-.6-.6 0-.4.3-.6.6-.6.4 0 .6.3.6.6s-.3.6-.6.6m-.5 7.1V524h1v6.1zm4.9.2c-1.7 0-2.8-1.2-2.8-3.2 0-1.9 1.1-3.2 2.8-3.2s2.8 1.2 2.8 3.2c0 1.9-1.1 3.2-2.8 3.2m0-.9c1.1 0 1.8-.8 1.8-2.3 0-1.4-.7-2.2-1.8-2.2s-1.8.8-1.8 2.2.7 2.3 1.8 2.3m3.9.7V524h1v.9c.3-.6 1-1 1.9-1 1.3 0 2.1.9 2.1 2.3v4h-1v-3.8c0-1-.5-1.5-1.4-1.5-1 0-1.6.7-1.6 1.7v3.6h-1z" class="st1"/><path d="M272.5 466.6h50c8.3 0 15 6.7 15 15s-6.7 15-15 15h-50c-8.3 0-15-6.7-15-15s6.7-15 15-15" class="st0"/><path d="M270.6 485.7c-2.4 0-3.9-1.7-3.9-4.4 0-2.6 1.5-4.3 3.9-4.3 1.9 0 3.1 1.1 3.5 2.6v.1H273v-.1c-.4-1.1-1.2-1.7-2.4-1.7-1.7 0-2.8 1.3-2.8 3.3 0 2.1 1.1 3.4 2.8 3.4 1.5 0 2.5-1 2.5-2.4v-.2h-2.4v-.9h3.4v.8c.1 2.4-1.2 3.8-3.5 3.8m4.8-.1v-6.1h1v1c.2-.7.7-1.1 1.4-1.1h.4v1c-.1 0-.3-.1-.5-.1-.8 0-1.3.6-1.3 1.5v3.8zm5.4.1c-1.2 0-2-.7-2-1.8 0-1 .8-1.7 2.2-1.8l1.7-.1v-.5c0-.7-.5-1.2-1.3-1.2s-1.3.4-1.4.9v.1h-1v-.1c.1-1 1-1.8 2.4-1.8s2.3.8 2.3 2v4.2h-1v-1c-.4.6-1.1 1.1-1.9 1.1m-1-1.9c0 .6.5 1 1.2 1 1 0 1.7-.7 1.7-1.5v-.5l-1.6.1c-.8 0-1.3.4-1.3.9m5.2 1.8v-6.1h1v.9c.3-.6 1-1 1.9-1 1.3 0 2.1.9 2.1 2.3v4h-1v-3.8c0-1-.5-1.5-1.4-1.5-1 0-1.6.7-1.6 1.7v3.6h-1zm8.6.1c-1.6 0-2.6-1.2-2.6-3.2 0-1.9 1-3.2 2.6-3.2.9 0 1.6.4 2 1.1V477h1v8.5h-1v-1c-.4.7-1.1 1.2-2 1.2m.2-.9c1 0 1.8-.9 1.8-2.3s-.7-2.3-1.8-2.3-1.7.9-1.7 2.3.7 2.3 1.7 2.3m6.8.8v-8.5h2.8c2.5 0 4 1.6 4 4.2 0 2.7-1.5 4.2-4 4.2zm1.1-1h1.7c1.9 0 3-1.2 3-3.3s-1.1-3.3-3-3.3h-1.7zm8.7 1.1c-1.2 0-2-.7-2-1.8 0-1 .8-1.7 2.2-1.8l1.7-.1v-.5c0-.7-.5-1.2-1.3-1.2s-1.3.4-1.4.9v.1h-1v-.1c.1-1 1-1.8 2.4-1.8s2.3.8 2.3 2v4.2h-1v-1c-.4.6-1.1 1.1-1.9 1.1m-1-1.9c0 .6.5 1 1.2 1 1 0 1.7-.7 1.7-1.5v-.5l-1.6.1c-.8 0-1.3.4-1.3.9m5.3 1.8v-8.5h1v5l2.7-2.7h1.2L317 482l2.7 3.5h-1.2l-2.3-2.8-.6.5v2.3h-.9zm7.5.1c-1.2 0-2-.7-2-1.8 0-1 .8-1.7 2.2-1.8l1.7-.1v-.5c0-.7-.5-1.2-1.3-1.2s-1.3.4-1.4.9v.1h-1v-.1c.1-1 1-1.8 2.4-1.8s2.3.8 2.3 2v4.2h-1v-1c-.3.6-1.1 1.1-1.9 1.1m-1-1.9c0 .6.5 1 1.2 1 1 0 1.7-.7 1.7-1.5v-.5l-1.6.1c-.8 0-1.3.4-1.3.9m5.3 1.8v-6.1h1v1c.2-.7.7-1.1 1.4-1.1h.4v1c-.1 0-.3-.1-.5-.1-.8 0-1.3.6-1.3 1.5v3.8z" class="st1"/><path d="M299.4 328.1h35c8.3 0 15 6.7 15 15s-6.7 15-15 15h-35c-8.3 0-15-6.7-15-15s6.7-15 15-15" class="st0"/><path d="M293.2 347.1v-8.5h1.1v4.1l3.6-4.1h1.3l-3.3 3.7 3.6 4.7h-1.3l-3-3.9-.9 1v3zm7.1 0v-8.5h1v3.3c.3-.7 1-1.1 1.9-1.1 1.3 0 2.2 1 2.2 2.5v3.7h-1v-3.6c0-1.1-.6-1.8-1.5-1.8s-1.6.7-1.6 1.8v3.6h-1zm8.2.1c-1.2 0-2-.7-2-1.8 0-1 .8-1.7 2.2-1.8l1.7-.1v-.5c0-.7-.5-1.2-1.3-1.2s-1.3.4-1.4.9v.1h-1v-.1c.1-1 1-1.8 2.4-1.8s2.3.8 2.3 2v4.2h-1v-1c-.3.6-1 1.1-1.9 1.1m-.9-1.9c0 .6.5 1 1.2 1 1 0 1.7-.7 1.7-1.5v-.5l-1.6.1c-.9 0-1.3.4-1.3.9m5.2 1.8V341h1v1c.2-.7.7-1.1 1.4-1.1h.4v1c-.1 0-.3-.1-.5-.1-.8 0-1.3.6-1.3 1.5v3.8zm8.6 0v-3.6l-3-4.8h1.2l2.3 3.8 2.3-3.8h1.2l-3 4.8v3.6zm5.5.1c-1.2 0-2-.7-2-1.8 0-1 .8-1.7 2.2-1.8l1.7-.1v-.5c0-.7-.5-1.2-1.3-1.2s-1.3.4-1.4.9v.1h-1v-.1c.1-1 1-1.8 2.4-1.8s2.3.8 2.3 2v4.2h-1v-1c-.3.6-1.1 1.1-1.9 1.1m-1-1.9c0 .6.5 1 1.2 1 1 0 1.7-.7 1.7-1.5v-.5l-1.6.1c-.8 0-1.3.4-1.3.9m5.3 1.8v-8.5h1v8.5zm2.4 0v-8.5h1v8.5zm4.2.1c-1.2 0-2-.7-2-1.8 0-1 .8-1.7 2.2-1.8l1.7-.1v-.5c0-.7-.5-1.2-1.3-1.2s-1.3.4-1.4.9v.1h-1v-.1c.1-1 1-1.8 2.4-1.8s2.3.8 2.3 2v4.2h-1v-1c-.3.6-1.1 1.1-1.9 1.1m-1-1.9c0 .6.5 1 1.2 1 1 0 1.7-.7 1.7-1.5v-.5l-1.6.1c-.8 0-1.3.4-1.3.9" class="st1"/><path d="M450.2 268.5h58c8.3 0 15 6.7 15 15s-6.7 15-15 15h-58c-8.3 0-15-6.7-15-15s6.8-15 15-15" class="st0"/><path d="M448.4 287.7c-2.4 0-3.9-1.7-3.9-4.4 0-2.6 1.5-4.3 3.9-4.3 1.9 0 3.1 1.1 3.5 2.6v.1h-1.1v-.1c-.4-1.1-1.2-1.7-2.4-1.7-1.7 0-2.8 1.3-2.8 3.3 0 2.1 1.1 3.4 2.8 3.4 1.5 0 2.5-1 2.5-2.4v-.2h-2.4v-.9h3.4v.8c0 2.4-1.3 3.8-3.5 3.8m4.7-.2v-6.1h1v1c.2-.7.7-1.1 1.4-1.1h.4v1c-.1 0-.3-.1-.5-.1-.8 0-1.3.6-1.3 1.5v3.8zm5.4.1c-1.2 0-2-.7-2-1.8 0-1 .8-1.7 2.2-1.8l1.7-.1v-.5c0-.7-.5-1.2-1.3-1.2s-1.3.4-1.4.9v.1h-1v-.1c.1-1 1-1.8 2.4-1.8s2.3.8 2.3 2v4.2h-1v-1c-.3.7-1.1 1.1-1.9 1.1m-1-1.8c0 .6.5 1 1.2 1 1 0 1.7-.7 1.7-1.5v-.5l-1.6.1c-.8 0-1.3.3-1.3.9m5.3 1.7v-6.1h1v.9c.3-.6.9-1 1.9-1 1.3 0 2.1.9 2.1 2.3v4h-1v-3.8c0-1-.5-1.5-1.4-1.5-1 0-1.6.7-1.6 1.7v3.6h-1zm8.6.1c-1.6 0-2.6-1.2-2.6-3.2 0-1.9 1-3.2 2.6-3.2.9 0 1.6.4 2 1.1v-3.4h1v8.5h-1v-1c-.5.8-1.2 1.2-2 1.2m.2-.9c1 0 1.8-.9 1.8-2.3s-.7-2.3-1.8-2.3-1.7.9-1.7 2.3c-.1 1.5.6 2.3 1.7 2.3m6.7.8V279h1.2l2.9 7.1 2.9-7.1h1.2v8.5h-1V281l-2.7 6.5h-.9l-2.7-6.5v6.5zm12.4.1c-1.8 0-2.8-1.2-2.8-3.1s1.1-3.2 2.7-3.2 2.7 1.2 2.7 3.1v.4h-4.4c0 1.3.7 2 1.8 2 .8 0 1.3-.4 1.5-.9v-.1h1v.1c-.2.9-1.2 1.7-2.5 1.7m-.1-5.4c-.9 0-1.6.6-1.7 1.7h3.3c-.1-1.1-.7-1.7-1.6-1.7m6 5.4c-1.6 0-2.6-1.2-2.6-3.2 0-1.9 1-3.2 2.6-3.2.9 0 1.6.4 2 1.1v-3.4h1v8.5h-1v-1c-.4.8-1.1 1.2-2 1.2m.2-.9c1 0 1.8-.9 1.8-2.3s-.7-2.3-1.8-2.3-1.7.9-1.7 2.3c0 1.5.6 2.3 1.7 2.3m4.7-6.3c-.4 0-.6-.3-.6-.6 0-.4.3-.6.6-.6.4 0 .6.3.6.6.1.3-.2.6-.6.6m-.5 7.1v-6.1h1v6.1zm2.4 0v-6.1h1v.9c.3-.6.9-1 1.9-1 1.3 0 2.1.9 2.1 2.3v4h-1v-3.8c0-1-.5-1.5-1.4-1.5-1 0-1.6.7-1.6 1.7v3.6h-1zm8.9.1c-1.8 0-2.8-1.2-2.8-3.1s1.1-3.2 2.7-3.2c1.7 0 2.7 1.2 2.7 3.1v.4h-4.4c0 1.3.7 2 1.8 2 .8 0 1.3-.4 1.5-.9v-.1h1v.1c-.2.9-1.2 1.7-2.5 1.7m-.1-5.4c-.9 0-1.6.6-1.7 1.7h3.3c-.1-1.1-.7-1.7-1.6-1.7" class="st1"/><path d="M425.6 616.9s-9.4-7.4-13-28.3c-2.9-17-9.5-36.3-11.8-42.8-.5-1.5-1.3-2.9-2.3-4.2l-79.1-101.9c-2.3-2.9-3.4-6.5-3.4-10.2l.2-9.1c.1-3.9 1.6-7.6 4.2-10.5l36.3-39.3c2-2.2 3.4-4.9 4-7.8l5.1-26.5c.2-1.1.6-2.2 1.1-3.3 2.7-5.7 12.7-25.2 26.5-33 16.2-9.2 22.8-17.9 23.7-21.9" style="fill:none;stroke:#e80032;stroke-width:4;stroke-miterlimit:10"/><path d="M423.4 621.2c2.8.1 5.2-2.2 5.2-5 .1-2.8-2.2-5.2-5-5.2-2.8-.1-5.2 2.2-5.2 5s2.2 5.1 5 5.2" class="st1"/><path d="M423.4 622.8c-3.7-.1-6.6-3.2-6.5-6.8.1-3.7 3.2-6.6 6.8-6.6 3.7.1 6.6 3.2 6.5 6.8 0 3.7-3.1 6.7-6.8 6.6m.2-10.3c-2 0-3.6 1.5-3.6 3.5s1.5 3.6 3.5 3.6 3.6-1.5 3.6-3.5-1.5-3.5-3.5-3.6" class="st0"/><path d="M420.1 279c2.8.1 5.2-2.2 5.2-5 .1-2.8-2.2-5.2-5-5.2-2.8-.1-5.2 2.2-5.2 5s2.2 5.1 5 5.2" class="st1"/><path d="M420.1 280.5c-3.7-.1-6.6-3.2-6.5-6.8s3.2-6.6 6.8-6.6c3.7.1 6.6 3.2 6.5 6.8 0 3.8-3.1 6.7-6.8 6.6m.2-10.2c-2 0-3.6 1.5-3.6 3.5s1.5 3.6 3.5 3.6 3.6-1.5 3.6-3.5c0-1.9-1.5-3.6-3.5-3.6" class="st0"/><path d="M364.7 347.8c2.8.1 5.2-2.2 5.2-5 .1-2.8-2.2-5.2-5-5.2-2.8-.1-5.2 2.2-5.2 5s2.2 5.2 5 5.2" class="st1"/><path d="M364.7 349.4c-3.7-.1-6.6-3.2-6.5-6.8.1-3.7 3.2-6.6 6.8-6.6 3.7.1 6.6 3.2 6.6 6.8-.1 3.8-3.2 6.7-6.9 6.6m.2-10.2c-2 0-3.6 1.5-3.6 3.5s1.5 3.6 3.5 3.6 3.6-1.5 3.6-3.5-1.5-3.6-3.5-3.6" class="st0"/><path d="M352.5 486.7c2.8.1 5.2-2.2 5.2-5 .1-2.8-2.2-5.2-5-5.2-2.8-.1-5.2 2.2-5.2 5s2.2 5.1 5 5.2" class="st1"/><path d="M352.5 488.3c-3.7-.1-6.6-3.2-6.5-6.8.1-3.7 3.2-6.6 6.8-6.6 3.7.1 6.6 3.2 6.6 6.8s-3.2 6.6-6.9 6.6m.2-10.3c-2 0-3.6 1.5-3.6 3.5s1.5 3.6 3.5 3.6 3.6-1.5 3.6-3.5-1.5-3.5-3.5-3.6" class="st0"/><path d="M386.4 531.2c2.8.1 5.2-2.2 5.2-5 .1-2.8-2.2-5.2-5-5.2-2.8-.1-5.2 2.2-5.2 5-.1 2.8 2.1 5.1 5 5.2" class="st1"/><path d="M386.3 532.8c-3.7-.1-6.6-3.2-6.5-6.8.1-3.7 3.2-6.6 6.8-6.6 3.7.1 6.6 3.2 6.5 6.8 0 3.7-3.1 6.6-6.8 6.6m.2-10.3c-2 0-3.6 1.5-3.6 3.5s1.5 3.6 3.5 3.6 3.6-1.5 3.6-3.5-1.5-3.5-3.5-3.6" class="st0"/><path d="M414 601.2c2.8.1 5.2-2.2 5.2-5 .1-2.8-2.2-5.2-5-5.2-2.8-.1-5.2 2.2-5.2 5-.1 2.8 2.1 5.1 5 5.2" class="st1"/><path d="M413.9 602.8c-3.7-.1-6.6-3.2-6.5-6.8.1-3.7 3.2-6.6 6.8-6.6 3.7.1 6.6 3.2 6.5 6.8 0 3.7-3.1 6.6-6.8 6.6m.2-10.3c-2 0-3.6 1.5-3.6 3.5s1.5 3.6 3.5 3.6 3.6-1.5 3.6-3.5-1.5-3.5-3.5-3.6" class="st0"/></g></svg>